G04 EAGLE Gerber RS-274X export*
G75*
%MOMM*%
%FSLAX34Y34*%
%LPD*%
%INBottom Silkscreen*%
%IPPOS*%
%AMOC8*
5,1,8,0,0,1.08239X$1,22.5*%
G01*
%ADD10C,0.101600*%
%ADD11C,0.152400*%
%ADD12C,0.200000*%
%ADD13C,0.203200*%
%ADD14C,0.050800*%
%ADD15C,0.127000*%
%ADD16C,0.076200*%
%ADD17C,0.254000*%

G36*
X53565Y957277D02*
X53565Y957277D01*
X53631Y957279D01*
X53674Y957297D01*
X53721Y957305D01*
X53778Y957339D01*
X53838Y957364D01*
X53873Y957395D01*
X53914Y957420D01*
X53956Y957471D01*
X54004Y957515D01*
X54026Y957557D01*
X54055Y957594D01*
X54076Y957656D01*
X54107Y957715D01*
X54115Y957769D01*
X54127Y957806D01*
X54126Y957846D01*
X54134Y957900D01*
X54134Y967266D01*
X72866Y967266D01*
X72866Y957900D01*
X72877Y957835D01*
X72879Y957769D01*
X72897Y957726D01*
X72905Y957679D01*
X72939Y957622D01*
X72964Y957562D01*
X72995Y957527D01*
X73020Y957486D01*
X73071Y957445D01*
X73115Y957396D01*
X73157Y957374D01*
X73194Y957345D01*
X73256Y957324D01*
X73315Y957293D01*
X73369Y957285D01*
X73406Y957273D01*
X73446Y957274D01*
X73500Y957266D01*
X103500Y957266D01*
X103565Y957277D01*
X103631Y957279D01*
X103674Y957297D01*
X103721Y957305D01*
X103778Y957339D01*
X103838Y957364D01*
X103873Y957395D01*
X103914Y957420D01*
X103956Y957471D01*
X104004Y957515D01*
X104026Y957557D01*
X104055Y957594D01*
X104076Y957656D01*
X104107Y957715D01*
X104115Y957769D01*
X104127Y957806D01*
X104126Y957846D01*
X104134Y957900D01*
X104134Y997900D01*
X104123Y997965D01*
X104121Y998031D01*
X104103Y998074D01*
X104095Y998121D01*
X104061Y998178D01*
X104036Y998238D01*
X104005Y998273D01*
X103980Y998314D01*
X103929Y998356D01*
X103885Y998404D01*
X103843Y998426D01*
X103806Y998455D01*
X103744Y998476D01*
X103685Y998507D01*
X103631Y998515D01*
X103594Y998527D01*
X103554Y998526D01*
X103500Y998534D01*
X23500Y998534D01*
X23435Y998523D01*
X23369Y998521D01*
X23326Y998503D01*
X23279Y998495D01*
X23222Y998461D01*
X23162Y998436D01*
X23127Y998405D01*
X23086Y998380D01*
X23045Y998329D01*
X22996Y998285D01*
X22974Y998243D01*
X22945Y998206D01*
X22924Y998144D01*
X22893Y998085D01*
X22885Y998031D01*
X22873Y997994D01*
X22874Y997955D01*
X22873Y997951D01*
X22873Y997947D01*
X22866Y997900D01*
X22866Y957900D01*
X22877Y957835D01*
X22879Y957769D01*
X22897Y957726D01*
X22905Y957679D01*
X22939Y957622D01*
X22964Y957562D01*
X22995Y957527D01*
X23020Y957486D01*
X23071Y957445D01*
X23115Y957396D01*
X23157Y957374D01*
X23194Y957345D01*
X23256Y957324D01*
X23315Y957293D01*
X23369Y957285D01*
X23406Y957273D01*
X23446Y957274D01*
X23500Y957266D01*
X53500Y957266D01*
X53565Y957277D01*
G37*
D10*
X12291Y94990D02*
X14732Y98041D01*
X3748Y98041D01*
X3748Y94990D02*
X3748Y101092D01*
D11*
X410679Y405668D02*
X410679Y420038D01*
X410679Y405668D02*
X410681Y405542D01*
X410687Y405415D01*
X410697Y405289D01*
X410710Y405163D01*
X410728Y405038D01*
X410749Y404914D01*
X410774Y404790D01*
X410803Y404666D01*
X410836Y404544D01*
X410872Y404423D01*
X410912Y404303D01*
X410956Y404185D01*
X411004Y404068D01*
X411055Y403952D01*
X411109Y403838D01*
X411168Y403725D01*
X411229Y403615D01*
X411294Y403506D01*
X411362Y403400D01*
X411434Y403296D01*
X411508Y403194D01*
X411586Y403094D01*
X411667Y402997D01*
X411751Y402902D01*
X411837Y402810D01*
X411927Y402720D01*
X412019Y402634D01*
X412114Y402550D01*
X412211Y402469D01*
X412311Y402391D01*
X412413Y402317D01*
X412517Y402245D01*
X412623Y402177D01*
X412732Y402112D01*
X412842Y402051D01*
X412955Y401992D01*
X413069Y401938D01*
X413185Y401887D01*
X413302Y401839D01*
X413420Y401795D01*
X413540Y401755D01*
X413661Y401719D01*
X413784Y401686D01*
X413907Y401657D01*
X414031Y401632D01*
X414155Y401611D01*
X414280Y401593D01*
X414406Y401580D01*
X414532Y401570D01*
X414659Y401564D01*
X414785Y401562D01*
X416838Y401562D01*
X403165Y406694D02*
X403165Y414906D01*
X403164Y414906D02*
X403162Y415047D01*
X403156Y415189D01*
X403146Y415330D01*
X403133Y415471D01*
X403115Y415611D01*
X403094Y415751D01*
X403069Y415890D01*
X403040Y416028D01*
X403007Y416166D01*
X402970Y416302D01*
X402930Y416438D01*
X402886Y416572D01*
X402838Y416705D01*
X402787Y416837D01*
X402732Y416968D01*
X402673Y417096D01*
X402611Y417223D01*
X402545Y417349D01*
X402476Y417472D01*
X402404Y417593D01*
X402328Y417713D01*
X402249Y417830D01*
X402167Y417945D01*
X402082Y418058D01*
X401993Y418169D01*
X401902Y418276D01*
X401808Y418382D01*
X401711Y418485D01*
X401611Y418585D01*
X401508Y418682D01*
X401402Y418776D01*
X401295Y418867D01*
X401184Y418956D01*
X401071Y419041D01*
X400956Y419123D01*
X400839Y419202D01*
X400719Y419278D01*
X400598Y419350D01*
X400475Y419419D01*
X400349Y419485D01*
X400222Y419547D01*
X400094Y419606D01*
X399963Y419661D01*
X399831Y419712D01*
X399698Y419760D01*
X399564Y419804D01*
X399428Y419844D01*
X399292Y419881D01*
X399154Y419914D01*
X399016Y419943D01*
X398877Y419968D01*
X398737Y419989D01*
X398597Y420007D01*
X398456Y420020D01*
X398315Y420030D01*
X398173Y420036D01*
X398032Y420038D01*
X397891Y420036D01*
X397749Y420030D01*
X397608Y420020D01*
X397467Y420007D01*
X397327Y419989D01*
X397187Y419968D01*
X397048Y419943D01*
X396910Y419914D01*
X396772Y419881D01*
X396636Y419844D01*
X396500Y419804D01*
X396366Y419760D01*
X396233Y419712D01*
X396101Y419661D01*
X395970Y419606D01*
X395842Y419547D01*
X395715Y419485D01*
X395589Y419419D01*
X395466Y419350D01*
X395345Y419278D01*
X395225Y419202D01*
X395108Y419123D01*
X394993Y419041D01*
X394880Y418956D01*
X394769Y418867D01*
X394662Y418776D01*
X394556Y418682D01*
X394453Y418585D01*
X394353Y418485D01*
X394256Y418382D01*
X394162Y418276D01*
X394071Y418169D01*
X393982Y418058D01*
X393897Y417945D01*
X393815Y417830D01*
X393736Y417713D01*
X393660Y417593D01*
X393588Y417472D01*
X393519Y417349D01*
X393453Y417223D01*
X393391Y417096D01*
X393332Y416968D01*
X393277Y416837D01*
X393226Y416705D01*
X393178Y416572D01*
X393134Y416438D01*
X393094Y416302D01*
X393057Y416166D01*
X393024Y416028D01*
X392995Y415890D01*
X392970Y415751D01*
X392949Y415611D01*
X392931Y415471D01*
X392918Y415330D01*
X392908Y415189D01*
X392902Y415047D01*
X392900Y414906D01*
X392900Y406694D01*
X392902Y406553D01*
X392908Y406411D01*
X392918Y406270D01*
X392931Y406129D01*
X392949Y405989D01*
X392970Y405849D01*
X392995Y405710D01*
X393024Y405572D01*
X393057Y405434D01*
X393094Y405298D01*
X393134Y405162D01*
X393178Y405028D01*
X393226Y404895D01*
X393277Y404763D01*
X393332Y404632D01*
X393391Y404504D01*
X393453Y404377D01*
X393519Y404251D01*
X393588Y404128D01*
X393660Y404007D01*
X393736Y403887D01*
X393815Y403770D01*
X393897Y403655D01*
X393982Y403542D01*
X394071Y403431D01*
X394162Y403324D01*
X394256Y403218D01*
X394353Y403115D01*
X394453Y403015D01*
X394556Y402918D01*
X394662Y402824D01*
X394769Y402733D01*
X394880Y402644D01*
X394993Y402559D01*
X395108Y402477D01*
X395225Y402398D01*
X395345Y402322D01*
X395466Y402250D01*
X395589Y402181D01*
X395715Y402115D01*
X395842Y402053D01*
X395970Y401994D01*
X396101Y401939D01*
X396233Y401888D01*
X396366Y401840D01*
X396500Y401796D01*
X396636Y401756D01*
X396772Y401719D01*
X396910Y401686D01*
X397048Y401657D01*
X397187Y401632D01*
X397327Y401611D01*
X397467Y401593D01*
X397608Y401580D01*
X397749Y401570D01*
X397891Y401564D01*
X398032Y401562D01*
X398173Y401564D01*
X398315Y401570D01*
X398456Y401580D01*
X398597Y401593D01*
X398737Y401611D01*
X398877Y401632D01*
X399016Y401657D01*
X399154Y401686D01*
X399292Y401719D01*
X399428Y401756D01*
X399564Y401796D01*
X399698Y401840D01*
X399831Y401888D01*
X399963Y401939D01*
X400094Y401994D01*
X400222Y402053D01*
X400349Y402115D01*
X400475Y402181D01*
X400598Y402250D01*
X400719Y402322D01*
X400839Y402398D01*
X400956Y402477D01*
X401071Y402559D01*
X401184Y402644D01*
X401295Y402733D01*
X401402Y402824D01*
X401508Y402918D01*
X401611Y403015D01*
X401711Y403115D01*
X401808Y403218D01*
X401902Y403324D01*
X401993Y403431D01*
X402082Y403542D01*
X402167Y403655D01*
X402249Y403770D01*
X402328Y403887D01*
X402404Y404007D01*
X402476Y404128D01*
X402545Y404251D01*
X402611Y404377D01*
X402673Y404504D01*
X402732Y404632D01*
X402787Y404763D01*
X402838Y404895D01*
X402886Y405028D01*
X402930Y405162D01*
X402970Y405298D01*
X403007Y405434D01*
X403040Y405572D01*
X403069Y405710D01*
X403094Y405849D01*
X403115Y405989D01*
X403133Y406129D01*
X403146Y406270D01*
X403156Y406411D01*
X403162Y406553D01*
X403164Y406694D01*
X386941Y420038D02*
X380782Y411313D01*
X374624Y420038D01*
X380782Y411313D02*
X380782Y401562D01*
X363081Y401562D02*
X362955Y401564D01*
X362828Y401570D01*
X362702Y401580D01*
X362576Y401593D01*
X362451Y401611D01*
X362327Y401632D01*
X362203Y401657D01*
X362080Y401686D01*
X361957Y401719D01*
X361836Y401755D01*
X361716Y401795D01*
X361598Y401839D01*
X361481Y401887D01*
X361365Y401938D01*
X361251Y401992D01*
X361138Y402051D01*
X361028Y402112D01*
X360919Y402177D01*
X360813Y402245D01*
X360709Y402317D01*
X360607Y402391D01*
X360507Y402469D01*
X360410Y402550D01*
X360315Y402634D01*
X360223Y402720D01*
X360133Y402810D01*
X360047Y402902D01*
X359963Y402997D01*
X359882Y403094D01*
X359804Y403194D01*
X359730Y403296D01*
X359658Y403400D01*
X359590Y403506D01*
X359525Y403615D01*
X359464Y403725D01*
X359405Y403838D01*
X359351Y403952D01*
X359300Y404068D01*
X359252Y404185D01*
X359208Y404303D01*
X359168Y404423D01*
X359132Y404544D01*
X359099Y404666D01*
X359070Y404790D01*
X359045Y404914D01*
X359024Y405038D01*
X359006Y405163D01*
X358993Y405289D01*
X358983Y405415D01*
X358977Y405542D01*
X358975Y405668D01*
X363081Y401562D02*
X363289Y401564D01*
X363496Y401572D01*
X363703Y401584D01*
X363910Y401602D01*
X364116Y401624D01*
X364322Y401651D01*
X364527Y401683D01*
X364731Y401720D01*
X364934Y401762D01*
X365137Y401809D01*
X365338Y401861D01*
X365537Y401917D01*
X365736Y401978D01*
X365933Y402044D01*
X366128Y402115D01*
X366321Y402190D01*
X366513Y402270D01*
X366702Y402354D01*
X366890Y402443D01*
X367075Y402536D01*
X367258Y402634D01*
X367439Y402736D01*
X367617Y402843D01*
X367793Y402953D01*
X367966Y403068D01*
X368136Y403187D01*
X368303Y403310D01*
X368467Y403437D01*
X368628Y403568D01*
X368786Y403702D01*
X368941Y403841D01*
X369092Y403983D01*
X369240Y404128D01*
X368727Y415932D02*
X368725Y416058D01*
X368719Y416185D01*
X368709Y416311D01*
X368696Y416437D01*
X368678Y416562D01*
X368657Y416686D01*
X368632Y416810D01*
X368603Y416934D01*
X368570Y417056D01*
X368534Y417177D01*
X368494Y417297D01*
X368450Y417415D01*
X368402Y417532D01*
X368351Y417648D01*
X368297Y417762D01*
X368238Y417875D01*
X368177Y417985D01*
X368112Y418094D01*
X368044Y418200D01*
X367972Y418304D01*
X367898Y418406D01*
X367820Y418506D01*
X367739Y418603D01*
X367655Y418698D01*
X367569Y418790D01*
X367479Y418880D01*
X367387Y418966D01*
X367292Y419050D01*
X367195Y419131D01*
X367095Y419209D01*
X366993Y419283D01*
X366889Y419355D01*
X366783Y419423D01*
X366674Y419488D01*
X366564Y419549D01*
X366451Y419608D01*
X366337Y419662D01*
X366221Y419713D01*
X366104Y419761D01*
X365986Y419805D01*
X365866Y419845D01*
X365745Y419881D01*
X365623Y419914D01*
X365499Y419943D01*
X365375Y419968D01*
X365251Y419989D01*
X365126Y420007D01*
X365000Y420020D01*
X364874Y420030D01*
X364747Y420036D01*
X364621Y420038D01*
X364438Y420036D01*
X364254Y420029D01*
X364071Y420018D01*
X363888Y420003D01*
X363706Y419983D01*
X363524Y419959D01*
X363343Y419931D01*
X363162Y419898D01*
X362982Y419862D01*
X362804Y419820D01*
X362626Y419775D01*
X362449Y419725D01*
X362274Y419671D01*
X362100Y419613D01*
X361927Y419551D01*
X361756Y419485D01*
X361587Y419415D01*
X361419Y419340D01*
X361253Y419262D01*
X361089Y419180D01*
X360927Y419094D01*
X360767Y419004D01*
X360609Y418910D01*
X360454Y418813D01*
X360301Y418711D01*
X360150Y418607D01*
X360002Y418498D01*
X366673Y412339D02*
X366782Y412406D01*
X366888Y412475D01*
X366993Y412548D01*
X367095Y412624D01*
X367195Y412703D01*
X367292Y412785D01*
X367387Y412870D01*
X367479Y412958D01*
X367569Y413049D01*
X367655Y413142D01*
X367739Y413238D01*
X367820Y413337D01*
X367898Y413437D01*
X367972Y413541D01*
X368044Y413646D01*
X368112Y413754D01*
X368177Y413863D01*
X368238Y413975D01*
X368296Y414088D01*
X368351Y414203D01*
X368402Y414320D01*
X368449Y414438D01*
X368493Y414557D01*
X368533Y414678D01*
X368569Y414800D01*
X368602Y414923D01*
X368631Y415047D01*
X368656Y415172D01*
X368677Y415298D01*
X368695Y415424D01*
X368709Y415551D01*
X368718Y415677D01*
X368724Y415805D01*
X368726Y415932D01*
X361028Y409261D02*
X360919Y409194D01*
X360813Y409125D01*
X360708Y409052D01*
X360606Y408976D01*
X360506Y408897D01*
X360409Y408815D01*
X360314Y408730D01*
X360222Y408642D01*
X360132Y408551D01*
X360046Y408458D01*
X359962Y408362D01*
X359881Y408264D01*
X359804Y408163D01*
X359729Y408059D01*
X359657Y407954D01*
X359589Y407847D01*
X359524Y407737D01*
X359463Y407625D01*
X359405Y407512D01*
X359350Y407397D01*
X359299Y407280D01*
X359252Y407162D01*
X359208Y407043D01*
X359168Y406922D01*
X359132Y406800D01*
X359099Y406677D01*
X359070Y406553D01*
X359045Y406428D01*
X359024Y406302D01*
X359006Y406176D01*
X358992Y406049D01*
X358983Y405923D01*
X358977Y405795D01*
X358975Y405668D01*
X361028Y409260D02*
X366673Y412340D01*
X348582Y420038D02*
X348582Y401562D01*
X353715Y420038D02*
X343450Y420038D01*
X335932Y420038D02*
X335932Y401562D01*
X337985Y401562D02*
X333879Y401562D01*
X333879Y420038D02*
X337985Y420038D01*
X323193Y401562D02*
X319087Y401562D01*
X323193Y401562D02*
X323319Y401564D01*
X323446Y401570D01*
X323572Y401580D01*
X323698Y401593D01*
X323823Y401611D01*
X323947Y401632D01*
X324071Y401657D01*
X324195Y401686D01*
X324317Y401719D01*
X324438Y401755D01*
X324558Y401795D01*
X324676Y401839D01*
X324793Y401887D01*
X324909Y401938D01*
X325023Y401992D01*
X325136Y402051D01*
X325246Y402112D01*
X325355Y402177D01*
X325461Y402245D01*
X325565Y402317D01*
X325667Y402391D01*
X325767Y402469D01*
X325864Y402550D01*
X325959Y402634D01*
X326051Y402720D01*
X326141Y402810D01*
X326227Y402902D01*
X326311Y402997D01*
X326392Y403094D01*
X326470Y403194D01*
X326544Y403296D01*
X326616Y403400D01*
X326684Y403506D01*
X326749Y403615D01*
X326810Y403725D01*
X326869Y403838D01*
X326923Y403952D01*
X326974Y404068D01*
X327022Y404185D01*
X327066Y404303D01*
X327106Y404423D01*
X327142Y404544D01*
X327175Y404666D01*
X327204Y404790D01*
X327229Y404914D01*
X327250Y405038D01*
X327268Y405163D01*
X327281Y405289D01*
X327291Y405415D01*
X327297Y405542D01*
X327299Y405668D01*
X327299Y415932D01*
X327297Y416058D01*
X327291Y416185D01*
X327281Y416311D01*
X327268Y416437D01*
X327250Y416562D01*
X327229Y416686D01*
X327204Y416810D01*
X327175Y416934D01*
X327142Y417056D01*
X327106Y417177D01*
X327066Y417297D01*
X327022Y417415D01*
X326974Y417532D01*
X326923Y417648D01*
X326869Y417762D01*
X326810Y417875D01*
X326749Y417985D01*
X326684Y418094D01*
X326616Y418200D01*
X326544Y418304D01*
X326470Y418406D01*
X326392Y418506D01*
X326311Y418603D01*
X326227Y418698D01*
X326141Y418790D01*
X326051Y418880D01*
X325959Y418966D01*
X325864Y419050D01*
X325767Y419131D01*
X325667Y419209D01*
X325565Y419283D01*
X325461Y419355D01*
X325355Y419423D01*
X325246Y419488D01*
X325136Y419549D01*
X325023Y419608D01*
X324909Y419662D01*
X324793Y419713D01*
X324676Y419761D01*
X324558Y419805D01*
X324438Y419845D01*
X324317Y419881D01*
X324195Y419914D01*
X324071Y419943D01*
X323947Y419968D01*
X323823Y419989D01*
X323698Y420007D01*
X323572Y420020D01*
X323446Y420030D01*
X323319Y420036D01*
X323193Y420038D01*
X319087Y420038D01*
X312125Y420038D02*
X312125Y401562D01*
X312125Y408747D02*
X301861Y420038D01*
X308019Y412853D02*
X301861Y401562D01*
X281307Y401562D02*
X287466Y420038D01*
X275149Y420038D02*
X281307Y401562D01*
X269190Y415932D02*
X264057Y420038D01*
X264057Y401562D01*
X258925Y401562D02*
X269190Y401562D01*
X252496Y401562D02*
X252496Y402588D01*
X251469Y402588D01*
X251469Y401562D01*
X252496Y401562D01*
X245040Y410800D02*
X245036Y411163D01*
X245023Y411527D01*
X245001Y411890D01*
X244971Y412252D01*
X244932Y412613D01*
X244884Y412974D01*
X244828Y413333D01*
X244763Y413690D01*
X244690Y414046D01*
X244608Y414401D01*
X244518Y414753D01*
X244419Y415103D01*
X244313Y415450D01*
X244197Y415795D01*
X244074Y416137D01*
X243943Y416476D01*
X243803Y416811D01*
X243656Y417143D01*
X243500Y417472D01*
X243459Y417585D01*
X243414Y417698D01*
X243366Y417808D01*
X243314Y417918D01*
X243259Y418025D01*
X243201Y418131D01*
X243139Y418235D01*
X243074Y418336D01*
X243006Y418436D01*
X242934Y418534D01*
X242860Y418629D01*
X242782Y418721D01*
X242702Y418812D01*
X242619Y418899D01*
X242533Y418984D01*
X242444Y419066D01*
X242353Y419145D01*
X242259Y419222D01*
X242163Y419295D01*
X242065Y419365D01*
X241965Y419432D01*
X241862Y419496D01*
X241758Y419557D01*
X241651Y419614D01*
X241543Y419668D01*
X241433Y419718D01*
X241322Y419765D01*
X241209Y419808D01*
X241095Y419847D01*
X240979Y419883D01*
X240863Y419916D01*
X240746Y419944D01*
X240627Y419969D01*
X240508Y419990D01*
X240389Y420007D01*
X240269Y420021D01*
X240148Y420030D01*
X240028Y420036D01*
X239907Y420038D01*
X239786Y420036D01*
X239666Y420030D01*
X239545Y420021D01*
X239425Y420007D01*
X239306Y419990D01*
X239187Y419969D01*
X239068Y419944D01*
X238951Y419916D01*
X238835Y419883D01*
X238719Y419847D01*
X238605Y419808D01*
X238492Y419765D01*
X238381Y419718D01*
X238271Y419668D01*
X238163Y419614D01*
X238056Y419557D01*
X237952Y419496D01*
X237849Y419432D01*
X237749Y419365D01*
X237651Y419295D01*
X237555Y419222D01*
X237461Y419145D01*
X237370Y419066D01*
X237281Y418984D01*
X237195Y418899D01*
X237112Y418812D01*
X237032Y418721D01*
X236954Y418629D01*
X236880Y418534D01*
X236808Y418436D01*
X236740Y418336D01*
X236675Y418235D01*
X236613Y418131D01*
X236555Y418025D01*
X236500Y417918D01*
X236448Y417808D01*
X236400Y417698D01*
X236355Y417585D01*
X236314Y417472D01*
X236316Y417472D02*
X236160Y417143D01*
X236013Y416811D01*
X235873Y416475D01*
X235742Y416136D01*
X235619Y415795D01*
X235503Y415450D01*
X235397Y415102D01*
X235298Y414752D01*
X235208Y414400D01*
X235126Y414046D01*
X235053Y413690D01*
X234988Y413333D01*
X234932Y412973D01*
X234884Y412613D01*
X234845Y412252D01*
X234815Y411890D01*
X234793Y411527D01*
X234780Y411163D01*
X234776Y410800D01*
X245040Y410800D02*
X245036Y410437D01*
X245023Y410073D01*
X245001Y409710D01*
X244971Y409348D01*
X244932Y408987D01*
X244884Y408626D01*
X244828Y408267D01*
X244763Y407910D01*
X244690Y407554D01*
X244608Y407199D01*
X244518Y406847D01*
X244419Y406497D01*
X244313Y406150D01*
X244197Y405805D01*
X244074Y405463D01*
X243943Y405124D01*
X243803Y404789D01*
X243656Y404457D01*
X243500Y404128D01*
X243459Y404015D01*
X243414Y403902D01*
X243366Y403792D01*
X243314Y403682D01*
X243259Y403575D01*
X243201Y403469D01*
X243139Y403365D01*
X243074Y403264D01*
X243006Y403164D01*
X242934Y403066D01*
X242860Y402971D01*
X242782Y402879D01*
X242702Y402788D01*
X242619Y402701D01*
X242533Y402616D01*
X242444Y402534D01*
X242353Y402455D01*
X242259Y402378D01*
X242163Y402305D01*
X242065Y402235D01*
X241965Y402168D01*
X241862Y402104D01*
X241758Y402043D01*
X241651Y401986D01*
X241543Y401932D01*
X241433Y401882D01*
X241322Y401835D01*
X241209Y401792D01*
X241095Y401753D01*
X240979Y401717D01*
X240863Y401684D01*
X240746Y401656D01*
X240627Y401631D01*
X240508Y401610D01*
X240389Y401593D01*
X240269Y401579D01*
X240148Y401570D01*
X240028Y401564D01*
X239907Y401562D01*
X236315Y404128D02*
X236159Y404457D01*
X236012Y404789D01*
X235872Y405124D01*
X235741Y405463D01*
X235618Y405805D01*
X235502Y406150D01*
X235396Y406497D01*
X235297Y406847D01*
X235207Y407199D01*
X235125Y407554D01*
X235052Y407910D01*
X234987Y408267D01*
X234931Y408626D01*
X234883Y408987D01*
X234844Y409348D01*
X234814Y409710D01*
X234792Y410073D01*
X234779Y410437D01*
X234775Y410800D01*
X236314Y404128D02*
X236355Y404015D01*
X236400Y403902D01*
X236448Y403792D01*
X236500Y403682D01*
X236555Y403575D01*
X236613Y403469D01*
X236675Y403365D01*
X236740Y403264D01*
X236808Y403164D01*
X236880Y403066D01*
X236954Y402971D01*
X237032Y402879D01*
X237112Y402788D01*
X237195Y402701D01*
X237281Y402616D01*
X237370Y402534D01*
X237461Y402455D01*
X237555Y402378D01*
X237651Y402305D01*
X237749Y402235D01*
X237849Y402168D01*
X237952Y402104D01*
X238056Y402043D01*
X238163Y401986D01*
X238271Y401932D01*
X238381Y401882D01*
X238492Y401835D01*
X238605Y401792D01*
X238719Y401753D01*
X238835Y401717D01*
X238951Y401684D01*
X239068Y401656D01*
X239187Y401631D01*
X239306Y401610D01*
X239425Y401593D01*
X239545Y401579D01*
X239666Y401570D01*
X239786Y401564D01*
X239907Y401562D01*
X244013Y405668D02*
X235802Y415932D01*
D10*
X108712Y949396D02*
X105466Y951992D01*
X105466Y940308D01*
X102221Y940308D02*
X108712Y940308D01*
X105918Y953008D02*
X117602Y953008D01*
X111111Y956903D01*
X117602Y960797D01*
X105918Y960797D01*
X105918Y968714D02*
X117602Y968714D01*
X117602Y971959D02*
X117602Y965468D01*
X115006Y976136D02*
X117602Y979382D01*
X105918Y979382D01*
X105918Y982627D02*
X105918Y976136D01*
D12*
X487100Y619180D02*
X487100Y523820D01*
X147900Y523820D01*
X147900Y619180D01*
X487100Y619180D01*
D10*
X495706Y552572D02*
X498952Y549976D01*
X495706Y552572D02*
X495706Y540888D01*
X492461Y540888D02*
X498952Y540888D01*
X492461Y599191D02*
X492463Y599298D01*
X492469Y599404D01*
X492479Y599510D01*
X492492Y599616D01*
X492510Y599722D01*
X492531Y599826D01*
X492556Y599930D01*
X492585Y600033D01*
X492617Y600134D01*
X492654Y600234D01*
X492694Y600333D01*
X492737Y600431D01*
X492784Y600527D01*
X492835Y600621D01*
X492889Y600713D01*
X492946Y600803D01*
X493006Y600891D01*
X493070Y600976D01*
X493137Y601059D01*
X493207Y601140D01*
X493279Y601218D01*
X493355Y601294D01*
X493433Y601366D01*
X493514Y601436D01*
X493597Y601503D01*
X493682Y601567D01*
X493770Y601627D01*
X493860Y601684D01*
X493952Y601738D01*
X494046Y601789D01*
X494142Y601836D01*
X494240Y601879D01*
X494339Y601919D01*
X494439Y601956D01*
X494540Y601988D01*
X494643Y602017D01*
X494747Y602042D01*
X494851Y602063D01*
X494957Y602081D01*
X495063Y602094D01*
X495169Y602104D01*
X495275Y602110D01*
X495382Y602112D01*
X495503Y602110D01*
X495624Y602104D01*
X495744Y602094D01*
X495865Y602081D01*
X495984Y602063D01*
X496104Y602042D01*
X496222Y602017D01*
X496339Y601988D01*
X496456Y601955D01*
X496571Y601919D01*
X496685Y601878D01*
X496798Y601835D01*
X496910Y601787D01*
X497019Y601736D01*
X497127Y601681D01*
X497234Y601623D01*
X497338Y601562D01*
X497440Y601497D01*
X497540Y601429D01*
X497638Y601358D01*
X497734Y601284D01*
X497827Y601207D01*
X497917Y601126D01*
X498005Y601043D01*
X498090Y600957D01*
X498173Y600868D01*
X498252Y600777D01*
X498329Y600683D01*
X498402Y600587D01*
X498472Y600489D01*
X498539Y600388D01*
X498603Y600285D01*
X498664Y600180D01*
X498721Y600073D01*
X498774Y599965D01*
X498824Y599855D01*
X498870Y599743D01*
X498913Y599630D01*
X498952Y599515D01*
X493435Y596919D02*
X493356Y596997D01*
X493280Y597077D01*
X493207Y597160D01*
X493137Y597246D01*
X493070Y597333D01*
X493006Y597424D01*
X492946Y597516D01*
X492888Y597610D01*
X492834Y597707D01*
X492784Y597805D01*
X492737Y597905D01*
X492693Y598006D01*
X492653Y598109D01*
X492617Y598214D01*
X492585Y598319D01*
X492556Y598426D01*
X492531Y598533D01*
X492509Y598642D01*
X492492Y598751D01*
X492478Y598860D01*
X492469Y598970D01*
X492463Y599081D01*
X492461Y599191D01*
X493435Y596919D02*
X498952Y590428D01*
X492461Y590428D01*
X139052Y552572D02*
X138945Y552570D01*
X138839Y552564D01*
X138733Y552554D01*
X138627Y552541D01*
X138521Y552523D01*
X138417Y552502D01*
X138313Y552477D01*
X138210Y552448D01*
X138109Y552416D01*
X138009Y552379D01*
X137910Y552339D01*
X137812Y552296D01*
X137716Y552249D01*
X137622Y552198D01*
X137530Y552144D01*
X137440Y552087D01*
X137352Y552027D01*
X137267Y551963D01*
X137184Y551896D01*
X137103Y551826D01*
X137025Y551754D01*
X136949Y551678D01*
X136877Y551600D01*
X136807Y551519D01*
X136740Y551436D01*
X136676Y551351D01*
X136616Y551263D01*
X136559Y551173D01*
X136505Y551081D01*
X136454Y550987D01*
X136407Y550891D01*
X136364Y550793D01*
X136324Y550694D01*
X136287Y550594D01*
X136255Y550493D01*
X136226Y550390D01*
X136201Y550286D01*
X136180Y550182D01*
X136162Y550076D01*
X136149Y549970D01*
X136139Y549864D01*
X136133Y549758D01*
X136131Y549651D01*
X139052Y552572D02*
X139173Y552570D01*
X139294Y552564D01*
X139414Y552554D01*
X139535Y552541D01*
X139654Y552523D01*
X139774Y552502D01*
X139892Y552477D01*
X140009Y552448D01*
X140126Y552415D01*
X140241Y552379D01*
X140355Y552338D01*
X140468Y552295D01*
X140580Y552247D01*
X140689Y552196D01*
X140797Y552141D01*
X140904Y552083D01*
X141008Y552022D01*
X141110Y551957D01*
X141210Y551889D01*
X141308Y551818D01*
X141404Y551744D01*
X141497Y551667D01*
X141587Y551586D01*
X141675Y551503D01*
X141760Y551417D01*
X141843Y551328D01*
X141922Y551237D01*
X141999Y551143D01*
X142072Y551047D01*
X142142Y550949D01*
X142209Y550848D01*
X142273Y550745D01*
X142334Y550640D01*
X142391Y550533D01*
X142444Y550425D01*
X142494Y550315D01*
X142540Y550203D01*
X142583Y550090D01*
X142622Y549975D01*
X137105Y547379D02*
X137026Y547457D01*
X136950Y547537D01*
X136877Y547620D01*
X136807Y547706D01*
X136740Y547793D01*
X136676Y547884D01*
X136616Y547976D01*
X136558Y548070D01*
X136504Y548167D01*
X136454Y548265D01*
X136407Y548365D01*
X136363Y548466D01*
X136323Y548569D01*
X136287Y548674D01*
X136255Y548779D01*
X136226Y548886D01*
X136201Y548993D01*
X136179Y549102D01*
X136162Y549211D01*
X136148Y549320D01*
X136139Y549430D01*
X136133Y549541D01*
X136131Y549651D01*
X137105Y547379D02*
X142622Y540888D01*
X136131Y540888D01*
X131192Y540888D02*
X127297Y540888D01*
X127198Y540890D01*
X127098Y540896D01*
X126999Y540905D01*
X126901Y540918D01*
X126803Y540935D01*
X126705Y540956D01*
X126609Y540981D01*
X126514Y541009D01*
X126420Y541041D01*
X126327Y541076D01*
X126235Y541115D01*
X126145Y541158D01*
X126057Y541203D01*
X125970Y541253D01*
X125886Y541305D01*
X125803Y541361D01*
X125723Y541419D01*
X125645Y541481D01*
X125570Y541546D01*
X125497Y541614D01*
X125427Y541684D01*
X125359Y541757D01*
X125294Y541832D01*
X125232Y541910D01*
X125174Y541990D01*
X125118Y542073D01*
X125066Y542157D01*
X125016Y542244D01*
X124971Y542332D01*
X124928Y542422D01*
X124889Y542514D01*
X124854Y542607D01*
X124822Y542701D01*
X124794Y542796D01*
X124769Y542892D01*
X124748Y542990D01*
X124731Y543088D01*
X124718Y543186D01*
X124709Y543285D01*
X124703Y543385D01*
X124701Y543484D01*
X124701Y544783D01*
X124703Y544882D01*
X124709Y544982D01*
X124718Y545081D01*
X124731Y545179D01*
X124748Y545277D01*
X124769Y545375D01*
X124794Y545471D01*
X124822Y545566D01*
X124854Y545660D01*
X124889Y545753D01*
X124928Y545845D01*
X124971Y545935D01*
X125016Y546023D01*
X125066Y546110D01*
X125118Y546194D01*
X125174Y546277D01*
X125232Y546357D01*
X125294Y546435D01*
X125359Y546510D01*
X125427Y546583D01*
X125497Y546653D01*
X125570Y546721D01*
X125645Y546786D01*
X125723Y546848D01*
X125803Y546906D01*
X125886Y546962D01*
X125970Y547014D01*
X126057Y547064D01*
X126145Y547109D01*
X126235Y547152D01*
X126327Y547191D01*
X126420Y547226D01*
X126514Y547258D01*
X126609Y547286D01*
X126705Y547311D01*
X126803Y547332D01*
X126901Y547349D01*
X126999Y547362D01*
X127098Y547371D01*
X127198Y547377D01*
X127297Y547379D01*
X131192Y547379D01*
X131192Y552572D01*
X124701Y552572D01*
X136131Y599191D02*
X136133Y599298D01*
X136139Y599404D01*
X136149Y599510D01*
X136162Y599616D01*
X136180Y599722D01*
X136201Y599826D01*
X136226Y599930D01*
X136255Y600033D01*
X136287Y600134D01*
X136324Y600234D01*
X136364Y600333D01*
X136407Y600431D01*
X136454Y600527D01*
X136505Y600621D01*
X136559Y600713D01*
X136616Y600803D01*
X136676Y600891D01*
X136740Y600976D01*
X136807Y601059D01*
X136877Y601140D01*
X136949Y601218D01*
X137025Y601294D01*
X137103Y601366D01*
X137184Y601436D01*
X137267Y601503D01*
X137352Y601567D01*
X137440Y601627D01*
X137530Y601684D01*
X137622Y601738D01*
X137716Y601789D01*
X137812Y601836D01*
X137910Y601879D01*
X138009Y601919D01*
X138109Y601956D01*
X138210Y601988D01*
X138313Y602017D01*
X138417Y602042D01*
X138521Y602063D01*
X138627Y602081D01*
X138733Y602094D01*
X138839Y602104D01*
X138945Y602110D01*
X139052Y602112D01*
X139173Y602110D01*
X139294Y602104D01*
X139414Y602094D01*
X139535Y602081D01*
X139654Y602063D01*
X139774Y602042D01*
X139892Y602017D01*
X140009Y601988D01*
X140126Y601955D01*
X140241Y601919D01*
X140355Y601878D01*
X140468Y601835D01*
X140580Y601787D01*
X140689Y601736D01*
X140797Y601681D01*
X140904Y601623D01*
X141008Y601562D01*
X141110Y601497D01*
X141210Y601429D01*
X141308Y601358D01*
X141404Y601284D01*
X141497Y601207D01*
X141587Y601126D01*
X141675Y601043D01*
X141760Y600957D01*
X141843Y600868D01*
X141922Y600777D01*
X141999Y600683D01*
X142072Y600587D01*
X142142Y600489D01*
X142209Y600388D01*
X142273Y600285D01*
X142334Y600180D01*
X142391Y600073D01*
X142444Y599965D01*
X142494Y599855D01*
X142540Y599743D01*
X142583Y599630D01*
X142622Y599515D01*
X137105Y596919D02*
X137026Y596997D01*
X136950Y597077D01*
X136877Y597160D01*
X136807Y597246D01*
X136740Y597333D01*
X136676Y597424D01*
X136616Y597516D01*
X136558Y597610D01*
X136504Y597707D01*
X136454Y597805D01*
X136407Y597905D01*
X136363Y598006D01*
X136323Y598109D01*
X136287Y598214D01*
X136255Y598319D01*
X136226Y598426D01*
X136201Y598533D01*
X136179Y598642D01*
X136162Y598751D01*
X136148Y598860D01*
X136139Y598970D01*
X136133Y599081D01*
X136131Y599191D01*
X137105Y596919D02*
X142622Y590428D01*
X136131Y590428D01*
X131192Y596919D02*
X127297Y596919D01*
X127198Y596917D01*
X127098Y596911D01*
X126999Y596902D01*
X126901Y596889D01*
X126803Y596872D01*
X126705Y596851D01*
X126609Y596826D01*
X126514Y596798D01*
X126420Y596766D01*
X126327Y596731D01*
X126235Y596692D01*
X126145Y596649D01*
X126057Y596604D01*
X125970Y596554D01*
X125886Y596502D01*
X125803Y596446D01*
X125723Y596388D01*
X125645Y596326D01*
X125570Y596261D01*
X125497Y596193D01*
X125427Y596123D01*
X125359Y596050D01*
X125294Y595975D01*
X125232Y595897D01*
X125174Y595817D01*
X125118Y595734D01*
X125066Y595650D01*
X125016Y595563D01*
X124971Y595475D01*
X124928Y595385D01*
X124889Y595293D01*
X124854Y595200D01*
X124822Y595106D01*
X124794Y595011D01*
X124769Y594915D01*
X124748Y594817D01*
X124731Y594719D01*
X124718Y594621D01*
X124709Y594522D01*
X124703Y594422D01*
X124701Y594323D01*
X124701Y593674D01*
X124700Y593674D02*
X124702Y593561D01*
X124708Y593448D01*
X124718Y593335D01*
X124732Y593222D01*
X124749Y593110D01*
X124771Y592999D01*
X124796Y592889D01*
X124826Y592779D01*
X124859Y592671D01*
X124896Y592564D01*
X124936Y592458D01*
X124981Y592354D01*
X125029Y592251D01*
X125080Y592150D01*
X125135Y592051D01*
X125193Y591954D01*
X125255Y591859D01*
X125320Y591766D01*
X125388Y591676D01*
X125459Y591588D01*
X125534Y591502D01*
X125611Y591419D01*
X125691Y591339D01*
X125774Y591262D01*
X125860Y591187D01*
X125948Y591116D01*
X126038Y591048D01*
X126131Y590983D01*
X126226Y590921D01*
X126323Y590863D01*
X126422Y590808D01*
X126523Y590757D01*
X126626Y590709D01*
X126730Y590664D01*
X126836Y590624D01*
X126943Y590587D01*
X127051Y590554D01*
X127161Y590524D01*
X127271Y590499D01*
X127382Y590477D01*
X127494Y590460D01*
X127607Y590446D01*
X127720Y590436D01*
X127833Y590430D01*
X127946Y590428D01*
X128059Y590430D01*
X128172Y590436D01*
X128285Y590446D01*
X128398Y590460D01*
X128510Y590477D01*
X128621Y590499D01*
X128731Y590524D01*
X128841Y590554D01*
X128949Y590587D01*
X129056Y590624D01*
X129162Y590664D01*
X129266Y590709D01*
X129369Y590757D01*
X129470Y590808D01*
X129569Y590863D01*
X129666Y590921D01*
X129761Y590983D01*
X129854Y591048D01*
X129944Y591116D01*
X130032Y591187D01*
X130118Y591262D01*
X130201Y591339D01*
X130281Y591419D01*
X130358Y591502D01*
X130433Y591588D01*
X130504Y591676D01*
X130572Y591766D01*
X130637Y591859D01*
X130699Y591954D01*
X130757Y592051D01*
X130812Y592150D01*
X130863Y592251D01*
X130911Y592354D01*
X130956Y592458D01*
X130996Y592564D01*
X131033Y592671D01*
X131066Y592779D01*
X131096Y592889D01*
X131121Y592999D01*
X131143Y593110D01*
X131160Y593222D01*
X131174Y593335D01*
X131184Y593448D01*
X131190Y593561D01*
X131192Y593674D01*
X131192Y596919D01*
X131190Y597062D01*
X131184Y597205D01*
X131174Y597348D01*
X131160Y597490D01*
X131143Y597632D01*
X131121Y597774D01*
X131096Y597915D01*
X131066Y598055D01*
X131033Y598194D01*
X130996Y598332D01*
X130955Y598469D01*
X130911Y598605D01*
X130862Y598740D01*
X130810Y598873D01*
X130755Y599005D01*
X130695Y599135D01*
X130632Y599264D01*
X130566Y599391D01*
X130496Y599516D01*
X130423Y599638D01*
X130346Y599759D01*
X130266Y599878D01*
X130183Y599994D01*
X130097Y600109D01*
X130008Y600220D01*
X129915Y600330D01*
X129820Y600436D01*
X129721Y600540D01*
X129620Y600641D01*
X129516Y600740D01*
X129410Y600835D01*
X129300Y600928D01*
X129189Y601017D01*
X129074Y601103D01*
X128958Y601186D01*
X128839Y601266D01*
X128718Y601343D01*
X128596Y601416D01*
X128471Y601486D01*
X128344Y601552D01*
X128215Y601615D01*
X128085Y601675D01*
X127953Y601730D01*
X127820Y601782D01*
X127685Y601831D01*
X127549Y601875D01*
X127412Y601916D01*
X127274Y601953D01*
X127135Y601986D01*
X126995Y602016D01*
X126854Y602041D01*
X126712Y602063D01*
X126570Y602080D01*
X126428Y602094D01*
X126285Y602104D01*
X126142Y602110D01*
X125999Y602112D01*
D11*
X507291Y529828D02*
X507291Y516197D01*
X507293Y516075D01*
X507299Y515952D01*
X507308Y515830D01*
X507322Y515709D01*
X507339Y515588D01*
X507360Y515467D01*
X507385Y515347D01*
X507413Y515228D01*
X507446Y515110D01*
X507482Y514993D01*
X507521Y514878D01*
X507565Y514763D01*
X507611Y514650D01*
X507662Y514539D01*
X507716Y514429D01*
X507773Y514321D01*
X507833Y514214D01*
X507897Y514110D01*
X507965Y514008D01*
X508035Y513908D01*
X508108Y513810D01*
X508185Y513714D01*
X508264Y513621D01*
X508347Y513531D01*
X508432Y513443D01*
X508520Y513358D01*
X508610Y513275D01*
X508703Y513196D01*
X508799Y513119D01*
X508897Y513046D01*
X508997Y512976D01*
X509099Y512908D01*
X509203Y512844D01*
X509310Y512784D01*
X509418Y512727D01*
X509528Y512673D01*
X509639Y512622D01*
X509752Y512576D01*
X509867Y512532D01*
X509982Y512493D01*
X510099Y512457D01*
X510217Y512424D01*
X510336Y512396D01*
X510456Y512371D01*
X510577Y512350D01*
X510698Y512333D01*
X510819Y512319D01*
X510941Y512310D01*
X511064Y512304D01*
X511186Y512302D01*
X513133Y512302D01*
X499959Y525933D02*
X495090Y529828D01*
X495090Y512302D01*
X490222Y512302D02*
X499959Y512302D01*
D13*
X199300Y196760D02*
X199300Y162760D01*
X199300Y196760D02*
X188800Y196760D01*
X166800Y196760D02*
X156300Y196760D01*
X156300Y162760D01*
X165300Y153760D02*
X166800Y153760D01*
X188300Y153760D02*
X190300Y153760D01*
X199300Y162760D01*
X165300Y153760D02*
X156300Y162760D01*
X187300Y158760D02*
X187699Y158997D01*
X188093Y159243D01*
X188480Y159499D01*
X188861Y159764D01*
X189236Y160038D01*
X189603Y160321D01*
X189964Y160614D01*
X190318Y160914D01*
X190664Y161224D01*
X191002Y161542D01*
X191332Y161868D01*
X191655Y162201D01*
X191969Y162543D01*
X192275Y162892D01*
X192572Y163249D01*
X192861Y163613D01*
X193140Y163983D01*
X193410Y164361D01*
X193671Y164744D01*
X193923Y165134D01*
X194165Y165530D01*
X194398Y165932D01*
X194620Y166340D01*
X194832Y166752D01*
X195035Y167170D01*
X195227Y167593D01*
X195409Y168020D01*
X195580Y168451D01*
X195741Y168887D01*
X195891Y169326D01*
X196030Y169769D01*
X196158Y170215D01*
X196276Y170664D01*
X196382Y171116D01*
X196478Y171570D01*
X196562Y172026D01*
X196636Y172485D01*
X196698Y172945D01*
X196749Y173406D01*
X196788Y173869D01*
X196816Y174332D01*
X196833Y174796D01*
X196839Y175260D01*
X196833Y175724D01*
X196816Y176188D01*
X196788Y176651D01*
X196749Y177114D01*
X196698Y177575D01*
X196636Y178035D01*
X196562Y178494D01*
X196478Y178950D01*
X196382Y179404D01*
X196276Y179856D01*
X196158Y180305D01*
X196030Y180751D01*
X195891Y181194D01*
X195741Y181633D01*
X195580Y182069D01*
X195409Y182500D01*
X195227Y182927D01*
X195035Y183350D01*
X194832Y183768D01*
X194620Y184180D01*
X194398Y184588D01*
X194165Y184990D01*
X193923Y185386D01*
X193671Y185776D01*
X193410Y186159D01*
X193140Y186537D01*
X192861Y186907D01*
X192572Y187271D01*
X192275Y187628D01*
X191969Y187977D01*
X191655Y188319D01*
X191332Y188652D01*
X191002Y188978D01*
X190664Y189296D01*
X190318Y189606D01*
X189964Y189906D01*
X189603Y190199D01*
X189236Y190482D01*
X188861Y190756D01*
X188480Y191021D01*
X188093Y191277D01*
X187699Y191523D01*
X187300Y191760D01*
X168300Y191760D02*
X167901Y191523D01*
X167507Y191277D01*
X167120Y191021D01*
X166739Y190756D01*
X166364Y190482D01*
X165997Y190199D01*
X165636Y189906D01*
X165282Y189606D01*
X164936Y189296D01*
X164598Y188978D01*
X164268Y188652D01*
X163945Y188319D01*
X163631Y187977D01*
X163325Y187628D01*
X163028Y187271D01*
X162739Y186907D01*
X162460Y186537D01*
X162190Y186159D01*
X161929Y185776D01*
X161677Y185386D01*
X161435Y184990D01*
X161202Y184588D01*
X160980Y184180D01*
X160768Y183768D01*
X160565Y183350D01*
X160373Y182927D01*
X160191Y182500D01*
X160020Y182069D01*
X159859Y181633D01*
X159709Y181194D01*
X159570Y180751D01*
X159442Y180305D01*
X159324Y179856D01*
X159218Y179404D01*
X159122Y178950D01*
X159038Y178494D01*
X158964Y178035D01*
X158902Y177575D01*
X158851Y177114D01*
X158812Y176651D01*
X158784Y176188D01*
X158767Y175724D01*
X158761Y175260D01*
X158767Y174796D01*
X158784Y174332D01*
X158812Y173869D01*
X158851Y173406D01*
X158902Y172945D01*
X158964Y172485D01*
X159038Y172026D01*
X159122Y171570D01*
X159218Y171116D01*
X159324Y170664D01*
X159442Y170215D01*
X159570Y169769D01*
X159709Y169326D01*
X159859Y168887D01*
X160020Y168451D01*
X160191Y168020D01*
X160373Y167593D01*
X160565Y167170D01*
X160768Y166752D01*
X160980Y166340D01*
X161202Y165932D01*
X161435Y165530D01*
X161677Y165134D01*
X161929Y164744D01*
X162190Y164361D01*
X162460Y163983D01*
X162739Y163613D01*
X163028Y163249D01*
X163325Y162892D01*
X163631Y162543D01*
X163945Y162201D01*
X164268Y161868D01*
X164598Y161542D01*
X164936Y161224D01*
X165282Y160914D01*
X165636Y160614D01*
X165997Y160321D01*
X166364Y160038D01*
X166739Y159764D01*
X167120Y159499D01*
X167507Y159243D01*
X167901Y158997D01*
X168300Y158760D01*
D10*
X140808Y172269D02*
X140808Y174866D01*
X140808Y172269D02*
X140810Y172170D01*
X140816Y172070D01*
X140825Y171971D01*
X140838Y171873D01*
X140855Y171775D01*
X140876Y171677D01*
X140901Y171581D01*
X140929Y171486D01*
X140961Y171392D01*
X140996Y171299D01*
X141035Y171207D01*
X141078Y171117D01*
X141123Y171029D01*
X141173Y170942D01*
X141225Y170858D01*
X141281Y170775D01*
X141339Y170695D01*
X141401Y170617D01*
X141466Y170542D01*
X141534Y170469D01*
X141604Y170399D01*
X141677Y170331D01*
X141752Y170266D01*
X141830Y170204D01*
X141910Y170146D01*
X141993Y170090D01*
X142077Y170038D01*
X142164Y169988D01*
X142252Y169943D01*
X142342Y169900D01*
X142434Y169861D01*
X142527Y169826D01*
X142621Y169794D01*
X142716Y169766D01*
X142812Y169741D01*
X142910Y169720D01*
X143008Y169703D01*
X143106Y169690D01*
X143205Y169681D01*
X143305Y169675D01*
X143404Y169673D01*
X149896Y169673D01*
X149995Y169675D01*
X150095Y169681D01*
X150194Y169690D01*
X150292Y169703D01*
X150390Y169720D01*
X150488Y169741D01*
X150584Y169766D01*
X150679Y169794D01*
X150773Y169826D01*
X150866Y169861D01*
X150958Y169900D01*
X151048Y169943D01*
X151136Y169988D01*
X151223Y170038D01*
X151307Y170090D01*
X151390Y170146D01*
X151470Y170204D01*
X151548Y170266D01*
X151623Y170331D01*
X151696Y170399D01*
X151766Y170469D01*
X151834Y170542D01*
X151899Y170617D01*
X151961Y170695D01*
X152019Y170775D01*
X152075Y170858D01*
X152127Y170942D01*
X152177Y171029D01*
X152222Y171117D01*
X152265Y171207D01*
X152304Y171299D01*
X152339Y171391D01*
X152371Y171486D01*
X152399Y171581D01*
X152424Y171677D01*
X152445Y171775D01*
X152462Y171873D01*
X152475Y171971D01*
X152484Y172070D01*
X152490Y172170D01*
X152492Y172269D01*
X152492Y174866D01*
X152492Y182801D02*
X152490Y182908D01*
X152484Y183014D01*
X152474Y183120D01*
X152461Y183226D01*
X152443Y183332D01*
X152422Y183436D01*
X152397Y183540D01*
X152368Y183643D01*
X152336Y183744D01*
X152299Y183844D01*
X152259Y183943D01*
X152216Y184041D01*
X152169Y184137D01*
X152118Y184231D01*
X152064Y184323D01*
X152007Y184413D01*
X151947Y184501D01*
X151883Y184586D01*
X151816Y184669D01*
X151746Y184750D01*
X151674Y184828D01*
X151598Y184904D01*
X151520Y184976D01*
X151439Y185046D01*
X151356Y185113D01*
X151271Y185177D01*
X151183Y185237D01*
X151093Y185294D01*
X151001Y185348D01*
X150907Y185399D01*
X150811Y185446D01*
X150713Y185489D01*
X150614Y185529D01*
X150514Y185566D01*
X150413Y185598D01*
X150310Y185627D01*
X150206Y185652D01*
X150102Y185673D01*
X149996Y185691D01*
X149890Y185704D01*
X149784Y185714D01*
X149678Y185720D01*
X149571Y185722D01*
X152492Y182801D02*
X152490Y182680D01*
X152484Y182559D01*
X152474Y182439D01*
X152461Y182318D01*
X152443Y182199D01*
X152422Y182079D01*
X152397Y181961D01*
X152368Y181844D01*
X152335Y181727D01*
X152299Y181612D01*
X152258Y181498D01*
X152215Y181385D01*
X152167Y181273D01*
X152116Y181164D01*
X152061Y181056D01*
X152003Y180949D01*
X151942Y180845D01*
X151877Y180743D01*
X151809Y180643D01*
X151738Y180545D01*
X151664Y180449D01*
X151587Y180356D01*
X151506Y180266D01*
X151423Y180178D01*
X151337Y180093D01*
X151248Y180010D01*
X151157Y179931D01*
X151063Y179854D01*
X150967Y179781D01*
X150869Y179711D01*
X150768Y179644D01*
X150665Y179580D01*
X150560Y179520D01*
X150453Y179463D01*
X150345Y179409D01*
X150235Y179359D01*
X150123Y179313D01*
X150010Y179270D01*
X149895Y179231D01*
X147299Y184749D02*
X147376Y184828D01*
X147457Y184904D01*
X147540Y184977D01*
X147625Y185047D01*
X147713Y185114D01*
X147803Y185178D01*
X147895Y185238D01*
X147990Y185295D01*
X148086Y185349D01*
X148184Y185400D01*
X148284Y185447D01*
X148386Y185491D01*
X148489Y185531D01*
X148593Y185567D01*
X148699Y185599D01*
X148805Y185628D01*
X148913Y185653D01*
X149021Y185675D01*
X149131Y185692D01*
X149240Y185706D01*
X149350Y185715D01*
X149461Y185721D01*
X149571Y185723D01*
X147299Y184748D02*
X140808Y179231D01*
X140808Y185722D01*
X146650Y190661D02*
X146880Y190664D01*
X147110Y190672D01*
X147339Y190686D01*
X147568Y190705D01*
X147797Y190730D01*
X148024Y190760D01*
X148252Y190795D01*
X148478Y190836D01*
X148703Y190882D01*
X148927Y190934D01*
X149149Y190991D01*
X149371Y191053D01*
X149590Y191121D01*
X149808Y191194D01*
X150025Y191272D01*
X150239Y191355D01*
X150451Y191443D01*
X150661Y191536D01*
X150869Y191635D01*
X150869Y191634D02*
X150959Y191667D01*
X151048Y191703D01*
X151136Y191743D01*
X151221Y191787D01*
X151305Y191834D01*
X151387Y191884D01*
X151467Y191938D01*
X151544Y191994D01*
X151620Y192054D01*
X151693Y192117D01*
X151763Y192182D01*
X151831Y192251D01*
X151895Y192322D01*
X151957Y192395D01*
X152016Y192471D01*
X152072Y192549D01*
X152125Y192630D01*
X152174Y192712D01*
X152220Y192796D01*
X152263Y192883D01*
X152302Y192970D01*
X152338Y193060D01*
X152370Y193150D01*
X152398Y193242D01*
X152423Y193335D01*
X152444Y193429D01*
X152461Y193523D01*
X152475Y193618D01*
X152484Y193714D01*
X152490Y193810D01*
X152492Y193906D01*
X152490Y194002D01*
X152484Y194098D01*
X152475Y194194D01*
X152461Y194289D01*
X152444Y194383D01*
X152423Y194477D01*
X152398Y194570D01*
X152370Y194662D01*
X152338Y194752D01*
X152302Y194842D01*
X152263Y194929D01*
X152220Y195016D01*
X152174Y195100D01*
X152125Y195182D01*
X152072Y195263D01*
X152016Y195341D01*
X151957Y195417D01*
X151895Y195490D01*
X151831Y195561D01*
X151763Y195630D01*
X151693Y195695D01*
X151620Y195758D01*
X151544Y195818D01*
X151467Y195874D01*
X151387Y195928D01*
X151305Y195978D01*
X151221Y196025D01*
X151136Y196069D01*
X151048Y196109D01*
X150959Y196145D01*
X150869Y196178D01*
X150869Y196179D02*
X150662Y196278D01*
X150452Y196371D01*
X150239Y196459D01*
X150025Y196542D01*
X149809Y196620D01*
X149591Y196693D01*
X149371Y196761D01*
X149150Y196823D01*
X148927Y196880D01*
X148703Y196932D01*
X148478Y196978D01*
X148252Y197019D01*
X148025Y197054D01*
X147797Y197084D01*
X147568Y197109D01*
X147339Y197128D01*
X147110Y197142D01*
X146880Y197150D01*
X146650Y197153D01*
X146650Y190661D02*
X146420Y190664D01*
X146190Y190672D01*
X145961Y190686D01*
X145732Y190705D01*
X145503Y190730D01*
X145275Y190760D01*
X145048Y190795D01*
X144822Y190836D01*
X144597Y190882D01*
X144373Y190934D01*
X144150Y190991D01*
X143929Y191053D01*
X143709Y191121D01*
X143491Y191194D01*
X143275Y191272D01*
X143061Y191355D01*
X142849Y191443D01*
X142638Y191536D01*
X142431Y191635D01*
X142431Y191634D02*
X142341Y191667D01*
X142252Y191703D01*
X142164Y191744D01*
X142079Y191787D01*
X141995Y191834D01*
X141913Y191884D01*
X141833Y191938D01*
X141756Y191994D01*
X141680Y192054D01*
X141607Y192117D01*
X141537Y192182D01*
X141469Y192251D01*
X141405Y192322D01*
X141343Y192395D01*
X141284Y192471D01*
X141228Y192549D01*
X141175Y192630D01*
X141126Y192712D01*
X141080Y192796D01*
X141037Y192883D01*
X140998Y192970D01*
X140962Y193060D01*
X140930Y193150D01*
X140902Y193242D01*
X140877Y193335D01*
X140856Y193429D01*
X140839Y193523D01*
X140825Y193618D01*
X140816Y193714D01*
X140810Y193810D01*
X140808Y193906D01*
X142431Y196178D02*
X142638Y196277D01*
X142849Y196370D01*
X143061Y196458D01*
X143275Y196541D01*
X143491Y196619D01*
X143709Y196692D01*
X143929Y196760D01*
X144150Y196822D01*
X144373Y196879D01*
X144597Y196931D01*
X144822Y196977D01*
X145048Y197018D01*
X145275Y197053D01*
X145503Y197083D01*
X145732Y197108D01*
X145961Y197127D01*
X146190Y197141D01*
X146420Y197149D01*
X146650Y197152D01*
X142431Y196178D02*
X142341Y196145D01*
X142252Y196109D01*
X142164Y196069D01*
X142079Y196025D01*
X141995Y195978D01*
X141913Y195928D01*
X141833Y195874D01*
X141756Y195818D01*
X141680Y195758D01*
X141607Y195695D01*
X141537Y195630D01*
X141469Y195561D01*
X141405Y195490D01*
X141343Y195417D01*
X141284Y195341D01*
X141228Y195263D01*
X141175Y195182D01*
X141126Y195100D01*
X141080Y195016D01*
X141037Y194929D01*
X140998Y194842D01*
X140962Y194752D01*
X140930Y194662D01*
X140902Y194570D01*
X140877Y194477D01*
X140856Y194383D01*
X140839Y194289D01*
X140825Y194194D01*
X140816Y194098D01*
X140810Y194002D01*
X140808Y193906D01*
X143404Y191310D02*
X149896Y196503D01*
D14*
X102251Y156090D02*
X101846Y155807D01*
X101447Y155514D01*
X101056Y155212D01*
X100672Y154900D01*
X100296Y154579D01*
X99928Y154249D01*
X99568Y153910D01*
X99217Y153562D01*
X98874Y153206D01*
X98539Y152841D01*
X98214Y152469D01*
X97898Y152089D01*
X97591Y151701D01*
X97294Y151306D01*
X97006Y150903D01*
X96729Y150494D01*
X96461Y150079D01*
X96204Y149656D01*
X95957Y149228D01*
X95720Y148794D01*
X95494Y148354D01*
X95279Y147909D01*
X95075Y147459D01*
X94881Y147003D01*
X94699Y146544D01*
X94528Y146080D01*
X94369Y145612D01*
X94221Y145140D01*
X94084Y144665D01*
X93959Y144186D01*
X93846Y143705D01*
X93744Y143221D01*
X93654Y142735D01*
X93576Y142247D01*
X93510Y141757D01*
X93456Y141265D01*
X93414Y140772D01*
X93384Y140279D01*
X93366Y139785D01*
X93360Y139290D01*
D11*
X92090Y162150D02*
X102250Y162150D01*
D14*
X93360Y70710D02*
X93366Y70216D01*
X93384Y69722D01*
X93414Y69228D01*
X93456Y68736D01*
X93510Y68244D01*
X93576Y67754D01*
X93654Y67266D01*
X93744Y66779D01*
X93845Y66296D01*
X93959Y65814D01*
X94084Y65336D01*
X94220Y64861D01*
X94368Y64389D01*
X94528Y63921D01*
X94699Y63457D01*
X94881Y62997D01*
X95074Y62542D01*
X95278Y62091D01*
X95493Y61646D01*
X95719Y61206D01*
X95956Y60772D01*
X96203Y60344D01*
X96460Y59922D01*
X96728Y59506D01*
X97006Y59097D01*
X97293Y58694D01*
X97590Y58299D01*
X97897Y57911D01*
X98213Y57531D01*
X98539Y57159D01*
X98873Y56794D01*
X99216Y56438D01*
X99567Y56090D01*
X99927Y55751D01*
X100295Y55421D01*
X100671Y55100D01*
X101055Y54788D01*
X101446Y54485D01*
X101845Y54193D01*
X102250Y53909D01*
D11*
X102250Y47850D02*
X92090Y47850D01*
D14*
X126380Y70710D02*
X126380Y139290D01*
X134000Y139290D02*
X134000Y70710D01*
X100980Y70710D02*
X100980Y139290D01*
D11*
X137810Y159610D02*
X137810Y50390D01*
X137808Y50290D01*
X137802Y50191D01*
X137792Y50091D01*
X137779Y49993D01*
X137761Y49894D01*
X137740Y49797D01*
X137715Y49701D01*
X137686Y49605D01*
X137653Y49511D01*
X137617Y49418D01*
X137577Y49327D01*
X137533Y49237D01*
X137486Y49149D01*
X137436Y49063D01*
X137382Y48979D01*
X137325Y48897D01*
X137265Y48818D01*
X137201Y48740D01*
X137135Y48666D01*
X137066Y48594D01*
X136994Y48525D01*
X136920Y48459D01*
X136842Y48395D01*
X136763Y48335D01*
X136681Y48278D01*
X136597Y48224D01*
X136511Y48174D01*
X136423Y48127D01*
X136333Y48083D01*
X136242Y48043D01*
X136149Y48007D01*
X136055Y47974D01*
X135959Y47945D01*
X135863Y47920D01*
X135766Y47899D01*
X135667Y47881D01*
X135569Y47868D01*
X135469Y47858D01*
X135370Y47852D01*
X135270Y47850D01*
X125110Y47850D01*
D14*
X125110Y65174D02*
X125238Y65447D01*
X125360Y65723D01*
X125475Y66002D01*
X125583Y66283D01*
X125685Y66567D01*
X125780Y66853D01*
X125868Y67141D01*
X125950Y67431D01*
X126024Y67724D01*
X126091Y68017D01*
X126152Y68313D01*
X126205Y68609D01*
X126251Y68907D01*
X126291Y69206D01*
X126323Y69506D01*
X126348Y69807D01*
X126366Y70107D01*
X126376Y70409D01*
X126380Y70710D01*
X102250Y65174D02*
X102122Y65447D01*
X102000Y65723D01*
X101885Y66002D01*
X101777Y66283D01*
X101675Y66567D01*
X101580Y66853D01*
X101492Y67141D01*
X101410Y67431D01*
X101336Y67724D01*
X101269Y68017D01*
X101208Y68313D01*
X101155Y68609D01*
X101109Y68907D01*
X101069Y69206D01*
X101037Y69506D01*
X101012Y69807D01*
X100994Y70107D01*
X100984Y70409D01*
X100980Y70710D01*
X125110Y53909D02*
X125515Y54192D01*
X125914Y54485D01*
X126305Y54788D01*
X126689Y55100D01*
X127065Y55421D01*
X127433Y55751D01*
X127793Y56090D01*
X128144Y56438D01*
X128487Y56794D01*
X128822Y57158D01*
X129147Y57531D01*
X129463Y57911D01*
X129770Y58299D01*
X130067Y58694D01*
X130355Y59096D01*
X130632Y59506D01*
X130900Y59921D01*
X131157Y60344D01*
X131404Y60772D01*
X131641Y61206D01*
X131867Y61646D01*
X132082Y62091D01*
X132287Y62541D01*
X132480Y62997D01*
X132662Y63456D01*
X132833Y63920D01*
X132992Y64388D01*
X133141Y64860D01*
X133277Y65335D01*
X133402Y65814D01*
X133515Y66295D01*
X133617Y66779D01*
X133707Y67265D01*
X133785Y67754D01*
X133851Y68244D01*
X133905Y68735D01*
X133947Y69228D01*
X133977Y69722D01*
X133995Y70216D01*
X134001Y70710D01*
X134000Y139290D02*
X133994Y139784D01*
X133976Y140278D01*
X133946Y140772D01*
X133904Y141264D01*
X133850Y141756D01*
X133784Y142246D01*
X133706Y142734D01*
X133616Y143221D01*
X133515Y143704D01*
X133401Y144186D01*
X133276Y144664D01*
X133140Y145139D01*
X132992Y145611D01*
X132832Y146079D01*
X132661Y146543D01*
X132479Y147003D01*
X132286Y147458D01*
X132082Y147909D01*
X131867Y148354D01*
X131641Y148794D01*
X131404Y149228D01*
X131157Y149656D01*
X130900Y150078D01*
X130632Y150494D01*
X130354Y150903D01*
X130067Y151306D01*
X129770Y151701D01*
X129463Y152089D01*
X129147Y152469D01*
X128821Y152841D01*
X128487Y153206D01*
X128144Y153562D01*
X127793Y153910D01*
X127433Y154249D01*
X127065Y154579D01*
X126689Y154900D01*
X126305Y155212D01*
X125914Y155515D01*
X125515Y155807D01*
X125110Y156091D01*
X125110Y144826D02*
X125238Y144553D01*
X125360Y144277D01*
X125475Y143998D01*
X125583Y143717D01*
X125685Y143433D01*
X125780Y143147D01*
X125868Y142859D01*
X125950Y142569D01*
X126024Y142276D01*
X126091Y141983D01*
X126152Y141687D01*
X126205Y141391D01*
X126251Y141093D01*
X126291Y140794D01*
X126323Y140494D01*
X126348Y140193D01*
X126366Y139893D01*
X126376Y139591D01*
X126380Y139290D01*
X102250Y144826D02*
X102122Y144553D01*
X102000Y144277D01*
X101885Y143998D01*
X101777Y143717D01*
X101675Y143433D01*
X101580Y143147D01*
X101492Y142859D01*
X101410Y142569D01*
X101336Y142276D01*
X101269Y141983D01*
X101208Y141687D01*
X101155Y141391D01*
X101109Y141093D01*
X101069Y140794D01*
X101037Y140494D01*
X101012Y140193D01*
X100994Y139893D01*
X100984Y139591D01*
X100980Y139290D01*
D11*
X125110Y162150D02*
X135270Y162150D01*
X135370Y162148D01*
X135469Y162142D01*
X135569Y162132D01*
X135667Y162119D01*
X135766Y162101D01*
X135863Y162080D01*
X135959Y162055D01*
X136055Y162026D01*
X136149Y161993D01*
X136242Y161957D01*
X136333Y161917D01*
X136423Y161873D01*
X136511Y161826D01*
X136597Y161776D01*
X136681Y161722D01*
X136763Y161665D01*
X136842Y161605D01*
X136920Y161541D01*
X136994Y161475D01*
X137066Y161406D01*
X137135Y161334D01*
X137201Y161260D01*
X137265Y161182D01*
X137325Y161103D01*
X137382Y161021D01*
X137436Y160937D01*
X137486Y160851D01*
X137533Y160763D01*
X137577Y160673D01*
X137617Y160582D01*
X137653Y160489D01*
X137686Y160395D01*
X137715Y160299D01*
X137740Y160203D01*
X137761Y160106D01*
X137779Y160007D01*
X137792Y159909D01*
X137802Y159809D01*
X137808Y159710D01*
X137810Y159610D01*
D14*
X93360Y139290D02*
X93360Y70710D01*
D11*
X89550Y50390D02*
X89550Y159610D01*
X89550Y50390D02*
X89552Y50290D01*
X89558Y50191D01*
X89568Y50091D01*
X89581Y49993D01*
X89599Y49894D01*
X89620Y49797D01*
X89645Y49701D01*
X89674Y49605D01*
X89707Y49511D01*
X89743Y49418D01*
X89783Y49327D01*
X89827Y49237D01*
X89874Y49149D01*
X89924Y49063D01*
X89978Y48979D01*
X90035Y48897D01*
X90095Y48818D01*
X90159Y48740D01*
X90225Y48666D01*
X90294Y48594D01*
X90366Y48525D01*
X90440Y48459D01*
X90518Y48395D01*
X90597Y48335D01*
X90679Y48278D01*
X90763Y48224D01*
X90849Y48174D01*
X90937Y48127D01*
X91027Y48083D01*
X91118Y48043D01*
X91211Y48007D01*
X91305Y47974D01*
X91401Y47945D01*
X91497Y47920D01*
X91594Y47899D01*
X91693Y47881D01*
X91791Y47868D01*
X91891Y47858D01*
X91990Y47852D01*
X92090Y47850D01*
X89550Y159610D02*
X89552Y159710D01*
X89558Y159809D01*
X89568Y159909D01*
X89581Y160007D01*
X89599Y160106D01*
X89620Y160203D01*
X89645Y160299D01*
X89674Y160395D01*
X89707Y160489D01*
X89743Y160582D01*
X89783Y160673D01*
X89827Y160763D01*
X89874Y160851D01*
X89924Y160937D01*
X89978Y161021D01*
X90035Y161103D01*
X90095Y161182D01*
X90159Y161260D01*
X90225Y161334D01*
X90294Y161406D01*
X90366Y161475D01*
X90440Y161541D01*
X90518Y161605D01*
X90597Y161665D01*
X90679Y161722D01*
X90763Y161776D01*
X90849Y161826D01*
X90937Y161873D01*
X91027Y161917D01*
X91118Y161957D01*
X91211Y161993D01*
X91305Y162026D01*
X91401Y162055D01*
X91497Y162080D01*
X91594Y162101D01*
X91693Y162119D01*
X91791Y162132D01*
X91891Y162142D01*
X91990Y162148D01*
X92090Y162150D01*
X107330Y102460D02*
X120030Y102460D01*
X107330Y102460D02*
X107330Y107540D01*
X120030Y107540D01*
X120030Y102460D01*
X120030Y98650D02*
X113680Y98650D01*
X107330Y98650D01*
D14*
X113680Y98650D02*
X113680Y93570D01*
D11*
X113680Y111350D02*
X120030Y111350D01*
X113680Y111350D02*
X107330Y111350D01*
D14*
X113680Y111350D02*
X113680Y116430D01*
D15*
X143966Y54447D02*
X144074Y54445D01*
X144181Y54439D01*
X144288Y54430D01*
X144395Y54416D01*
X144501Y54399D01*
X144607Y54377D01*
X144712Y54352D01*
X144815Y54323D01*
X144918Y54291D01*
X145019Y54255D01*
X145119Y54215D01*
X145218Y54171D01*
X145315Y54125D01*
X145410Y54074D01*
X145503Y54020D01*
X145594Y53963D01*
X145683Y53903D01*
X145770Y53839D01*
X145855Y53772D01*
X145937Y53703D01*
X146016Y53630D01*
X146093Y53555D01*
X146167Y53477D01*
X146238Y53396D01*
X146306Y53313D01*
X146371Y53227D01*
X146433Y53139D01*
X146492Y53049D01*
X146548Y52956D01*
X146600Y52862D01*
X146648Y52766D01*
X146694Y52669D01*
X146735Y52569D01*
X146773Y52469D01*
X146808Y52367D01*
X146838Y52264D01*
X146865Y52159D01*
X146888Y52054D01*
X146908Y51948D01*
X146923Y51842D01*
X146935Y51735D01*
X146943Y51627D01*
X146947Y51520D01*
X146947Y51412D01*
X146943Y51305D01*
X146935Y51197D01*
X146923Y51090D01*
X146908Y50984D01*
X146888Y50878D01*
X146865Y50773D01*
X146838Y50668D01*
X146808Y50565D01*
X146773Y50463D01*
X146735Y50363D01*
X146694Y50263D01*
X146648Y50166D01*
X146600Y50070D01*
X146548Y49975D01*
X146492Y49883D01*
X146433Y49793D01*
X146371Y49705D01*
X146306Y49619D01*
X146238Y49536D01*
X146167Y49455D01*
X146093Y49377D01*
X146016Y49302D01*
X145937Y49229D01*
X145855Y49160D01*
X145770Y49093D01*
X145683Y49029D01*
X145594Y48969D01*
X145503Y48912D01*
X145410Y48858D01*
X145315Y48807D01*
X145218Y48761D01*
X145119Y48717D01*
X145019Y48677D01*
X144918Y48641D01*
X144815Y48609D01*
X144712Y48580D01*
X144607Y48555D01*
X144501Y48533D01*
X144395Y48516D01*
X144288Y48502D01*
X144181Y48493D01*
X144074Y48487D01*
X143966Y48485D01*
X143858Y48487D01*
X143751Y48493D01*
X143644Y48502D01*
X143537Y48516D01*
X143431Y48533D01*
X143325Y48555D01*
X143220Y48580D01*
X143117Y48609D01*
X143014Y48641D01*
X142913Y48677D01*
X142813Y48717D01*
X142714Y48761D01*
X142617Y48807D01*
X142522Y48858D01*
X142429Y48912D01*
X142338Y48969D01*
X142249Y49029D01*
X142162Y49093D01*
X142077Y49160D01*
X141995Y49229D01*
X141916Y49302D01*
X141839Y49377D01*
X141765Y49455D01*
X141694Y49536D01*
X141626Y49619D01*
X141561Y49705D01*
X141499Y49793D01*
X141440Y49883D01*
X141384Y49976D01*
X141332Y50070D01*
X141284Y50166D01*
X141238Y50263D01*
X141197Y50363D01*
X141159Y50463D01*
X141124Y50565D01*
X141094Y50668D01*
X141067Y50773D01*
X141044Y50878D01*
X141024Y50984D01*
X141009Y51090D01*
X140997Y51197D01*
X140989Y51305D01*
X140985Y51412D01*
X140985Y51520D01*
X140989Y51627D01*
X140997Y51735D01*
X141009Y51842D01*
X141024Y51948D01*
X141044Y52054D01*
X141067Y52159D01*
X141094Y52264D01*
X141124Y52367D01*
X141159Y52469D01*
X141197Y52569D01*
X141238Y52669D01*
X141284Y52766D01*
X141332Y52862D01*
X141384Y52957D01*
X141440Y53049D01*
X141499Y53139D01*
X141561Y53227D01*
X141626Y53313D01*
X141694Y53396D01*
X141765Y53477D01*
X141839Y53555D01*
X141916Y53630D01*
X141995Y53703D01*
X142077Y53772D01*
X142162Y53839D01*
X142249Y53903D01*
X142338Y53963D01*
X142429Y54020D01*
X142522Y54074D01*
X142617Y54125D01*
X142714Y54171D01*
X142813Y54215D01*
X142913Y54255D01*
X143014Y54291D01*
X143117Y54323D01*
X143220Y54352D01*
X143325Y54377D01*
X143431Y54399D01*
X143537Y54416D01*
X143644Y54430D01*
X143751Y54439D01*
X143858Y54445D01*
X143966Y54447D01*
X149331Y53850D02*
X149427Y53848D01*
X149523Y53842D01*
X149618Y53833D01*
X149713Y53819D01*
X149808Y53802D01*
X149902Y53781D01*
X149994Y53756D01*
X150086Y53727D01*
X150176Y53695D01*
X150265Y53659D01*
X150353Y53620D01*
X150439Y53577D01*
X150523Y53531D01*
X150605Y53481D01*
X150685Y53428D01*
X150763Y53372D01*
X150839Y53313D01*
X150912Y53250D01*
X150982Y53185D01*
X151050Y53117D01*
X151115Y53047D01*
X151178Y52974D01*
X151237Y52898D01*
X151293Y52820D01*
X151346Y52740D01*
X151396Y52658D01*
X151442Y52574D01*
X151485Y52488D01*
X151524Y52400D01*
X151560Y52311D01*
X151592Y52221D01*
X151621Y52129D01*
X151646Y52037D01*
X151667Y51943D01*
X151684Y51848D01*
X151698Y51753D01*
X151707Y51658D01*
X151713Y51562D01*
X151715Y51466D01*
X151713Y51370D01*
X151707Y51274D01*
X151698Y51179D01*
X151684Y51084D01*
X151667Y50989D01*
X151646Y50895D01*
X151621Y50803D01*
X151592Y50711D01*
X151560Y50621D01*
X151524Y50532D01*
X151485Y50444D01*
X151442Y50358D01*
X151396Y50274D01*
X151346Y50192D01*
X151293Y50112D01*
X151237Y50034D01*
X151178Y49958D01*
X151115Y49885D01*
X151050Y49815D01*
X150982Y49747D01*
X150912Y49682D01*
X150839Y49619D01*
X150763Y49560D01*
X150685Y49504D01*
X150605Y49451D01*
X150523Y49401D01*
X150439Y49355D01*
X150353Y49312D01*
X150265Y49273D01*
X150176Y49237D01*
X150086Y49205D01*
X149994Y49176D01*
X149902Y49151D01*
X149808Y49130D01*
X149713Y49113D01*
X149618Y49099D01*
X149523Y49090D01*
X149427Y49084D01*
X149331Y49082D01*
X149235Y49084D01*
X149139Y49090D01*
X149044Y49099D01*
X148949Y49113D01*
X148854Y49130D01*
X148760Y49151D01*
X148668Y49176D01*
X148576Y49205D01*
X148486Y49237D01*
X148397Y49273D01*
X148309Y49312D01*
X148223Y49355D01*
X148139Y49401D01*
X148057Y49451D01*
X147977Y49504D01*
X147899Y49560D01*
X147823Y49619D01*
X147750Y49682D01*
X147680Y49747D01*
X147612Y49815D01*
X147547Y49885D01*
X147484Y49958D01*
X147425Y50034D01*
X147369Y50112D01*
X147316Y50192D01*
X147266Y50274D01*
X147220Y50358D01*
X147177Y50444D01*
X147138Y50532D01*
X147102Y50621D01*
X147070Y50711D01*
X147041Y50803D01*
X147016Y50895D01*
X146995Y50989D01*
X146978Y51084D01*
X146964Y51179D01*
X146955Y51274D01*
X146949Y51370D01*
X146947Y51466D01*
X146949Y51562D01*
X146955Y51658D01*
X146964Y51753D01*
X146978Y51848D01*
X146995Y51943D01*
X147016Y52037D01*
X147041Y52129D01*
X147070Y52221D01*
X147102Y52311D01*
X147138Y52400D01*
X147177Y52488D01*
X147220Y52574D01*
X147266Y52658D01*
X147316Y52740D01*
X147369Y52820D01*
X147425Y52898D01*
X147484Y52974D01*
X147547Y53047D01*
X147612Y53117D01*
X147680Y53185D01*
X147750Y53250D01*
X147823Y53313D01*
X147899Y53372D01*
X147977Y53428D01*
X148057Y53481D01*
X148139Y53531D01*
X148223Y53577D01*
X148309Y53620D01*
X148397Y53659D01*
X148486Y53695D01*
X148576Y53727D01*
X148668Y53756D01*
X148760Y53781D01*
X148854Y53802D01*
X148949Y53819D01*
X149044Y53833D01*
X149139Y53842D01*
X149235Y53848D01*
X149331Y53850D01*
X151715Y59769D02*
X140985Y59769D01*
X145754Y63346D02*
X151715Y59769D01*
X145754Y63346D02*
X151715Y66922D01*
X140985Y66922D01*
X140985Y72605D02*
X151715Y72605D01*
X146946Y72605D02*
X146946Y78566D01*
X151715Y78566D02*
X140985Y78566D01*
X151715Y83405D02*
X151715Y89366D01*
X140985Y83405D01*
X140985Y89366D01*
D11*
X55880Y118110D02*
X55880Y130810D01*
X49530Y137160D01*
X55880Y143510D01*
X55880Y156210D01*
X49530Y162560D01*
X55880Y118110D02*
X49530Y111760D01*
X49530Y162560D02*
X55880Y168910D01*
X55880Y181610D01*
X49530Y187960D01*
X11430Y187960D01*
X11430Y137160D02*
X5080Y130810D01*
X5080Y156210D02*
X11430Y162560D01*
X5080Y156210D02*
X5080Y143510D01*
X11430Y137160D01*
X11430Y111760D02*
X49530Y111760D01*
X11430Y111760D02*
X5080Y118110D01*
X5080Y130810D01*
X5080Y181610D02*
X11430Y187960D01*
X5080Y181610D02*
X5080Y168910D01*
X11430Y162560D01*
D15*
X635Y121920D02*
X-1905Y118745D01*
X635Y121920D02*
X-10795Y121920D01*
X-10795Y118745D02*
X-10795Y125095D01*
X43815Y191135D02*
X43815Y194945D01*
X43813Y195045D01*
X43807Y195144D01*
X43797Y195244D01*
X43784Y195342D01*
X43766Y195441D01*
X43745Y195538D01*
X43720Y195634D01*
X43691Y195730D01*
X43658Y195824D01*
X43622Y195917D01*
X43582Y196008D01*
X43538Y196098D01*
X43491Y196186D01*
X43441Y196272D01*
X43387Y196356D01*
X43330Y196438D01*
X43270Y196517D01*
X43206Y196595D01*
X43140Y196669D01*
X43071Y196741D01*
X42999Y196810D01*
X42925Y196876D01*
X42847Y196940D01*
X42768Y197000D01*
X42686Y197057D01*
X42602Y197111D01*
X42516Y197161D01*
X42428Y197208D01*
X42338Y197252D01*
X42247Y197292D01*
X42154Y197328D01*
X42060Y197361D01*
X41964Y197390D01*
X41868Y197415D01*
X41771Y197436D01*
X41672Y197454D01*
X41574Y197467D01*
X41474Y197477D01*
X41375Y197483D01*
X41275Y197485D01*
X40640Y197485D01*
X40529Y197483D01*
X40419Y197477D01*
X40308Y197468D01*
X40198Y197454D01*
X40089Y197437D01*
X39980Y197416D01*
X39872Y197391D01*
X39765Y197362D01*
X39659Y197330D01*
X39554Y197294D01*
X39451Y197254D01*
X39349Y197211D01*
X39248Y197164D01*
X39149Y197113D01*
X39053Y197060D01*
X38958Y197003D01*
X38865Y196942D01*
X38774Y196879D01*
X38685Y196812D01*
X38599Y196742D01*
X38516Y196669D01*
X38434Y196594D01*
X38356Y196516D01*
X38281Y196434D01*
X38208Y196351D01*
X38138Y196265D01*
X38071Y196176D01*
X38008Y196085D01*
X37947Y195992D01*
X37890Y195898D01*
X37837Y195801D01*
X37786Y195702D01*
X37739Y195601D01*
X37696Y195499D01*
X37656Y195396D01*
X37620Y195291D01*
X37588Y195185D01*
X37559Y195078D01*
X37534Y194970D01*
X37513Y194861D01*
X37496Y194752D01*
X37482Y194642D01*
X37473Y194531D01*
X37467Y194421D01*
X37465Y194310D01*
X37467Y194199D01*
X37473Y194089D01*
X37482Y193978D01*
X37496Y193868D01*
X37513Y193759D01*
X37534Y193650D01*
X37559Y193542D01*
X37588Y193435D01*
X37620Y193329D01*
X37656Y193224D01*
X37696Y193121D01*
X37739Y193019D01*
X37786Y192918D01*
X37837Y192819D01*
X37890Y192723D01*
X37947Y192628D01*
X38008Y192535D01*
X38071Y192444D01*
X38138Y192355D01*
X38208Y192269D01*
X38281Y192186D01*
X38356Y192104D01*
X38434Y192026D01*
X38516Y191951D01*
X38599Y191878D01*
X38685Y191808D01*
X38774Y191741D01*
X38865Y191678D01*
X38958Y191617D01*
X39053Y191560D01*
X39149Y191507D01*
X39248Y191456D01*
X39349Y191409D01*
X39451Y191366D01*
X39554Y191326D01*
X39659Y191290D01*
X39765Y191258D01*
X39872Y191229D01*
X39980Y191204D01*
X40089Y191183D01*
X40198Y191166D01*
X40308Y191152D01*
X40419Y191143D01*
X40529Y191137D01*
X40640Y191135D01*
X43815Y191135D01*
X43955Y191137D01*
X44095Y191143D01*
X44235Y191152D01*
X44374Y191166D01*
X44513Y191183D01*
X44651Y191204D01*
X44789Y191229D01*
X44926Y191258D01*
X45062Y191290D01*
X45197Y191327D01*
X45331Y191367D01*
X45464Y191410D01*
X45596Y191458D01*
X45727Y191508D01*
X45856Y191563D01*
X45983Y191621D01*
X46109Y191682D01*
X46233Y191747D01*
X46355Y191816D01*
X46475Y191887D01*
X46593Y191962D01*
X46710Y192040D01*
X46824Y192122D01*
X46935Y192206D01*
X47044Y192294D01*
X47151Y192384D01*
X47256Y192478D01*
X47357Y192574D01*
X47456Y192673D01*
X47552Y192774D01*
X47646Y192879D01*
X47736Y192986D01*
X47824Y193095D01*
X47908Y193206D01*
X47990Y193320D01*
X48068Y193437D01*
X48143Y193555D01*
X48214Y193675D01*
X48283Y193797D01*
X48348Y193921D01*
X48409Y194047D01*
X48467Y194174D01*
X48522Y194303D01*
X48572Y194434D01*
X48620Y194566D01*
X48663Y194699D01*
X48703Y194833D01*
X48740Y194968D01*
X48772Y195104D01*
X48801Y195241D01*
X48826Y195379D01*
X48847Y195517D01*
X48864Y195656D01*
X48878Y195795D01*
X48887Y195935D01*
X48893Y196075D01*
X48895Y196215D01*
X71755Y116205D02*
X60325Y112395D01*
X60325Y120015D02*
X71755Y116205D01*
X63183Y119063D02*
X63183Y113348D01*
X71755Y123825D02*
X60325Y127635D01*
X71755Y131445D01*
X71755Y136354D02*
X60325Y136354D01*
X71755Y136354D02*
X71755Y139529D01*
X71753Y139640D01*
X71747Y139750D01*
X71738Y139861D01*
X71724Y139971D01*
X71707Y140080D01*
X71686Y140189D01*
X71661Y140297D01*
X71632Y140404D01*
X71600Y140510D01*
X71564Y140615D01*
X71524Y140718D01*
X71481Y140820D01*
X71434Y140921D01*
X71383Y141020D01*
X71330Y141117D01*
X71273Y141211D01*
X71212Y141304D01*
X71149Y141395D01*
X71082Y141484D01*
X71012Y141570D01*
X70939Y141653D01*
X70864Y141735D01*
X70786Y141813D01*
X70704Y141888D01*
X70621Y141961D01*
X70535Y142031D01*
X70446Y142098D01*
X70355Y142161D01*
X70262Y142222D01*
X70168Y142279D01*
X70071Y142332D01*
X69972Y142383D01*
X69871Y142430D01*
X69769Y142473D01*
X69666Y142513D01*
X69561Y142549D01*
X69455Y142581D01*
X69348Y142610D01*
X69240Y142635D01*
X69131Y142656D01*
X69022Y142673D01*
X68912Y142687D01*
X68801Y142696D01*
X68691Y142702D01*
X68580Y142704D01*
X68469Y142702D01*
X68359Y142696D01*
X68248Y142687D01*
X68138Y142673D01*
X68029Y142656D01*
X67920Y142635D01*
X67812Y142610D01*
X67705Y142581D01*
X67599Y142549D01*
X67494Y142513D01*
X67391Y142473D01*
X67289Y142430D01*
X67188Y142383D01*
X67089Y142332D01*
X66993Y142279D01*
X66898Y142222D01*
X66805Y142161D01*
X66714Y142098D01*
X66625Y142031D01*
X66539Y141961D01*
X66456Y141888D01*
X66374Y141813D01*
X66296Y141735D01*
X66221Y141653D01*
X66148Y141570D01*
X66078Y141484D01*
X66011Y141395D01*
X65948Y141304D01*
X65887Y141211D01*
X65830Y141117D01*
X65777Y141020D01*
X65726Y140921D01*
X65679Y140820D01*
X65636Y140718D01*
X65596Y140615D01*
X65560Y140510D01*
X65528Y140404D01*
X65499Y140297D01*
X65474Y140189D01*
X65453Y140080D01*
X65436Y139971D01*
X65422Y139861D01*
X65413Y139750D01*
X65407Y139640D01*
X65405Y139529D01*
X65405Y136354D01*
X65405Y140164D02*
X60325Y142704D01*
X60325Y148590D02*
X71755Y148590D01*
X60325Y147320D02*
X60325Y149860D01*
X71755Y149860D02*
X71755Y147320D01*
X60325Y157988D02*
X60327Y158088D01*
X60333Y158187D01*
X60343Y158287D01*
X60356Y158385D01*
X60374Y158484D01*
X60395Y158581D01*
X60420Y158677D01*
X60449Y158773D01*
X60482Y158867D01*
X60518Y158960D01*
X60558Y159051D01*
X60602Y159141D01*
X60649Y159229D01*
X60699Y159315D01*
X60753Y159399D01*
X60810Y159481D01*
X60870Y159560D01*
X60934Y159638D01*
X61000Y159712D01*
X61069Y159784D01*
X61141Y159853D01*
X61215Y159919D01*
X61293Y159983D01*
X61372Y160043D01*
X61454Y160100D01*
X61538Y160154D01*
X61624Y160204D01*
X61712Y160251D01*
X61802Y160295D01*
X61893Y160335D01*
X61986Y160371D01*
X62080Y160404D01*
X62176Y160433D01*
X62272Y160458D01*
X62369Y160479D01*
X62468Y160497D01*
X62566Y160510D01*
X62666Y160520D01*
X62765Y160526D01*
X62865Y160528D01*
X60325Y157988D02*
X60327Y157847D01*
X60332Y157706D01*
X60342Y157565D01*
X60355Y157424D01*
X60371Y157284D01*
X60392Y157144D01*
X60416Y157005D01*
X60444Y156866D01*
X60475Y156729D01*
X60510Y156592D01*
X60548Y156456D01*
X60590Y156321D01*
X60636Y156188D01*
X60685Y156055D01*
X60738Y155924D01*
X60794Y155795D01*
X60853Y155666D01*
X60916Y155540D01*
X60982Y155415D01*
X61051Y155292D01*
X61124Y155171D01*
X61200Y155052D01*
X61279Y154934D01*
X61360Y154819D01*
X61445Y154707D01*
X61533Y154596D01*
X61624Y154488D01*
X61717Y154382D01*
X61814Y154279D01*
X61913Y154178D01*
X69215Y154495D02*
X69315Y154497D01*
X69414Y154503D01*
X69514Y154513D01*
X69612Y154526D01*
X69711Y154544D01*
X69808Y154565D01*
X69904Y154590D01*
X70000Y154619D01*
X70094Y154652D01*
X70187Y154688D01*
X70278Y154728D01*
X70368Y154772D01*
X70456Y154819D01*
X70542Y154869D01*
X70626Y154923D01*
X70708Y154980D01*
X70787Y155040D01*
X70865Y155104D01*
X70939Y155170D01*
X71011Y155239D01*
X71080Y155311D01*
X71146Y155385D01*
X71210Y155463D01*
X71270Y155542D01*
X71327Y155624D01*
X71381Y155708D01*
X71431Y155794D01*
X71478Y155882D01*
X71522Y155972D01*
X71562Y156063D01*
X71598Y156156D01*
X71631Y156250D01*
X71660Y156346D01*
X71685Y156442D01*
X71706Y156539D01*
X71724Y156638D01*
X71737Y156736D01*
X71747Y156836D01*
X71753Y156935D01*
X71755Y157035D01*
X71756Y157035D02*
X71754Y157168D01*
X71749Y157301D01*
X71739Y157434D01*
X71726Y157567D01*
X71709Y157699D01*
X71689Y157831D01*
X71665Y157962D01*
X71637Y158092D01*
X71606Y158222D01*
X71571Y158350D01*
X71532Y158478D01*
X71490Y158604D01*
X71444Y158729D01*
X71395Y158853D01*
X71343Y158976D01*
X71287Y159097D01*
X71227Y159216D01*
X71165Y159334D01*
X71099Y159449D01*
X71030Y159563D01*
X70957Y159675D01*
X70882Y159785D01*
X70803Y159893D01*
X66992Y155765D02*
X67044Y155681D01*
X67099Y155598D01*
X67158Y155518D01*
X67219Y155440D01*
X67283Y155365D01*
X67351Y155292D01*
X67421Y155221D01*
X67493Y155154D01*
X67568Y155089D01*
X67646Y155027D01*
X67726Y154968D01*
X67808Y154912D01*
X67892Y154860D01*
X67978Y154811D01*
X68066Y154765D01*
X68156Y154722D01*
X68247Y154683D01*
X68340Y154648D01*
X68434Y154616D01*
X68529Y154588D01*
X68625Y154563D01*
X68722Y154543D01*
X68820Y154525D01*
X68918Y154512D01*
X69017Y154503D01*
X69116Y154497D01*
X69215Y154495D01*
X65088Y159258D02*
X65036Y159342D01*
X64981Y159425D01*
X64922Y159505D01*
X64861Y159583D01*
X64797Y159658D01*
X64729Y159731D01*
X64659Y159802D01*
X64587Y159869D01*
X64512Y159934D01*
X64434Y159996D01*
X64354Y160055D01*
X64272Y160111D01*
X64188Y160163D01*
X64102Y160212D01*
X64014Y160258D01*
X63924Y160301D01*
X63833Y160340D01*
X63740Y160375D01*
X63646Y160407D01*
X63551Y160435D01*
X63455Y160460D01*
X63358Y160480D01*
X63260Y160498D01*
X63162Y160511D01*
X63063Y160520D01*
X62964Y160526D01*
X62865Y160528D01*
X65088Y159258D02*
X66993Y155765D01*
X71755Y165798D02*
X60325Y165798D01*
X71755Y165798D02*
X71755Y168973D01*
X71753Y169084D01*
X71747Y169194D01*
X71738Y169305D01*
X71724Y169415D01*
X71707Y169524D01*
X71686Y169633D01*
X71661Y169741D01*
X71632Y169848D01*
X71600Y169954D01*
X71564Y170059D01*
X71524Y170162D01*
X71481Y170264D01*
X71434Y170365D01*
X71383Y170464D01*
X71330Y170561D01*
X71273Y170655D01*
X71212Y170748D01*
X71149Y170839D01*
X71082Y170928D01*
X71012Y171014D01*
X70939Y171097D01*
X70864Y171179D01*
X70786Y171257D01*
X70704Y171332D01*
X70621Y171405D01*
X70535Y171475D01*
X70446Y171542D01*
X70355Y171605D01*
X70262Y171666D01*
X70168Y171723D01*
X70071Y171776D01*
X69972Y171827D01*
X69871Y171874D01*
X69769Y171917D01*
X69666Y171957D01*
X69561Y171993D01*
X69455Y172025D01*
X69348Y172054D01*
X69240Y172079D01*
X69131Y172100D01*
X69022Y172117D01*
X68912Y172131D01*
X68801Y172140D01*
X68691Y172146D01*
X68580Y172148D01*
X68469Y172146D01*
X68359Y172140D01*
X68248Y172131D01*
X68138Y172117D01*
X68029Y172100D01*
X67920Y172079D01*
X67812Y172054D01*
X67705Y172025D01*
X67599Y171993D01*
X67494Y171957D01*
X67391Y171917D01*
X67289Y171874D01*
X67188Y171827D01*
X67089Y171776D01*
X66993Y171723D01*
X66898Y171666D01*
X66805Y171605D01*
X66714Y171542D01*
X66625Y171475D01*
X66539Y171405D01*
X66456Y171332D01*
X66374Y171257D01*
X66296Y171179D01*
X66221Y171097D01*
X66148Y171014D01*
X66078Y170928D01*
X66011Y170839D01*
X65948Y170748D01*
X65887Y170655D01*
X65830Y170561D01*
X65777Y170464D01*
X65726Y170365D01*
X65679Y170264D01*
X65636Y170162D01*
X65596Y170059D01*
X65560Y169954D01*
X65528Y169848D01*
X65499Y169741D01*
X65474Y169633D01*
X65453Y169524D01*
X65436Y169415D01*
X65422Y169305D01*
X65413Y169194D01*
X65407Y169084D01*
X65405Y168973D01*
X65405Y165798D01*
D11*
X527050Y33020D02*
X529590Y33020D01*
X527050Y33020D02*
X527050Y48260D01*
X529590Y48260D01*
X590550Y48260D02*
X593090Y48260D01*
X593090Y33020D01*
X590550Y33020D01*
D14*
X572770Y68580D02*
X572770Y71120D01*
X572770Y68580D02*
X547370Y68580D01*
X547370Y71120D01*
X548640Y12700D02*
X572770Y12700D01*
X548640Y12700D02*
X548640Y10160D01*
X572770Y10160D02*
X572770Y12700D01*
D11*
X572770Y10160D02*
X581660Y10160D01*
X547370Y71120D02*
X538480Y71120D01*
X547370Y71120D02*
X572770Y71120D01*
X581660Y71120D01*
X572770Y10160D02*
X548640Y10160D01*
X538480Y10160D01*
X529590Y30480D02*
X529590Y33020D01*
X529590Y48260D02*
X529590Y50800D01*
X590550Y33020D02*
X590550Y30480D01*
X590550Y48260D02*
X590550Y50800D01*
X542290Y40640D02*
X542295Y41076D01*
X542311Y41512D01*
X542338Y41948D01*
X542376Y42383D01*
X542424Y42816D01*
X542482Y43249D01*
X542552Y43680D01*
X542632Y44109D01*
X542722Y44536D01*
X542823Y44960D01*
X542934Y45382D01*
X543056Y45801D01*
X543187Y46217D01*
X543329Y46630D01*
X543481Y47039D01*
X543643Y47444D01*
X543815Y47845D01*
X543997Y48242D01*
X544188Y48634D01*
X544389Y49021D01*
X544600Y49404D01*
X544820Y49781D01*
X545049Y50152D01*
X545286Y50518D01*
X545533Y50878D01*
X545789Y51232D01*
X546053Y51579D01*
X546326Y51920D01*
X546607Y52253D01*
X546896Y52580D01*
X547193Y52900D01*
X547498Y53212D01*
X547810Y53517D01*
X548130Y53814D01*
X548457Y54103D01*
X548790Y54384D01*
X549131Y54657D01*
X549478Y54921D01*
X549832Y55177D01*
X550192Y55424D01*
X550558Y55661D01*
X550929Y55890D01*
X551306Y56110D01*
X551689Y56321D01*
X552076Y56522D01*
X552468Y56713D01*
X552865Y56895D01*
X553266Y57067D01*
X553671Y57229D01*
X554080Y57381D01*
X554493Y57523D01*
X554909Y57654D01*
X555328Y57776D01*
X555750Y57887D01*
X556174Y57988D01*
X556601Y58078D01*
X557030Y58158D01*
X557461Y58228D01*
X557894Y58286D01*
X558327Y58334D01*
X558762Y58372D01*
X559198Y58399D01*
X559634Y58415D01*
X560070Y58420D01*
X560506Y58415D01*
X560942Y58399D01*
X561378Y58372D01*
X561813Y58334D01*
X562246Y58286D01*
X562679Y58228D01*
X563110Y58158D01*
X563539Y58078D01*
X563966Y57988D01*
X564390Y57887D01*
X564812Y57776D01*
X565231Y57654D01*
X565647Y57523D01*
X566060Y57381D01*
X566469Y57229D01*
X566874Y57067D01*
X567275Y56895D01*
X567672Y56713D01*
X568064Y56522D01*
X568451Y56321D01*
X568834Y56110D01*
X569211Y55890D01*
X569582Y55661D01*
X569948Y55424D01*
X570308Y55177D01*
X570662Y54921D01*
X571009Y54657D01*
X571350Y54384D01*
X571683Y54103D01*
X572010Y53814D01*
X572330Y53517D01*
X572642Y53212D01*
X572947Y52900D01*
X573244Y52580D01*
X573533Y52253D01*
X573814Y51920D01*
X574087Y51579D01*
X574351Y51232D01*
X574607Y50878D01*
X574854Y50518D01*
X575091Y50152D01*
X575320Y49781D01*
X575540Y49404D01*
X575751Y49021D01*
X575952Y48634D01*
X576143Y48242D01*
X576325Y47845D01*
X576497Y47444D01*
X576659Y47039D01*
X576811Y46630D01*
X576953Y46217D01*
X577084Y45801D01*
X577206Y45382D01*
X577317Y44960D01*
X577418Y44536D01*
X577508Y44109D01*
X577588Y43680D01*
X577658Y43249D01*
X577716Y42816D01*
X577764Y42383D01*
X577802Y41948D01*
X577829Y41512D01*
X577845Y41076D01*
X577850Y40640D01*
X577845Y40204D01*
X577829Y39768D01*
X577802Y39332D01*
X577764Y38897D01*
X577716Y38464D01*
X577658Y38031D01*
X577588Y37600D01*
X577508Y37171D01*
X577418Y36744D01*
X577317Y36320D01*
X577206Y35898D01*
X577084Y35479D01*
X576953Y35063D01*
X576811Y34650D01*
X576659Y34241D01*
X576497Y33836D01*
X576325Y33435D01*
X576143Y33038D01*
X575952Y32646D01*
X575751Y32259D01*
X575540Y31876D01*
X575320Y31499D01*
X575091Y31128D01*
X574854Y30762D01*
X574607Y30402D01*
X574351Y30048D01*
X574087Y29701D01*
X573814Y29360D01*
X573533Y29027D01*
X573244Y28700D01*
X572947Y28380D01*
X572642Y28068D01*
X572330Y27763D01*
X572010Y27466D01*
X571683Y27177D01*
X571350Y26896D01*
X571009Y26623D01*
X570662Y26359D01*
X570308Y26103D01*
X569948Y25856D01*
X569582Y25619D01*
X569211Y25390D01*
X568834Y25170D01*
X568451Y24959D01*
X568064Y24758D01*
X567672Y24567D01*
X567275Y24385D01*
X566874Y24213D01*
X566469Y24051D01*
X566060Y23899D01*
X565647Y23757D01*
X565231Y23626D01*
X564812Y23504D01*
X564390Y23393D01*
X563966Y23292D01*
X563539Y23202D01*
X563110Y23122D01*
X562679Y23052D01*
X562246Y22994D01*
X561813Y22946D01*
X561378Y22908D01*
X560942Y22881D01*
X560506Y22865D01*
X560070Y22860D01*
X559634Y22865D01*
X559198Y22881D01*
X558762Y22908D01*
X558327Y22946D01*
X557894Y22994D01*
X557461Y23052D01*
X557030Y23122D01*
X556601Y23202D01*
X556174Y23292D01*
X555750Y23393D01*
X555328Y23504D01*
X554909Y23626D01*
X554493Y23757D01*
X554080Y23899D01*
X553671Y24051D01*
X553266Y24213D01*
X552865Y24385D01*
X552468Y24567D01*
X552076Y24758D01*
X551689Y24959D01*
X551306Y25170D01*
X550929Y25390D01*
X550558Y25619D01*
X550192Y25856D01*
X549832Y26103D01*
X549478Y26359D01*
X549131Y26623D01*
X548790Y26896D01*
X548457Y27177D01*
X548130Y27466D01*
X547810Y27763D01*
X547498Y28068D01*
X547193Y28380D01*
X546896Y28700D01*
X546607Y29027D01*
X546326Y29360D01*
X546053Y29701D01*
X545789Y30048D01*
X545533Y30402D01*
X545286Y30762D01*
X545049Y31128D01*
X544820Y31499D01*
X544600Y31876D01*
X544389Y32259D01*
X544188Y32646D01*
X543997Y33038D01*
X543815Y33435D01*
X543643Y33836D01*
X543481Y34241D01*
X543329Y34650D01*
X543187Y35063D01*
X543056Y35479D01*
X542934Y35898D01*
X542823Y36320D01*
X542722Y36744D01*
X542632Y37171D01*
X542552Y37600D01*
X542482Y38031D01*
X542424Y38464D01*
X542376Y38897D01*
X542338Y39332D01*
X542311Y39768D01*
X542295Y40204D01*
X542290Y40640D01*
X557530Y40640D02*
X557532Y40740D01*
X557538Y40841D01*
X557548Y40940D01*
X557562Y41040D01*
X557579Y41139D01*
X557601Y41237D01*
X557627Y41334D01*
X557656Y41430D01*
X557689Y41524D01*
X557726Y41618D01*
X557766Y41710D01*
X557810Y41800D01*
X557858Y41888D01*
X557909Y41975D01*
X557963Y42059D01*
X558021Y42141D01*
X558082Y42221D01*
X558146Y42298D01*
X558213Y42373D01*
X558283Y42445D01*
X558356Y42514D01*
X558431Y42580D01*
X558509Y42644D01*
X558589Y42704D01*
X558672Y42761D01*
X558757Y42814D01*
X558844Y42864D01*
X558933Y42911D01*
X559023Y42954D01*
X559115Y42994D01*
X559209Y43030D01*
X559304Y43062D01*
X559400Y43090D01*
X559498Y43115D01*
X559596Y43135D01*
X559695Y43152D01*
X559795Y43165D01*
X559894Y43174D01*
X559995Y43179D01*
X560095Y43180D01*
X560195Y43177D01*
X560296Y43170D01*
X560395Y43159D01*
X560495Y43144D01*
X560593Y43126D01*
X560691Y43103D01*
X560788Y43076D01*
X560883Y43046D01*
X560978Y43012D01*
X561071Y42974D01*
X561162Y42933D01*
X561252Y42888D01*
X561340Y42840D01*
X561426Y42788D01*
X561510Y42733D01*
X561591Y42674D01*
X561670Y42612D01*
X561747Y42548D01*
X561821Y42480D01*
X561892Y42409D01*
X561961Y42336D01*
X562026Y42260D01*
X562089Y42181D01*
X562148Y42100D01*
X562204Y42017D01*
X562257Y41932D01*
X562306Y41844D01*
X562352Y41755D01*
X562394Y41664D01*
X562433Y41571D01*
X562468Y41477D01*
X562499Y41382D01*
X562527Y41285D01*
X562550Y41188D01*
X562570Y41089D01*
X562586Y40990D01*
X562598Y40891D01*
X562606Y40790D01*
X562610Y40690D01*
X562610Y40590D01*
X562606Y40490D01*
X562598Y40389D01*
X562586Y40290D01*
X562570Y40191D01*
X562550Y40092D01*
X562527Y39995D01*
X562499Y39898D01*
X562468Y39803D01*
X562433Y39709D01*
X562394Y39616D01*
X562352Y39525D01*
X562306Y39436D01*
X562257Y39348D01*
X562204Y39263D01*
X562148Y39180D01*
X562089Y39099D01*
X562026Y39020D01*
X561961Y38944D01*
X561892Y38871D01*
X561821Y38800D01*
X561747Y38732D01*
X561670Y38668D01*
X561591Y38606D01*
X561510Y38547D01*
X561426Y38492D01*
X561340Y38440D01*
X561252Y38392D01*
X561162Y38347D01*
X561071Y38306D01*
X560978Y38268D01*
X560883Y38234D01*
X560788Y38204D01*
X560691Y38177D01*
X560593Y38154D01*
X560495Y38136D01*
X560395Y38121D01*
X560296Y38110D01*
X560195Y38103D01*
X560095Y38100D01*
X559995Y38101D01*
X559894Y38106D01*
X559795Y38115D01*
X559695Y38128D01*
X559596Y38145D01*
X559498Y38165D01*
X559400Y38190D01*
X559304Y38218D01*
X559209Y38250D01*
X559115Y38286D01*
X559023Y38326D01*
X558933Y38369D01*
X558844Y38416D01*
X558757Y38466D01*
X558672Y38519D01*
X558589Y38576D01*
X558509Y38636D01*
X558431Y38700D01*
X558356Y38766D01*
X558283Y38835D01*
X558213Y38907D01*
X558146Y38982D01*
X558082Y39059D01*
X558021Y39139D01*
X557963Y39221D01*
X557909Y39305D01*
X557858Y39392D01*
X557810Y39480D01*
X557766Y39570D01*
X557726Y39662D01*
X557689Y39756D01*
X557656Y39850D01*
X557627Y39946D01*
X557601Y40043D01*
X557579Y40141D01*
X557562Y40240D01*
X557548Y40340D01*
X557538Y40439D01*
X557532Y40540D01*
X557530Y40640D01*
D15*
X586105Y78105D02*
X586005Y78107D01*
X585906Y78113D01*
X585806Y78123D01*
X585708Y78136D01*
X585609Y78154D01*
X585512Y78175D01*
X585416Y78200D01*
X585320Y78229D01*
X585226Y78262D01*
X585133Y78298D01*
X585042Y78338D01*
X584952Y78382D01*
X584864Y78429D01*
X584778Y78479D01*
X584694Y78533D01*
X584612Y78590D01*
X584533Y78650D01*
X584455Y78714D01*
X584381Y78780D01*
X584309Y78849D01*
X584240Y78921D01*
X584174Y78995D01*
X584110Y79073D01*
X584050Y79152D01*
X583993Y79234D01*
X583939Y79318D01*
X583889Y79404D01*
X583842Y79492D01*
X583798Y79582D01*
X583758Y79673D01*
X583722Y79766D01*
X583689Y79860D01*
X583660Y79956D01*
X583635Y80052D01*
X583614Y80149D01*
X583596Y80248D01*
X583583Y80346D01*
X583573Y80446D01*
X583567Y80545D01*
X583565Y80645D01*
X586105Y78105D02*
X586246Y78107D01*
X586387Y78112D01*
X586528Y78122D01*
X586669Y78135D01*
X586809Y78151D01*
X586949Y78172D01*
X587088Y78196D01*
X587227Y78224D01*
X587364Y78255D01*
X587501Y78290D01*
X587637Y78328D01*
X587772Y78370D01*
X587905Y78416D01*
X588038Y78465D01*
X588169Y78518D01*
X588298Y78574D01*
X588427Y78633D01*
X588553Y78696D01*
X588678Y78762D01*
X588801Y78831D01*
X588922Y78904D01*
X589041Y78980D01*
X589159Y79059D01*
X589274Y79140D01*
X589386Y79225D01*
X589497Y79313D01*
X589605Y79404D01*
X589711Y79497D01*
X589814Y79594D01*
X589915Y79693D01*
X589598Y86995D02*
X589596Y87095D01*
X589590Y87194D01*
X589580Y87294D01*
X589567Y87392D01*
X589549Y87491D01*
X589528Y87588D01*
X589503Y87684D01*
X589474Y87780D01*
X589441Y87874D01*
X589405Y87967D01*
X589365Y88058D01*
X589321Y88148D01*
X589274Y88236D01*
X589224Y88322D01*
X589170Y88406D01*
X589113Y88488D01*
X589053Y88567D01*
X588989Y88645D01*
X588923Y88719D01*
X588854Y88791D01*
X588782Y88860D01*
X588708Y88926D01*
X588630Y88990D01*
X588551Y89050D01*
X588469Y89107D01*
X588385Y89161D01*
X588299Y89211D01*
X588211Y89258D01*
X588121Y89302D01*
X588030Y89342D01*
X587937Y89378D01*
X587843Y89411D01*
X587747Y89440D01*
X587651Y89465D01*
X587554Y89486D01*
X587455Y89504D01*
X587357Y89517D01*
X587257Y89527D01*
X587158Y89533D01*
X587058Y89535D01*
X587058Y89536D02*
X586925Y89534D01*
X586792Y89529D01*
X586659Y89519D01*
X586526Y89506D01*
X586394Y89489D01*
X586262Y89469D01*
X586131Y89445D01*
X586001Y89417D01*
X585871Y89386D01*
X585743Y89351D01*
X585615Y89312D01*
X585489Y89270D01*
X585364Y89224D01*
X585240Y89175D01*
X585117Y89123D01*
X584996Y89067D01*
X584877Y89007D01*
X584759Y88945D01*
X584644Y88879D01*
X584530Y88810D01*
X584418Y88737D01*
X584308Y88662D01*
X584200Y88583D01*
X588328Y84772D02*
X588412Y84824D01*
X588495Y84879D01*
X588575Y84938D01*
X588653Y84999D01*
X588728Y85063D01*
X588801Y85131D01*
X588872Y85201D01*
X588939Y85273D01*
X589004Y85348D01*
X589066Y85426D01*
X589125Y85506D01*
X589181Y85588D01*
X589233Y85672D01*
X589282Y85758D01*
X589328Y85846D01*
X589371Y85936D01*
X589410Y86027D01*
X589445Y86120D01*
X589477Y86214D01*
X589505Y86309D01*
X589530Y86405D01*
X589550Y86502D01*
X589568Y86600D01*
X589581Y86698D01*
X589590Y86797D01*
X589596Y86896D01*
X589598Y86995D01*
X584835Y82868D02*
X584751Y82816D01*
X584668Y82761D01*
X584588Y82702D01*
X584510Y82641D01*
X584435Y82577D01*
X584362Y82509D01*
X584291Y82439D01*
X584224Y82367D01*
X584159Y82292D01*
X584097Y82214D01*
X584038Y82134D01*
X583982Y82052D01*
X583930Y81968D01*
X583881Y81882D01*
X583835Y81794D01*
X583792Y81704D01*
X583753Y81613D01*
X583718Y81520D01*
X583686Y81426D01*
X583658Y81331D01*
X583633Y81235D01*
X583613Y81138D01*
X583595Y81040D01*
X583582Y80942D01*
X583573Y80843D01*
X583567Y80744D01*
X583565Y80645D01*
X584835Y82868D02*
X588328Y84773D01*
X578866Y86995D02*
X575691Y89535D01*
X575691Y78105D01*
X578866Y78105D02*
X572516Y78105D01*
X567436Y83820D02*
X567433Y84045D01*
X567425Y84270D01*
X567412Y84494D01*
X567393Y84718D01*
X567369Y84942D01*
X567340Y85165D01*
X567305Y85387D01*
X567265Y85608D01*
X567219Y85828D01*
X567169Y86047D01*
X567113Y86265D01*
X567052Y86482D01*
X566986Y86697D01*
X566915Y86910D01*
X566838Y87121D01*
X566757Y87331D01*
X566671Y87539D01*
X566580Y87744D01*
X566484Y87947D01*
X566484Y87948D02*
X566452Y88036D01*
X566416Y88123D01*
X566377Y88209D01*
X566334Y88293D01*
X566288Y88375D01*
X566239Y88455D01*
X566187Y88533D01*
X566131Y88609D01*
X566073Y88683D01*
X566011Y88754D01*
X565947Y88823D01*
X565880Y88889D01*
X565811Y88952D01*
X565739Y89013D01*
X565665Y89071D01*
X565588Y89125D01*
X565510Y89177D01*
X565429Y89225D01*
X565347Y89270D01*
X565262Y89312D01*
X565176Y89350D01*
X565089Y89385D01*
X565001Y89417D01*
X564911Y89444D01*
X564820Y89469D01*
X564728Y89489D01*
X564636Y89506D01*
X564542Y89519D01*
X564449Y89528D01*
X564355Y89534D01*
X564261Y89536D01*
X564167Y89534D01*
X564073Y89528D01*
X563980Y89519D01*
X563886Y89506D01*
X563794Y89489D01*
X563702Y89469D01*
X563611Y89444D01*
X563521Y89417D01*
X563433Y89385D01*
X563346Y89350D01*
X563260Y89312D01*
X563175Y89270D01*
X563093Y89225D01*
X563012Y89177D01*
X562934Y89125D01*
X562857Y89071D01*
X562783Y89013D01*
X562711Y88952D01*
X562642Y88889D01*
X562575Y88823D01*
X562511Y88754D01*
X562449Y88683D01*
X562391Y88609D01*
X562335Y88533D01*
X562283Y88455D01*
X562234Y88375D01*
X562188Y88293D01*
X562145Y88209D01*
X562106Y88123D01*
X562070Y88036D01*
X562038Y87948D01*
X562038Y87947D02*
X561942Y87744D01*
X561851Y87539D01*
X561765Y87331D01*
X561684Y87121D01*
X561607Y86910D01*
X561536Y86697D01*
X561470Y86482D01*
X561409Y86265D01*
X561353Y86047D01*
X561303Y85828D01*
X561257Y85608D01*
X561217Y85387D01*
X561182Y85165D01*
X561153Y84942D01*
X561129Y84718D01*
X561110Y84494D01*
X561097Y84270D01*
X561089Y84045D01*
X561086Y83820D01*
X567436Y83820D02*
X567433Y83595D01*
X567425Y83370D01*
X567412Y83146D01*
X567393Y82922D01*
X567369Y82698D01*
X567340Y82475D01*
X567305Y82253D01*
X567265Y82032D01*
X567219Y81812D01*
X567169Y81593D01*
X567113Y81375D01*
X567052Y81158D01*
X566986Y80943D01*
X566915Y80730D01*
X566838Y80519D01*
X566757Y80309D01*
X566671Y80101D01*
X566580Y79896D01*
X566484Y79693D01*
X566452Y79605D01*
X566416Y79518D01*
X566377Y79432D01*
X566334Y79348D01*
X566288Y79266D01*
X566239Y79186D01*
X566187Y79108D01*
X566131Y79032D01*
X566073Y78958D01*
X566011Y78887D01*
X565947Y78818D01*
X565880Y78752D01*
X565811Y78689D01*
X565739Y78628D01*
X565665Y78570D01*
X565588Y78516D01*
X565510Y78464D01*
X565429Y78416D01*
X565347Y78371D01*
X565262Y78329D01*
X565176Y78291D01*
X565089Y78256D01*
X565001Y78224D01*
X564911Y78197D01*
X564820Y78172D01*
X564728Y78152D01*
X564636Y78135D01*
X564542Y78122D01*
X564449Y78113D01*
X564355Y78107D01*
X564261Y78105D01*
X562038Y79693D02*
X561942Y79896D01*
X561851Y80101D01*
X561765Y80309D01*
X561684Y80519D01*
X561607Y80730D01*
X561536Y80943D01*
X561470Y81158D01*
X561409Y81375D01*
X561353Y81593D01*
X561303Y81812D01*
X561257Y82032D01*
X561217Y82253D01*
X561182Y82475D01*
X561153Y82698D01*
X561129Y82922D01*
X561110Y83146D01*
X561097Y83370D01*
X561089Y83595D01*
X561086Y83820D01*
X562038Y79693D02*
X562070Y79605D01*
X562106Y79518D01*
X562145Y79432D01*
X562188Y79348D01*
X562234Y79266D01*
X562283Y79186D01*
X562335Y79108D01*
X562391Y79032D01*
X562449Y78958D01*
X562511Y78887D01*
X562575Y78818D01*
X562642Y78752D01*
X562711Y78689D01*
X562783Y78628D01*
X562857Y78570D01*
X562934Y78516D01*
X563012Y78464D01*
X563093Y78416D01*
X563175Y78371D01*
X563260Y78329D01*
X563346Y78291D01*
X563433Y78256D01*
X563521Y78224D01*
X563611Y78197D01*
X563702Y78172D01*
X563794Y78152D01*
X563886Y78135D01*
X563980Y78122D01*
X564073Y78113D01*
X564167Y78107D01*
X564261Y78105D01*
X566801Y80645D02*
X561721Y86995D01*
D13*
X270600Y68600D02*
X270600Y143600D01*
X239600Y143600D01*
X217600Y143600D02*
X186600Y143600D01*
X186600Y68600D01*
X195600Y59600D02*
X217600Y59600D01*
X239600Y59600D02*
X261600Y59600D01*
X270600Y68600D01*
X195600Y59600D02*
X186600Y68600D01*
X239100Y64100D02*
X240010Y64373D01*
X240914Y64669D01*
X241810Y64986D01*
X242699Y65325D01*
X243578Y65685D01*
X244449Y66067D01*
X245310Y66470D01*
X246161Y66893D01*
X247001Y67338D01*
X247831Y67802D01*
X248649Y68287D01*
X249454Y68792D01*
X250247Y69316D01*
X251028Y69859D01*
X251794Y70421D01*
X252547Y71001D01*
X253286Y71600D01*
X254009Y72217D01*
X254718Y72851D01*
X255410Y73502D01*
X256087Y74169D01*
X256747Y74853D01*
X257391Y75553D01*
X258017Y76269D01*
X258625Y76999D01*
X259216Y77744D01*
X259788Y78503D01*
X260341Y79276D01*
X260876Y80063D01*
X261391Y80861D01*
X261886Y81673D01*
X262362Y82496D01*
X262817Y83330D01*
X263252Y84176D01*
X263667Y85031D01*
X264060Y85897D01*
X264432Y86772D01*
X264782Y87655D01*
X265111Y88547D01*
X265419Y89447D01*
X265704Y90354D01*
X265967Y91267D01*
X266207Y92187D01*
X266425Y93112D01*
X266621Y94043D01*
X266794Y94977D01*
X266944Y95916D01*
X267071Y96858D01*
X267175Y97803D01*
X267256Y98751D01*
X267314Y99699D01*
X267348Y100649D01*
X267360Y101600D01*
X267348Y102551D01*
X267314Y103501D01*
X267256Y104449D01*
X267175Y105397D01*
X267071Y106342D01*
X266944Y107284D01*
X266794Y108223D01*
X266621Y109157D01*
X266425Y110088D01*
X266207Y111013D01*
X265967Y111933D01*
X265704Y112846D01*
X265419Y113753D01*
X265111Y114653D01*
X264782Y115545D01*
X264432Y116428D01*
X264060Y117303D01*
X263667Y118169D01*
X263252Y119024D01*
X262817Y119870D01*
X262362Y120704D01*
X261886Y121527D01*
X261391Y122339D01*
X260876Y123137D01*
X260341Y123924D01*
X259788Y124697D01*
X259216Y125456D01*
X258625Y126201D01*
X258017Y126931D01*
X257391Y127647D01*
X256747Y128347D01*
X256087Y129031D01*
X255410Y129698D01*
X254718Y130349D01*
X254009Y130983D01*
X253286Y131600D01*
X252547Y132199D01*
X251794Y132779D01*
X251028Y133341D01*
X250247Y133884D01*
X249454Y134408D01*
X248649Y134913D01*
X247831Y135398D01*
X247001Y135862D01*
X246161Y136307D01*
X245310Y136730D01*
X244449Y137133D01*
X243578Y137515D01*
X242699Y137875D01*
X241810Y138214D01*
X240914Y138531D01*
X240010Y138827D01*
X239100Y139100D01*
X218100Y139100D02*
X217190Y138827D01*
X216286Y138531D01*
X215390Y138214D01*
X214501Y137875D01*
X213622Y137515D01*
X212751Y137133D01*
X211890Y136730D01*
X211039Y136307D01*
X210199Y135862D01*
X209369Y135398D01*
X208551Y134913D01*
X207746Y134408D01*
X206953Y133884D01*
X206172Y133341D01*
X205406Y132779D01*
X204653Y132199D01*
X203914Y131600D01*
X203191Y130983D01*
X202482Y130349D01*
X201790Y129698D01*
X201113Y129031D01*
X200453Y128347D01*
X199809Y127647D01*
X199183Y126931D01*
X198575Y126201D01*
X197984Y125456D01*
X197412Y124697D01*
X196859Y123924D01*
X196324Y123137D01*
X195809Y122339D01*
X195314Y121527D01*
X194838Y120704D01*
X194383Y119870D01*
X193948Y119024D01*
X193533Y118169D01*
X193140Y117303D01*
X192768Y116428D01*
X192418Y115545D01*
X192089Y114653D01*
X191781Y113753D01*
X191496Y112846D01*
X191233Y111933D01*
X190993Y111013D01*
X190775Y110088D01*
X190579Y109157D01*
X190406Y108223D01*
X190256Y107284D01*
X190129Y106342D01*
X190025Y105397D01*
X189944Y104449D01*
X189886Y103501D01*
X189852Y102551D01*
X189840Y101600D01*
X189852Y100649D01*
X189886Y99699D01*
X189944Y98751D01*
X190025Y97803D01*
X190129Y96858D01*
X190256Y95916D01*
X190406Y94977D01*
X190579Y94043D01*
X190775Y93112D01*
X190993Y92187D01*
X191233Y91267D01*
X191496Y90354D01*
X191781Y89447D01*
X192089Y88547D01*
X192418Y87655D01*
X192768Y86772D01*
X193140Y85897D01*
X193533Y85031D01*
X193948Y84176D01*
X194383Y83330D01*
X194838Y82496D01*
X195314Y81673D01*
X195809Y80861D01*
X196324Y80063D01*
X196859Y79276D01*
X197412Y78503D01*
X197984Y77744D01*
X198575Y76999D01*
X199183Y76269D01*
X199809Y75553D01*
X200453Y74853D01*
X201113Y74169D01*
X201790Y73502D01*
X202482Y72851D01*
X203191Y72217D01*
X203914Y71600D01*
X204653Y71001D01*
X205406Y70421D01*
X206172Y69859D01*
X206953Y69316D01*
X207746Y68792D01*
X208551Y68287D01*
X209369Y67802D01*
X210199Y67338D01*
X211039Y66893D01*
X211890Y66470D01*
X212751Y66067D01*
X213622Y65685D01*
X214501Y65325D01*
X215390Y64986D01*
X216286Y64669D01*
X217190Y64373D01*
X218100Y64100D01*
D10*
X254214Y33948D02*
X256811Y33948D01*
X256910Y33950D01*
X257010Y33956D01*
X257109Y33965D01*
X257207Y33978D01*
X257305Y33995D01*
X257403Y34016D01*
X257499Y34041D01*
X257594Y34069D01*
X257688Y34101D01*
X257781Y34136D01*
X257873Y34175D01*
X257963Y34218D01*
X258051Y34263D01*
X258138Y34313D01*
X258222Y34365D01*
X258305Y34421D01*
X258385Y34479D01*
X258463Y34541D01*
X258538Y34606D01*
X258611Y34674D01*
X258681Y34744D01*
X258749Y34817D01*
X258814Y34892D01*
X258876Y34970D01*
X258934Y35050D01*
X258990Y35133D01*
X259042Y35217D01*
X259092Y35304D01*
X259137Y35392D01*
X259180Y35482D01*
X259219Y35574D01*
X259254Y35667D01*
X259286Y35761D01*
X259314Y35856D01*
X259339Y35952D01*
X259360Y36050D01*
X259377Y36148D01*
X259390Y36246D01*
X259399Y36345D01*
X259405Y36445D01*
X259407Y36544D01*
X259407Y43036D01*
X259405Y43135D01*
X259399Y43235D01*
X259390Y43334D01*
X259377Y43432D01*
X259360Y43530D01*
X259339Y43628D01*
X259314Y43724D01*
X259286Y43819D01*
X259254Y43913D01*
X259219Y44006D01*
X259180Y44098D01*
X259137Y44188D01*
X259092Y44276D01*
X259042Y44363D01*
X258990Y44447D01*
X258934Y44530D01*
X258876Y44610D01*
X258814Y44688D01*
X258749Y44763D01*
X258681Y44836D01*
X258611Y44906D01*
X258538Y44974D01*
X258463Y45039D01*
X258385Y45101D01*
X258305Y45159D01*
X258222Y45215D01*
X258138Y45267D01*
X258051Y45317D01*
X257963Y45362D01*
X257873Y45405D01*
X257781Y45444D01*
X257688Y45479D01*
X257594Y45511D01*
X257499Y45539D01*
X257403Y45564D01*
X257305Y45585D01*
X257207Y45602D01*
X257109Y45615D01*
X257010Y45624D01*
X256910Y45630D01*
X256811Y45632D01*
X254214Y45632D01*
X249849Y33948D02*
X246604Y33948D01*
X246491Y33950D01*
X246378Y33956D01*
X246265Y33966D01*
X246152Y33980D01*
X246040Y33997D01*
X245929Y34019D01*
X245819Y34044D01*
X245709Y34074D01*
X245601Y34107D01*
X245494Y34144D01*
X245388Y34184D01*
X245284Y34229D01*
X245181Y34277D01*
X245080Y34328D01*
X244981Y34383D01*
X244884Y34441D01*
X244789Y34503D01*
X244696Y34568D01*
X244606Y34636D01*
X244518Y34707D01*
X244432Y34782D01*
X244349Y34859D01*
X244269Y34939D01*
X244192Y35022D01*
X244117Y35108D01*
X244046Y35196D01*
X243978Y35286D01*
X243913Y35379D01*
X243851Y35474D01*
X243793Y35571D01*
X243738Y35670D01*
X243687Y35771D01*
X243639Y35874D01*
X243594Y35978D01*
X243554Y36084D01*
X243517Y36191D01*
X243484Y36299D01*
X243454Y36409D01*
X243429Y36519D01*
X243407Y36630D01*
X243390Y36742D01*
X243376Y36855D01*
X243366Y36968D01*
X243360Y37081D01*
X243358Y37194D01*
X243360Y37307D01*
X243366Y37420D01*
X243376Y37533D01*
X243390Y37646D01*
X243407Y37758D01*
X243429Y37869D01*
X243454Y37979D01*
X243484Y38089D01*
X243517Y38197D01*
X243554Y38304D01*
X243594Y38410D01*
X243639Y38514D01*
X243687Y38617D01*
X243738Y38718D01*
X243793Y38817D01*
X243851Y38914D01*
X243913Y39009D01*
X243978Y39102D01*
X244046Y39192D01*
X244117Y39280D01*
X244192Y39366D01*
X244269Y39449D01*
X244349Y39529D01*
X244432Y39606D01*
X244518Y39681D01*
X244606Y39752D01*
X244696Y39820D01*
X244789Y39885D01*
X244884Y39947D01*
X244981Y40005D01*
X245080Y40060D01*
X245181Y40111D01*
X245284Y40159D01*
X245388Y40204D01*
X245494Y40244D01*
X245601Y40281D01*
X245709Y40314D01*
X245819Y40344D01*
X245929Y40369D01*
X246040Y40391D01*
X246152Y40408D01*
X246265Y40422D01*
X246378Y40432D01*
X246491Y40438D01*
X246604Y40440D01*
X245954Y45632D02*
X249849Y45632D01*
X245954Y45632D02*
X245853Y45630D01*
X245753Y45624D01*
X245653Y45614D01*
X245553Y45601D01*
X245454Y45583D01*
X245355Y45562D01*
X245258Y45537D01*
X245161Y45508D01*
X245066Y45475D01*
X244972Y45439D01*
X244880Y45399D01*
X244789Y45356D01*
X244700Y45309D01*
X244613Y45259D01*
X244527Y45205D01*
X244444Y45148D01*
X244364Y45088D01*
X244285Y45025D01*
X244209Y44958D01*
X244136Y44889D01*
X244066Y44817D01*
X243998Y44743D01*
X243933Y44666D01*
X243872Y44586D01*
X243813Y44504D01*
X243758Y44420D01*
X243706Y44334D01*
X243657Y44246D01*
X243612Y44156D01*
X243570Y44064D01*
X243532Y43971D01*
X243498Y43876D01*
X243467Y43781D01*
X243440Y43684D01*
X243417Y43586D01*
X243397Y43487D01*
X243382Y43387D01*
X243370Y43287D01*
X243362Y43187D01*
X243358Y43086D01*
X243358Y42986D01*
X243362Y42885D01*
X243370Y42785D01*
X243382Y42685D01*
X243397Y42585D01*
X243417Y42486D01*
X243440Y42388D01*
X243467Y42291D01*
X243498Y42196D01*
X243532Y42101D01*
X243570Y42008D01*
X243612Y41916D01*
X243657Y41826D01*
X243706Y41738D01*
X243758Y41652D01*
X243813Y41568D01*
X243872Y41486D01*
X243933Y41406D01*
X243998Y41329D01*
X244066Y41255D01*
X244136Y41183D01*
X244209Y41114D01*
X244285Y41047D01*
X244364Y40984D01*
X244444Y40924D01*
X244527Y40867D01*
X244613Y40813D01*
X244700Y40763D01*
X244789Y40716D01*
X244880Y40673D01*
X244972Y40633D01*
X245066Y40597D01*
X245161Y40564D01*
X245258Y40535D01*
X245355Y40510D01*
X245454Y40489D01*
X245553Y40471D01*
X245653Y40458D01*
X245753Y40448D01*
X245853Y40442D01*
X245954Y40440D01*
X245954Y40439D02*
X248551Y40439D01*
X238419Y43036D02*
X235174Y45632D01*
X235174Y33948D01*
X238419Y33948D02*
X231928Y33948D01*
D11*
X381508Y889762D02*
X381508Y910082D01*
X364490Y910082D02*
X364490Y889762D01*
X347472Y889762D02*
X347472Y910082D01*
X330454Y910082D02*
X330454Y889762D01*
X313436Y889762D02*
X313436Y910082D01*
X372364Y910082D02*
X372364Y889762D01*
X355346Y889762D02*
X355346Y910082D01*
X338328Y910082D02*
X338328Y889762D01*
X321310Y889762D02*
X321310Y910082D01*
X304292Y910082D02*
X304292Y889762D01*
D16*
X393481Y871333D02*
X393481Y867354D01*
X391160Y864369D01*
X393481Y867354D02*
X395803Y864369D01*
X393481Y867354D02*
X389834Y868680D01*
X393481Y867354D02*
X397129Y868680D01*
X344805Y849249D02*
X344805Y840627D01*
X344803Y840513D01*
X344797Y840398D01*
X344787Y840284D01*
X344773Y840171D01*
X344756Y840057D01*
X344734Y839945D01*
X344709Y839833D01*
X344679Y839723D01*
X344646Y839613D01*
X344609Y839505D01*
X344569Y839398D01*
X344524Y839292D01*
X344477Y839188D01*
X344425Y839086D01*
X344370Y838986D01*
X344312Y838887D01*
X344250Y838791D01*
X344185Y838696D01*
X344117Y838605D01*
X344045Y838515D01*
X343971Y838428D01*
X343894Y838344D01*
X343813Y838262D01*
X343730Y838183D01*
X343645Y838107D01*
X343556Y838034D01*
X343466Y837965D01*
X343373Y837898D01*
X343277Y837835D01*
X343180Y837775D01*
X343080Y837718D01*
X342979Y837665D01*
X342876Y837615D01*
X342771Y837569D01*
X342665Y837526D01*
X342557Y837488D01*
X342448Y837453D01*
X342338Y837422D01*
X342227Y837394D01*
X342115Y837371D01*
X342002Y837351D01*
X341889Y837335D01*
X341775Y837323D01*
X341661Y837315D01*
X341546Y837311D01*
X341432Y837311D01*
X341317Y837315D01*
X341203Y837323D01*
X341089Y837335D01*
X340976Y837351D01*
X340863Y837371D01*
X340751Y837394D01*
X340640Y837422D01*
X340530Y837453D01*
X340421Y837488D01*
X340313Y837526D01*
X340207Y837569D01*
X340102Y837615D01*
X339999Y837665D01*
X339898Y837718D01*
X339798Y837775D01*
X339701Y837835D01*
X339605Y837898D01*
X339512Y837965D01*
X339422Y838034D01*
X339333Y838107D01*
X339248Y838183D01*
X339165Y838262D01*
X339084Y838344D01*
X339007Y838428D01*
X338933Y838515D01*
X338861Y838605D01*
X338793Y838696D01*
X338728Y838791D01*
X338666Y838887D01*
X338608Y838986D01*
X338553Y839086D01*
X338501Y839188D01*
X338454Y839292D01*
X338409Y839398D01*
X338369Y839505D01*
X338332Y839613D01*
X338299Y839723D01*
X338269Y839833D01*
X338244Y839945D01*
X338222Y840057D01*
X338205Y840171D01*
X338191Y840284D01*
X338181Y840398D01*
X338175Y840513D01*
X338173Y840627D01*
X338173Y849249D01*
X332994Y849249D02*
X332994Y847923D01*
X332994Y849249D02*
X326362Y849249D01*
X329678Y837311D01*
D13*
X491100Y797000D02*
X491100Y707000D01*
X601100Y707000D02*
X601100Y797000D01*
X581100Y817000D01*
X511100Y817000D02*
X491100Y797000D01*
X560070Y810260D02*
X561244Y809921D01*
X562410Y809554D01*
X563566Y809159D01*
X564712Y808736D01*
X565848Y808285D01*
X566972Y807806D01*
X568085Y807300D01*
X569185Y806768D01*
X570271Y806208D01*
X571344Y805623D01*
X572402Y805012D01*
X573445Y804375D01*
X574472Y803713D01*
X575483Y803026D01*
X576477Y802314D01*
X577453Y801579D01*
X578411Y800820D01*
X579350Y800039D01*
X580270Y799234D01*
X581170Y798408D01*
X582049Y797559D01*
X582908Y796690D01*
X583746Y795800D01*
X584561Y794890D01*
X585354Y793960D01*
X586125Y793012D01*
X586872Y792044D01*
X587595Y791059D01*
X588294Y790057D01*
X588969Y789038D01*
X589618Y788003D01*
X590242Y786952D01*
X590841Y785887D01*
X591413Y784807D01*
X591959Y783714D01*
X592478Y782608D01*
X592970Y781489D01*
X593435Y780359D01*
X593872Y779218D01*
X594282Y778066D01*
X594663Y776905D01*
X595016Y775735D01*
X595340Y774557D01*
X595635Y773371D01*
X595902Y772179D01*
X596139Y770980D01*
X596348Y769776D01*
X596526Y768567D01*
X596676Y767354D01*
X596796Y766138D01*
X596886Y764919D01*
X596947Y763699D01*
X596978Y762477D01*
X596979Y761255D01*
X596950Y760033D01*
X596892Y758813D01*
X596804Y757594D01*
X596687Y756377D01*
X596540Y755164D01*
X596363Y753955D01*
X596157Y752751D01*
X595922Y751551D01*
X595658Y750358D01*
X595365Y749172D01*
X595043Y747993D01*
X594693Y746822D01*
X594314Y745660D01*
X593907Y744508D01*
X593472Y743366D01*
X593010Y742235D01*
X592520Y741115D01*
X592003Y740008D01*
X591459Y738914D01*
X590889Y737833D01*
X590292Y736766D01*
X589670Y735714D01*
X589023Y734678D01*
X588350Y733658D01*
X587653Y732654D01*
X586932Y731668D01*
X586187Y730699D01*
X585418Y729749D01*
X584627Y728817D01*
X583813Y727906D01*
X582978Y727014D01*
X582121Y726143D01*
X581243Y725293D01*
X580344Y724465D01*
X579426Y723658D01*
X578488Y722875D01*
X577532Y722114D01*
X576557Y721377D01*
X575565Y720664D01*
X574556Y719975D01*
X573530Y719311D01*
X572488Y718672D01*
X571431Y718058D01*
X570360Y717470D01*
X569274Y716909D01*
X568176Y716374D01*
X567064Y715866D01*
X565941Y715386D01*
X564806Y714932D01*
X563660Y714507D01*
X562505Y714109D01*
X561340Y713740D01*
X530860Y713740D02*
X529695Y714109D01*
X528540Y714507D01*
X527394Y714932D01*
X526259Y715386D01*
X525136Y715866D01*
X524024Y716374D01*
X522926Y716909D01*
X521840Y717470D01*
X520769Y718058D01*
X519712Y718672D01*
X518670Y719311D01*
X517644Y719975D01*
X516635Y720664D01*
X515643Y721377D01*
X514668Y722114D01*
X513712Y722875D01*
X512774Y723658D01*
X511856Y724465D01*
X510957Y725293D01*
X510079Y726143D01*
X509222Y727014D01*
X508387Y727906D01*
X507573Y728817D01*
X506782Y729749D01*
X506013Y730699D01*
X505268Y731668D01*
X504547Y732654D01*
X503850Y733658D01*
X503177Y734678D01*
X502530Y735714D01*
X501908Y736766D01*
X501311Y737833D01*
X500741Y738914D01*
X500197Y740008D01*
X499680Y741115D01*
X499190Y742235D01*
X498728Y743366D01*
X498293Y744508D01*
X497886Y745660D01*
X497507Y746822D01*
X497157Y747993D01*
X496835Y749172D01*
X496542Y750358D01*
X496278Y751551D01*
X496043Y752751D01*
X495837Y753955D01*
X495660Y755164D01*
X495513Y756377D01*
X495396Y757594D01*
X495308Y758813D01*
X495250Y760033D01*
X495221Y761255D01*
X495222Y762477D01*
X495253Y763699D01*
X495314Y764919D01*
X495404Y766138D01*
X495524Y767354D01*
X495674Y768567D01*
X495852Y769776D01*
X496061Y770980D01*
X496298Y772179D01*
X496565Y773371D01*
X496860Y774557D01*
X497184Y775735D01*
X497537Y776905D01*
X497918Y778066D01*
X498328Y779218D01*
X498765Y780359D01*
X499230Y781489D01*
X499722Y782608D01*
X500241Y783714D01*
X500787Y784807D01*
X501359Y785887D01*
X501958Y786952D01*
X502582Y788003D01*
X503231Y789038D01*
X503906Y790057D01*
X504605Y791059D01*
X505328Y792044D01*
X506075Y793012D01*
X506846Y793960D01*
X507639Y794890D01*
X508454Y795800D01*
X509292Y796690D01*
X510151Y797559D01*
X511030Y798408D01*
X511930Y799234D01*
X512850Y800039D01*
X513789Y800820D01*
X514747Y801579D01*
X515723Y802314D01*
X516717Y803026D01*
X517728Y803713D01*
X518755Y804375D01*
X519798Y805012D01*
X520856Y805623D01*
X521929Y806208D01*
X523015Y806768D01*
X524115Y807300D01*
X525228Y807806D01*
X526352Y808285D01*
X527488Y808736D01*
X528634Y809159D01*
X529790Y809554D01*
X530956Y809921D01*
X532130Y810260D01*
X561100Y817000D02*
X581100Y817000D01*
X531100Y817000D02*
X511100Y817000D01*
X491100Y707000D02*
X531100Y707000D01*
X561100Y707000D02*
X601100Y707000D01*
D17*
X554631Y690880D02*
X552373Y690880D01*
X554631Y690880D02*
X554724Y690882D01*
X554817Y690888D01*
X554910Y690897D01*
X555003Y690911D01*
X555094Y690928D01*
X555185Y690949D01*
X555275Y690974D01*
X555364Y691002D01*
X555452Y691034D01*
X555538Y691070D01*
X555623Y691109D01*
X555706Y691152D01*
X555787Y691198D01*
X555866Y691248D01*
X555943Y691300D01*
X556018Y691356D01*
X556090Y691415D01*
X556160Y691477D01*
X556228Y691541D01*
X556292Y691609D01*
X556354Y691679D01*
X556413Y691751D01*
X556469Y691826D01*
X556521Y691903D01*
X556571Y691982D01*
X556617Y692063D01*
X556660Y692146D01*
X556699Y692231D01*
X556735Y692317D01*
X556767Y692405D01*
X556795Y692494D01*
X556820Y692584D01*
X556841Y692675D01*
X556858Y692766D01*
X556872Y692859D01*
X556881Y692952D01*
X556887Y693045D01*
X556889Y693138D01*
X556889Y698782D01*
X556887Y698875D01*
X556881Y698968D01*
X556872Y699061D01*
X556858Y699154D01*
X556841Y699245D01*
X556820Y699336D01*
X556795Y699426D01*
X556767Y699515D01*
X556735Y699603D01*
X556699Y699689D01*
X556660Y699774D01*
X556617Y699857D01*
X556571Y699938D01*
X556521Y700017D01*
X556469Y700094D01*
X556413Y700169D01*
X556354Y700241D01*
X556292Y700311D01*
X556228Y700379D01*
X556160Y700443D01*
X556090Y700505D01*
X556018Y700564D01*
X555943Y700620D01*
X555866Y700672D01*
X555787Y700722D01*
X555706Y700768D01*
X555623Y700811D01*
X555538Y700850D01*
X555452Y700886D01*
X555364Y700918D01*
X555275Y700946D01*
X555185Y700971D01*
X555094Y700992D01*
X555003Y701009D01*
X554910Y701023D01*
X554817Y701032D01*
X554724Y701038D01*
X554631Y701040D01*
X552373Y701040D01*
X547306Y698782D02*
X544483Y701040D01*
X544483Y690880D01*
X541661Y690880D02*
X547306Y690880D01*
X535876Y695960D02*
X535874Y696160D01*
X535866Y696360D01*
X535855Y696559D01*
X535838Y696758D01*
X535816Y696957D01*
X535790Y697155D01*
X535759Y697353D01*
X535724Y697549D01*
X535683Y697745D01*
X535639Y697940D01*
X535589Y698134D01*
X535535Y698326D01*
X535476Y698517D01*
X535413Y698707D01*
X535345Y698895D01*
X535273Y699081D01*
X535196Y699266D01*
X535115Y699448D01*
X535029Y699629D01*
X535028Y699629D02*
X534997Y699713D01*
X534963Y699795D01*
X534925Y699876D01*
X534884Y699956D01*
X534839Y700033D01*
X534792Y700108D01*
X534741Y700182D01*
X534686Y700253D01*
X534629Y700321D01*
X534569Y700388D01*
X534506Y700451D01*
X534441Y700512D01*
X534373Y700570D01*
X534303Y700625D01*
X534230Y700677D01*
X534155Y700725D01*
X534078Y700771D01*
X534000Y700813D01*
X533919Y700852D01*
X533837Y700887D01*
X533754Y700919D01*
X533669Y700947D01*
X533583Y700972D01*
X533496Y700992D01*
X533409Y701010D01*
X533320Y701023D01*
X533231Y701032D01*
X533142Y701038D01*
X533053Y701040D01*
X532964Y701038D01*
X532875Y701032D01*
X532786Y701023D01*
X532697Y701010D01*
X532610Y700992D01*
X532523Y700972D01*
X532437Y700947D01*
X532352Y700919D01*
X532269Y700887D01*
X532187Y700852D01*
X532106Y700813D01*
X532028Y700771D01*
X531951Y700725D01*
X531876Y700677D01*
X531803Y700625D01*
X531733Y700570D01*
X531665Y700512D01*
X531600Y700451D01*
X531537Y700388D01*
X531477Y700321D01*
X531420Y700253D01*
X531365Y700182D01*
X531314Y700108D01*
X531267Y700033D01*
X531222Y699956D01*
X531181Y699876D01*
X531143Y699795D01*
X531109Y699713D01*
X531078Y699629D01*
X531079Y699629D02*
X530993Y699448D01*
X530912Y699265D01*
X530835Y699081D01*
X530763Y698894D01*
X530695Y698706D01*
X530632Y698517D01*
X530573Y698326D01*
X530519Y698133D01*
X530469Y697940D01*
X530425Y697745D01*
X530384Y697549D01*
X530349Y697353D01*
X530318Y697155D01*
X530292Y696957D01*
X530270Y696758D01*
X530253Y696559D01*
X530242Y696360D01*
X530234Y696160D01*
X530232Y695960D01*
X535876Y695960D02*
X535874Y695760D01*
X535866Y695560D01*
X535855Y695361D01*
X535838Y695162D01*
X535816Y694963D01*
X535790Y694765D01*
X535759Y694567D01*
X535724Y694371D01*
X535683Y694175D01*
X535639Y693980D01*
X535589Y693786D01*
X535535Y693594D01*
X535476Y693403D01*
X535413Y693213D01*
X535345Y693025D01*
X535273Y692839D01*
X535196Y692654D01*
X535115Y692472D01*
X535029Y692291D01*
X535028Y692291D02*
X534997Y692207D01*
X534963Y692125D01*
X534925Y692044D01*
X534884Y691964D01*
X534839Y691887D01*
X534792Y691812D01*
X534740Y691738D01*
X534686Y691667D01*
X534629Y691599D01*
X534569Y691532D01*
X534506Y691469D01*
X534441Y691408D01*
X534373Y691350D01*
X534303Y691295D01*
X534230Y691243D01*
X534155Y691195D01*
X534078Y691149D01*
X534000Y691107D01*
X533919Y691068D01*
X533837Y691033D01*
X533754Y691001D01*
X533669Y690973D01*
X533583Y690948D01*
X533496Y690928D01*
X533409Y690910D01*
X533320Y690897D01*
X533231Y690888D01*
X533142Y690882D01*
X533053Y690880D01*
X531078Y692291D02*
X530992Y692472D01*
X530911Y692654D01*
X530834Y692839D01*
X530762Y693025D01*
X530694Y693213D01*
X530631Y693403D01*
X530572Y693594D01*
X530518Y693786D01*
X530468Y693980D01*
X530424Y694175D01*
X530383Y694371D01*
X530348Y694567D01*
X530317Y694765D01*
X530291Y694963D01*
X530269Y695162D01*
X530252Y695361D01*
X530241Y695560D01*
X530233Y695760D01*
X530231Y695960D01*
X531078Y692291D02*
X531109Y692207D01*
X531143Y692125D01*
X531181Y692044D01*
X531222Y691964D01*
X531267Y691887D01*
X531314Y691812D01*
X531366Y691738D01*
X531420Y691667D01*
X531477Y691599D01*
X531537Y691532D01*
X531600Y691469D01*
X531665Y691408D01*
X531733Y691350D01*
X531803Y691295D01*
X531876Y691243D01*
X531951Y691195D01*
X532028Y691149D01*
X532106Y691107D01*
X532187Y691068D01*
X532269Y691033D01*
X532352Y691001D01*
X532437Y690973D01*
X532523Y690948D01*
X532610Y690928D01*
X532697Y690910D01*
X532786Y690897D01*
X532875Y690888D01*
X532964Y690882D01*
X533053Y690880D01*
X535311Y693138D02*
X530796Y698782D01*
D11*
X28194Y790194D02*
X28194Y860806D01*
X51308Y860806D01*
X98806Y860806D02*
X98806Y790194D01*
X75692Y790194D01*
X51308Y790194D02*
X28194Y790194D01*
X75692Y860806D02*
X98806Y860806D01*
D16*
X67832Y773811D02*
X65179Y773811D01*
X67832Y773811D02*
X67934Y773813D01*
X68035Y773819D01*
X68136Y773829D01*
X68237Y773842D01*
X68337Y773860D01*
X68436Y773881D01*
X68535Y773906D01*
X68632Y773935D01*
X68729Y773967D01*
X68824Y774003D01*
X68917Y774043D01*
X69009Y774086D01*
X69099Y774133D01*
X69188Y774184D01*
X69274Y774237D01*
X69358Y774294D01*
X69440Y774354D01*
X69520Y774417D01*
X69597Y774483D01*
X69672Y774552D01*
X69744Y774624D01*
X69813Y774699D01*
X69879Y774776D01*
X69942Y774856D01*
X70002Y774938D01*
X70059Y775022D01*
X70112Y775108D01*
X70163Y775197D01*
X70210Y775287D01*
X70253Y775379D01*
X70293Y775472D01*
X70329Y775567D01*
X70361Y775664D01*
X70390Y775761D01*
X70415Y775860D01*
X70436Y775959D01*
X70454Y776059D01*
X70467Y776160D01*
X70477Y776261D01*
X70483Y776362D01*
X70485Y776464D01*
X70485Y783096D01*
X70483Y783198D01*
X70477Y783299D01*
X70467Y783400D01*
X70454Y783501D01*
X70436Y783601D01*
X70415Y783700D01*
X70390Y783799D01*
X70361Y783896D01*
X70329Y783993D01*
X70293Y784088D01*
X70253Y784181D01*
X70210Y784273D01*
X70163Y784363D01*
X70112Y784452D01*
X70059Y784538D01*
X70002Y784622D01*
X69942Y784704D01*
X69879Y784784D01*
X69813Y784861D01*
X69744Y784936D01*
X69672Y785008D01*
X69597Y785077D01*
X69520Y785143D01*
X69440Y785206D01*
X69358Y785266D01*
X69274Y785323D01*
X69188Y785376D01*
X69099Y785427D01*
X69009Y785474D01*
X68917Y785517D01*
X68824Y785557D01*
X68729Y785593D01*
X68632Y785625D01*
X68535Y785654D01*
X68436Y785679D01*
X68337Y785700D01*
X68237Y785718D01*
X68136Y785731D01*
X68035Y785741D01*
X67934Y785747D01*
X67832Y785749D01*
X65179Y785749D01*
X60931Y783096D02*
X57615Y785749D01*
X57615Y773811D01*
X60931Y773811D02*
X54299Y773811D01*
X49501Y783096D02*
X46185Y785749D01*
X46185Y773811D01*
X49501Y773811D02*
X42869Y773811D01*
D11*
X98806Y657606D02*
X98806Y586994D01*
X75692Y586994D01*
X28194Y586994D02*
X28194Y657606D01*
X51308Y657606D01*
X75692Y657606D02*
X98806Y657606D01*
X51308Y586994D02*
X28194Y586994D01*
D16*
X70259Y570611D02*
X72912Y570611D01*
X73014Y570613D01*
X73115Y570619D01*
X73216Y570629D01*
X73317Y570642D01*
X73417Y570660D01*
X73516Y570681D01*
X73615Y570706D01*
X73712Y570735D01*
X73809Y570767D01*
X73904Y570803D01*
X73997Y570843D01*
X74089Y570886D01*
X74179Y570933D01*
X74268Y570984D01*
X74354Y571037D01*
X74438Y571094D01*
X74520Y571154D01*
X74600Y571217D01*
X74677Y571283D01*
X74752Y571352D01*
X74824Y571424D01*
X74893Y571499D01*
X74959Y571576D01*
X75022Y571656D01*
X75082Y571738D01*
X75139Y571822D01*
X75192Y571908D01*
X75243Y571997D01*
X75290Y572087D01*
X75333Y572179D01*
X75373Y572272D01*
X75409Y572367D01*
X75441Y572464D01*
X75470Y572561D01*
X75495Y572660D01*
X75516Y572759D01*
X75534Y572859D01*
X75547Y572960D01*
X75557Y573061D01*
X75563Y573162D01*
X75565Y573264D01*
X75565Y579896D01*
X75563Y579998D01*
X75557Y580099D01*
X75547Y580200D01*
X75534Y580301D01*
X75516Y580401D01*
X75495Y580500D01*
X75470Y580599D01*
X75441Y580696D01*
X75409Y580793D01*
X75373Y580888D01*
X75333Y580981D01*
X75290Y581073D01*
X75243Y581163D01*
X75192Y581252D01*
X75139Y581338D01*
X75082Y581422D01*
X75022Y581504D01*
X74959Y581584D01*
X74893Y581661D01*
X74824Y581736D01*
X74752Y581808D01*
X74677Y581877D01*
X74600Y581943D01*
X74520Y582006D01*
X74438Y582066D01*
X74354Y582123D01*
X74268Y582176D01*
X74179Y582227D01*
X74089Y582274D01*
X73997Y582317D01*
X73904Y582357D01*
X73809Y582393D01*
X73712Y582425D01*
X73615Y582454D01*
X73516Y582479D01*
X73417Y582500D01*
X73317Y582518D01*
X73216Y582531D01*
X73115Y582541D01*
X73014Y582547D01*
X72912Y582549D01*
X70259Y582549D01*
X66011Y579896D02*
X62695Y582549D01*
X62695Y570611D01*
X66011Y570611D02*
X59379Y570611D01*
X47948Y579565D02*
X47950Y579672D01*
X47956Y579778D01*
X47965Y579884D01*
X47978Y579990D01*
X47995Y580095D01*
X48016Y580200D01*
X48041Y580303D01*
X48069Y580406D01*
X48101Y580508D01*
X48136Y580608D01*
X48175Y580707D01*
X48218Y580805D01*
X48264Y580901D01*
X48313Y580996D01*
X48366Y581088D01*
X48422Y581179D01*
X48481Y581267D01*
X48543Y581354D01*
X48609Y581438D01*
X48677Y581520D01*
X48748Y581599D01*
X48822Y581676D01*
X48899Y581750D01*
X48978Y581821D01*
X49060Y581889D01*
X49144Y581955D01*
X49231Y582017D01*
X49319Y582076D01*
X49410Y582132D01*
X49502Y582185D01*
X49597Y582234D01*
X49693Y582280D01*
X49791Y582323D01*
X49890Y582362D01*
X49990Y582397D01*
X50092Y582429D01*
X50195Y582457D01*
X50298Y582482D01*
X50403Y582503D01*
X50508Y582520D01*
X50614Y582533D01*
X50720Y582542D01*
X50826Y582548D01*
X50933Y582550D01*
X50933Y582549D02*
X51054Y582547D01*
X51174Y582541D01*
X51294Y582532D01*
X51414Y582519D01*
X51533Y582502D01*
X51652Y582481D01*
X51770Y582457D01*
X51887Y582428D01*
X52003Y582397D01*
X52119Y582361D01*
X52233Y582322D01*
X52345Y582279D01*
X52457Y582233D01*
X52567Y582184D01*
X52675Y582130D01*
X52781Y582074D01*
X52886Y582014D01*
X52989Y581951D01*
X53089Y581885D01*
X53188Y581816D01*
X53284Y581743D01*
X53378Y581668D01*
X53470Y581590D01*
X53559Y581508D01*
X53646Y581424D01*
X53730Y581338D01*
X53811Y581249D01*
X53889Y581157D01*
X53964Y581063D01*
X54036Y580966D01*
X54106Y580868D01*
X54172Y580767D01*
X54235Y580664D01*
X54294Y580559D01*
X54351Y580453D01*
X54404Y580344D01*
X54453Y580235D01*
X54499Y580123D01*
X54542Y580010D01*
X54580Y579896D01*
X48943Y577243D02*
X48863Y577323D01*
X48785Y577405D01*
X48711Y577489D01*
X48639Y577577D01*
X48571Y577667D01*
X48505Y577759D01*
X48443Y577853D01*
X48385Y577949D01*
X48330Y578048D01*
X48278Y578148D01*
X48230Y578250D01*
X48185Y578354D01*
X48145Y578459D01*
X48108Y578566D01*
X48074Y578674D01*
X48045Y578783D01*
X48019Y578893D01*
X47998Y579004D01*
X47980Y579115D01*
X47966Y579227D01*
X47956Y579339D01*
X47950Y579452D01*
X47948Y579565D01*
X48944Y577243D02*
X54581Y570611D01*
X47949Y570611D01*
D15*
X33500Y693900D02*
X34234Y693184D01*
X34985Y692486D01*
X35752Y691806D01*
X36536Y691145D01*
X37335Y690503D01*
X38150Y689880D01*
X38979Y689278D01*
X39823Y688695D01*
X40681Y688134D01*
X41551Y687593D01*
X42435Y687073D01*
X43331Y686575D01*
X44239Y686098D01*
X45158Y685644D01*
X46088Y685212D01*
X47028Y684802D01*
X47977Y684416D01*
X48936Y684052D01*
X49903Y683712D01*
X50878Y683395D01*
X51861Y683102D01*
X52850Y682833D01*
X53845Y682587D01*
X54846Y682366D01*
X55852Y682169D01*
X56863Y681996D01*
X57878Y681848D01*
X58895Y681725D01*
X59916Y681626D01*
X60938Y681551D01*
X61962Y681502D01*
X62987Y681477D01*
X64013Y681477D01*
X65038Y681502D01*
X66062Y681551D01*
X67084Y681626D01*
X68105Y681725D01*
X69122Y681848D01*
X70137Y681996D01*
X71148Y682169D01*
X72154Y682366D01*
X73155Y682587D01*
X74150Y682833D01*
X75139Y683102D01*
X76122Y683395D01*
X77097Y683712D01*
X78064Y684052D01*
X79023Y684416D01*
X79972Y684802D01*
X80912Y685212D01*
X81842Y685644D01*
X82761Y686098D01*
X83669Y686575D01*
X84565Y687073D01*
X85449Y687593D01*
X86319Y688134D01*
X87177Y688695D01*
X88021Y689278D01*
X88850Y689880D01*
X89665Y690503D01*
X90464Y691145D01*
X91248Y691806D01*
X92015Y692486D01*
X92766Y693184D01*
X93500Y693900D01*
D10*
X13208Y723909D02*
X13208Y726506D01*
X13208Y723909D02*
X13210Y723810D01*
X13216Y723710D01*
X13225Y723611D01*
X13238Y723513D01*
X13255Y723415D01*
X13276Y723317D01*
X13301Y723221D01*
X13329Y723126D01*
X13361Y723032D01*
X13396Y722939D01*
X13435Y722847D01*
X13478Y722757D01*
X13523Y722669D01*
X13573Y722582D01*
X13625Y722498D01*
X13681Y722415D01*
X13739Y722335D01*
X13801Y722257D01*
X13866Y722182D01*
X13934Y722109D01*
X14004Y722039D01*
X14077Y721971D01*
X14152Y721906D01*
X14230Y721844D01*
X14310Y721786D01*
X14393Y721730D01*
X14477Y721678D01*
X14564Y721628D01*
X14652Y721583D01*
X14742Y721540D01*
X14834Y721501D01*
X14927Y721466D01*
X15021Y721434D01*
X15116Y721406D01*
X15212Y721381D01*
X15310Y721360D01*
X15408Y721343D01*
X15506Y721330D01*
X15605Y721321D01*
X15705Y721315D01*
X15804Y721313D01*
X22296Y721313D01*
X22395Y721315D01*
X22495Y721321D01*
X22594Y721330D01*
X22692Y721343D01*
X22790Y721360D01*
X22888Y721381D01*
X22984Y721406D01*
X23079Y721434D01*
X23173Y721466D01*
X23266Y721501D01*
X23358Y721540D01*
X23448Y721583D01*
X23536Y721628D01*
X23623Y721678D01*
X23707Y721730D01*
X23790Y721786D01*
X23870Y721844D01*
X23948Y721906D01*
X24023Y721971D01*
X24096Y722039D01*
X24166Y722109D01*
X24234Y722182D01*
X24299Y722257D01*
X24361Y722335D01*
X24419Y722415D01*
X24475Y722498D01*
X24527Y722582D01*
X24577Y722669D01*
X24622Y722757D01*
X24665Y722847D01*
X24704Y722939D01*
X24739Y723031D01*
X24771Y723126D01*
X24799Y723221D01*
X24824Y723317D01*
X24845Y723415D01*
X24862Y723513D01*
X24875Y723611D01*
X24884Y723710D01*
X24890Y723810D01*
X24892Y723909D01*
X24892Y726506D01*
X22296Y730871D02*
X24892Y734116D01*
X13208Y734116D01*
X13208Y730871D02*
X13208Y737362D01*
X13208Y742301D02*
X13208Y745546D01*
X13210Y745659D01*
X13216Y745772D01*
X13226Y745885D01*
X13240Y745998D01*
X13257Y746110D01*
X13279Y746221D01*
X13304Y746331D01*
X13334Y746441D01*
X13367Y746549D01*
X13404Y746656D01*
X13444Y746762D01*
X13489Y746866D01*
X13537Y746969D01*
X13588Y747070D01*
X13643Y747169D01*
X13701Y747266D01*
X13763Y747361D01*
X13828Y747454D01*
X13896Y747544D01*
X13967Y747632D01*
X14042Y747718D01*
X14119Y747801D01*
X14199Y747881D01*
X14282Y747958D01*
X14368Y748033D01*
X14456Y748104D01*
X14546Y748172D01*
X14639Y748237D01*
X14734Y748299D01*
X14831Y748357D01*
X14930Y748412D01*
X15031Y748463D01*
X15134Y748511D01*
X15238Y748556D01*
X15344Y748596D01*
X15451Y748633D01*
X15559Y748666D01*
X15669Y748696D01*
X15779Y748721D01*
X15890Y748743D01*
X16002Y748760D01*
X16115Y748774D01*
X16228Y748784D01*
X16341Y748790D01*
X16454Y748792D01*
X16567Y748790D01*
X16680Y748784D01*
X16793Y748774D01*
X16906Y748760D01*
X17018Y748743D01*
X17129Y748721D01*
X17239Y748696D01*
X17349Y748666D01*
X17457Y748633D01*
X17564Y748596D01*
X17670Y748556D01*
X17774Y748511D01*
X17877Y748463D01*
X17978Y748412D01*
X18077Y748357D01*
X18174Y748299D01*
X18269Y748237D01*
X18362Y748172D01*
X18452Y748104D01*
X18540Y748033D01*
X18626Y747958D01*
X18709Y747881D01*
X18789Y747801D01*
X18866Y747718D01*
X18941Y747632D01*
X19012Y747544D01*
X19080Y747454D01*
X19145Y747361D01*
X19207Y747266D01*
X19265Y747169D01*
X19320Y747070D01*
X19371Y746969D01*
X19419Y746866D01*
X19464Y746762D01*
X19504Y746656D01*
X19541Y746549D01*
X19574Y746441D01*
X19604Y746331D01*
X19629Y746221D01*
X19651Y746110D01*
X19668Y745998D01*
X19682Y745885D01*
X19692Y745772D01*
X19698Y745659D01*
X19700Y745546D01*
X24892Y746196D02*
X24892Y742301D01*
X24892Y746196D02*
X24890Y746297D01*
X24884Y746397D01*
X24874Y746497D01*
X24861Y746597D01*
X24843Y746696D01*
X24822Y746795D01*
X24797Y746892D01*
X24768Y746989D01*
X24735Y747084D01*
X24699Y747178D01*
X24659Y747270D01*
X24616Y747361D01*
X24569Y747450D01*
X24519Y747537D01*
X24465Y747623D01*
X24408Y747706D01*
X24348Y747786D01*
X24285Y747865D01*
X24218Y747941D01*
X24149Y748014D01*
X24077Y748084D01*
X24003Y748152D01*
X23926Y748217D01*
X23846Y748278D01*
X23764Y748337D01*
X23680Y748392D01*
X23594Y748444D01*
X23506Y748493D01*
X23416Y748538D01*
X23324Y748580D01*
X23231Y748618D01*
X23136Y748652D01*
X23041Y748683D01*
X22944Y748710D01*
X22846Y748733D01*
X22747Y748753D01*
X22647Y748768D01*
X22547Y748780D01*
X22447Y748788D01*
X22346Y748792D01*
X22246Y748792D01*
X22145Y748788D01*
X22045Y748780D01*
X21945Y748768D01*
X21845Y748753D01*
X21746Y748733D01*
X21648Y748710D01*
X21551Y748683D01*
X21456Y748652D01*
X21361Y748618D01*
X21268Y748580D01*
X21176Y748538D01*
X21086Y748493D01*
X20998Y748444D01*
X20912Y748392D01*
X20828Y748337D01*
X20746Y748278D01*
X20666Y748217D01*
X20589Y748152D01*
X20515Y748084D01*
X20443Y748014D01*
X20374Y747941D01*
X20307Y747865D01*
X20244Y747786D01*
X20184Y747706D01*
X20127Y747623D01*
X20073Y747537D01*
X20023Y747450D01*
X19976Y747361D01*
X19933Y747270D01*
X19893Y747178D01*
X19857Y747084D01*
X19824Y746989D01*
X19795Y746892D01*
X19770Y746795D01*
X19749Y746696D01*
X19731Y746597D01*
X19718Y746497D01*
X19708Y746397D01*
X19702Y746297D01*
X19700Y746196D01*
X19699Y746196D02*
X19699Y743599D01*
X111196Y708392D02*
X113792Y711638D01*
X102108Y711638D01*
X102108Y714883D02*
X102108Y708392D01*
X105354Y719821D02*
X105467Y719823D01*
X105580Y719829D01*
X105693Y719839D01*
X105806Y719853D01*
X105918Y719870D01*
X106029Y719892D01*
X106139Y719917D01*
X106249Y719947D01*
X106357Y719980D01*
X106464Y720017D01*
X106570Y720057D01*
X106674Y720102D01*
X106777Y720150D01*
X106878Y720201D01*
X106977Y720256D01*
X107074Y720314D01*
X107169Y720376D01*
X107262Y720441D01*
X107352Y720509D01*
X107440Y720580D01*
X107526Y720655D01*
X107609Y720732D01*
X107689Y720812D01*
X107766Y720895D01*
X107841Y720981D01*
X107912Y721069D01*
X107980Y721159D01*
X108045Y721252D01*
X108107Y721347D01*
X108165Y721444D01*
X108220Y721543D01*
X108271Y721644D01*
X108319Y721747D01*
X108364Y721851D01*
X108404Y721957D01*
X108441Y722064D01*
X108474Y722172D01*
X108504Y722282D01*
X108529Y722392D01*
X108551Y722503D01*
X108568Y722615D01*
X108582Y722728D01*
X108592Y722841D01*
X108598Y722954D01*
X108600Y723067D01*
X108598Y723180D01*
X108592Y723293D01*
X108582Y723406D01*
X108568Y723519D01*
X108551Y723631D01*
X108529Y723742D01*
X108504Y723852D01*
X108474Y723962D01*
X108441Y724070D01*
X108404Y724177D01*
X108364Y724283D01*
X108319Y724387D01*
X108271Y724490D01*
X108220Y724591D01*
X108165Y724690D01*
X108107Y724787D01*
X108045Y724882D01*
X107980Y724975D01*
X107912Y725065D01*
X107841Y725153D01*
X107766Y725239D01*
X107689Y725322D01*
X107609Y725402D01*
X107526Y725479D01*
X107440Y725554D01*
X107352Y725625D01*
X107262Y725693D01*
X107169Y725758D01*
X107074Y725820D01*
X106977Y725878D01*
X106878Y725933D01*
X106777Y725984D01*
X106674Y726032D01*
X106570Y726077D01*
X106464Y726117D01*
X106357Y726154D01*
X106249Y726187D01*
X106139Y726217D01*
X106029Y726242D01*
X105918Y726264D01*
X105806Y726281D01*
X105693Y726295D01*
X105580Y726305D01*
X105467Y726311D01*
X105354Y726313D01*
X105241Y726311D01*
X105128Y726305D01*
X105015Y726295D01*
X104902Y726281D01*
X104790Y726264D01*
X104679Y726242D01*
X104569Y726217D01*
X104459Y726187D01*
X104351Y726154D01*
X104244Y726117D01*
X104138Y726077D01*
X104034Y726032D01*
X103931Y725984D01*
X103830Y725933D01*
X103731Y725878D01*
X103634Y725820D01*
X103539Y725758D01*
X103446Y725693D01*
X103356Y725625D01*
X103268Y725554D01*
X103182Y725479D01*
X103099Y725402D01*
X103019Y725322D01*
X102942Y725239D01*
X102867Y725153D01*
X102796Y725065D01*
X102728Y724975D01*
X102663Y724882D01*
X102601Y724787D01*
X102543Y724690D01*
X102488Y724591D01*
X102437Y724490D01*
X102389Y724387D01*
X102344Y724283D01*
X102304Y724177D01*
X102267Y724070D01*
X102234Y723962D01*
X102204Y723852D01*
X102179Y723742D01*
X102157Y723631D01*
X102140Y723519D01*
X102126Y723406D01*
X102116Y723293D01*
X102110Y723180D01*
X102108Y723067D01*
X102110Y722954D01*
X102116Y722841D01*
X102126Y722728D01*
X102140Y722615D01*
X102157Y722503D01*
X102179Y722392D01*
X102204Y722282D01*
X102234Y722172D01*
X102267Y722064D01*
X102304Y721957D01*
X102344Y721851D01*
X102389Y721747D01*
X102437Y721644D01*
X102488Y721543D01*
X102543Y721444D01*
X102601Y721347D01*
X102663Y721252D01*
X102728Y721159D01*
X102796Y721069D01*
X102867Y720981D01*
X102942Y720895D01*
X103019Y720812D01*
X103099Y720732D01*
X103182Y720655D01*
X103268Y720580D01*
X103356Y720509D01*
X103446Y720441D01*
X103539Y720376D01*
X103634Y720314D01*
X103731Y720256D01*
X103830Y720201D01*
X103931Y720150D01*
X104034Y720102D01*
X104138Y720057D01*
X104244Y720017D01*
X104351Y719980D01*
X104459Y719947D01*
X104569Y719917D01*
X104679Y719892D01*
X104790Y719870D01*
X104902Y719853D01*
X105015Y719839D01*
X105128Y719829D01*
X105241Y719823D01*
X105354Y719821D01*
X111196Y720471D02*
X111297Y720473D01*
X111397Y720479D01*
X111497Y720489D01*
X111597Y720502D01*
X111696Y720520D01*
X111795Y720541D01*
X111892Y720566D01*
X111989Y720595D01*
X112084Y720628D01*
X112178Y720664D01*
X112270Y720704D01*
X112361Y720747D01*
X112450Y720794D01*
X112537Y720844D01*
X112623Y720898D01*
X112706Y720955D01*
X112786Y721015D01*
X112865Y721078D01*
X112941Y721145D01*
X113014Y721214D01*
X113084Y721286D01*
X113152Y721360D01*
X113217Y721437D01*
X113278Y721517D01*
X113337Y721599D01*
X113392Y721683D01*
X113444Y721769D01*
X113493Y721857D01*
X113538Y721947D01*
X113580Y722039D01*
X113618Y722132D01*
X113652Y722227D01*
X113683Y722322D01*
X113710Y722419D01*
X113733Y722517D01*
X113753Y722616D01*
X113768Y722716D01*
X113780Y722816D01*
X113788Y722916D01*
X113792Y723017D01*
X113792Y723117D01*
X113788Y723218D01*
X113780Y723318D01*
X113768Y723418D01*
X113753Y723518D01*
X113733Y723617D01*
X113710Y723715D01*
X113683Y723812D01*
X113652Y723907D01*
X113618Y724002D01*
X113580Y724095D01*
X113538Y724187D01*
X113493Y724277D01*
X113444Y724365D01*
X113392Y724451D01*
X113337Y724535D01*
X113278Y724617D01*
X113217Y724697D01*
X113152Y724774D01*
X113084Y724848D01*
X113014Y724920D01*
X112941Y724989D01*
X112865Y725056D01*
X112786Y725119D01*
X112706Y725179D01*
X112623Y725236D01*
X112537Y725290D01*
X112450Y725340D01*
X112361Y725387D01*
X112270Y725430D01*
X112178Y725470D01*
X112084Y725506D01*
X111989Y725539D01*
X111892Y725568D01*
X111795Y725593D01*
X111696Y725614D01*
X111597Y725632D01*
X111497Y725645D01*
X111397Y725655D01*
X111297Y725661D01*
X111196Y725663D01*
X111095Y725661D01*
X110995Y725655D01*
X110895Y725645D01*
X110795Y725632D01*
X110696Y725614D01*
X110597Y725593D01*
X110500Y725568D01*
X110403Y725539D01*
X110308Y725506D01*
X110214Y725470D01*
X110122Y725430D01*
X110031Y725387D01*
X109942Y725340D01*
X109855Y725290D01*
X109769Y725236D01*
X109686Y725179D01*
X109606Y725119D01*
X109527Y725056D01*
X109451Y724989D01*
X109378Y724920D01*
X109308Y724848D01*
X109240Y724774D01*
X109175Y724697D01*
X109114Y724617D01*
X109055Y724535D01*
X109000Y724451D01*
X108948Y724365D01*
X108899Y724277D01*
X108854Y724187D01*
X108812Y724095D01*
X108774Y724002D01*
X108740Y723907D01*
X108709Y723812D01*
X108682Y723715D01*
X108659Y723617D01*
X108639Y723518D01*
X108624Y723418D01*
X108612Y723318D01*
X108604Y723218D01*
X108600Y723117D01*
X108600Y723017D01*
X108604Y722916D01*
X108612Y722816D01*
X108624Y722716D01*
X108639Y722616D01*
X108659Y722517D01*
X108682Y722419D01*
X108709Y722322D01*
X108740Y722227D01*
X108774Y722132D01*
X108812Y722039D01*
X108854Y721947D01*
X108899Y721857D01*
X108948Y721769D01*
X109000Y721683D01*
X109055Y721599D01*
X109114Y721517D01*
X109175Y721437D01*
X109240Y721360D01*
X109308Y721286D01*
X109378Y721214D01*
X109451Y721145D01*
X109527Y721078D01*
X109606Y721015D01*
X109686Y720955D01*
X109769Y720898D01*
X109855Y720844D01*
X109942Y720794D01*
X110031Y720747D01*
X110122Y720704D01*
X110214Y720664D01*
X110308Y720628D01*
X110403Y720595D01*
X110500Y720566D01*
X110597Y720541D01*
X110696Y720520D01*
X110795Y720502D01*
X110895Y720489D01*
X110995Y720479D01*
X111095Y720473D01*
X111196Y720471D01*
X109897Y731520D02*
X104055Y731520D01*
X103968Y731522D01*
X103880Y731528D01*
X103794Y731538D01*
X103707Y731551D01*
X103622Y731569D01*
X103537Y731590D01*
X103453Y731615D01*
X103371Y731644D01*
X103290Y731677D01*
X103210Y731713D01*
X103132Y731752D01*
X103056Y731796D01*
X102982Y731842D01*
X102911Y731892D01*
X102841Y731945D01*
X102774Y732001D01*
X102710Y732060D01*
X102648Y732122D01*
X102589Y732186D01*
X102533Y732253D01*
X102480Y732323D01*
X102430Y732394D01*
X102384Y732468D01*
X102340Y732544D01*
X102301Y732622D01*
X102265Y732702D01*
X102232Y732783D01*
X102203Y732865D01*
X102178Y732949D01*
X102157Y733034D01*
X102139Y733119D01*
X102126Y733206D01*
X102116Y733292D01*
X102110Y733380D01*
X102108Y733467D01*
X102108Y736713D01*
X109897Y736713D01*
X113792Y742301D02*
X102108Y742301D01*
X108599Y742301D02*
X108599Y748792D01*
X113792Y748792D02*
X102108Y748792D01*
D15*
X168600Y898200D02*
X288600Y898200D01*
X168600Y898200D02*
X168600Y778200D01*
X288600Y778200D01*
X288600Y898200D01*
X239065Y757395D02*
X236525Y757395D01*
X239065Y757395D02*
X239165Y757397D01*
X239264Y757403D01*
X239364Y757413D01*
X239462Y757426D01*
X239561Y757444D01*
X239658Y757465D01*
X239754Y757490D01*
X239850Y757519D01*
X239944Y757552D01*
X240037Y757588D01*
X240128Y757628D01*
X240218Y757672D01*
X240306Y757719D01*
X240392Y757769D01*
X240476Y757823D01*
X240558Y757880D01*
X240637Y757940D01*
X240715Y758004D01*
X240789Y758070D01*
X240861Y758139D01*
X240930Y758211D01*
X240996Y758285D01*
X241060Y758363D01*
X241120Y758442D01*
X241177Y758524D01*
X241231Y758608D01*
X241281Y758694D01*
X241328Y758782D01*
X241372Y758872D01*
X241412Y758963D01*
X241448Y759056D01*
X241481Y759150D01*
X241510Y759246D01*
X241535Y759342D01*
X241556Y759439D01*
X241574Y759538D01*
X241587Y759636D01*
X241597Y759736D01*
X241603Y759835D01*
X241605Y759935D01*
X241605Y766285D01*
X241603Y766385D01*
X241597Y766484D01*
X241587Y766584D01*
X241574Y766682D01*
X241556Y766781D01*
X241535Y766878D01*
X241510Y766974D01*
X241481Y767070D01*
X241448Y767164D01*
X241412Y767257D01*
X241372Y767348D01*
X241328Y767438D01*
X241281Y767526D01*
X241231Y767612D01*
X241177Y767696D01*
X241120Y767778D01*
X241060Y767857D01*
X240996Y767935D01*
X240930Y768009D01*
X240861Y768081D01*
X240789Y768150D01*
X240715Y768216D01*
X240637Y768280D01*
X240558Y768340D01*
X240476Y768397D01*
X240392Y768451D01*
X240306Y768501D01*
X240218Y768548D01*
X240128Y768592D01*
X240037Y768632D01*
X239944Y768668D01*
X239850Y768701D01*
X239754Y768730D01*
X239658Y768755D01*
X239561Y768776D01*
X239462Y768794D01*
X239364Y768807D01*
X239264Y768817D01*
X239165Y768823D01*
X239065Y768825D01*
X236525Y768825D01*
X232043Y766285D02*
X228868Y768825D01*
X228868Y757395D01*
X232043Y757395D02*
X225693Y757395D01*
X220613Y759935D02*
X218073Y768825D01*
X220613Y759935D02*
X214263Y759935D01*
X216168Y762475D02*
X216168Y757395D01*
D10*
X350710Y777908D02*
X350710Y789592D01*
X347465Y789592D01*
X347352Y789590D01*
X347239Y789584D01*
X347126Y789574D01*
X347013Y789560D01*
X346901Y789543D01*
X346790Y789521D01*
X346680Y789496D01*
X346570Y789466D01*
X346462Y789433D01*
X346355Y789396D01*
X346249Y789356D01*
X346145Y789311D01*
X346042Y789263D01*
X345941Y789212D01*
X345842Y789157D01*
X345745Y789099D01*
X345650Y789037D01*
X345557Y788972D01*
X345467Y788904D01*
X345379Y788833D01*
X345293Y788758D01*
X345210Y788681D01*
X345130Y788601D01*
X345053Y788518D01*
X344978Y788432D01*
X344907Y788344D01*
X344839Y788254D01*
X344774Y788161D01*
X344712Y788066D01*
X344654Y787969D01*
X344599Y787870D01*
X344548Y787769D01*
X344500Y787666D01*
X344455Y787562D01*
X344415Y787456D01*
X344378Y787349D01*
X344345Y787241D01*
X344315Y787131D01*
X344290Y787021D01*
X344268Y786910D01*
X344251Y786798D01*
X344237Y786685D01*
X344227Y786572D01*
X344221Y786459D01*
X344219Y786346D01*
X344219Y781154D01*
X344221Y781041D01*
X344227Y780928D01*
X344237Y780815D01*
X344251Y780702D01*
X344268Y780590D01*
X344290Y780479D01*
X344315Y780369D01*
X344345Y780259D01*
X344378Y780151D01*
X344415Y780044D01*
X344455Y779938D01*
X344500Y779834D01*
X344548Y779731D01*
X344599Y779630D01*
X344654Y779531D01*
X344712Y779434D01*
X344774Y779339D01*
X344839Y779246D01*
X344907Y779156D01*
X344978Y779068D01*
X345053Y778982D01*
X345130Y778899D01*
X345210Y778819D01*
X345293Y778742D01*
X345379Y778667D01*
X345467Y778596D01*
X345557Y778528D01*
X345650Y778463D01*
X345745Y778401D01*
X345842Y778343D01*
X345941Y778288D01*
X346042Y778237D01*
X346145Y778189D01*
X346249Y778144D01*
X346355Y778104D01*
X346462Y778067D01*
X346570Y778034D01*
X346680Y778004D01*
X346790Y777979D01*
X346901Y777957D01*
X347013Y777940D01*
X347126Y777926D01*
X347239Y777916D01*
X347352Y777910D01*
X347465Y777908D01*
X350710Y777908D01*
X338899Y786996D02*
X335654Y789592D01*
X335654Y777908D01*
X338899Y777908D02*
X332408Y777908D01*
D11*
X507492Y1016000D02*
X584708Y1016000D01*
X584708Y983742D01*
X584708Y863600D02*
X507492Y863600D01*
X507492Y870204D01*
X507492Y882142D02*
X507492Y921004D01*
X507492Y932942D02*
X507492Y946404D01*
X507492Y958342D02*
X507492Y971804D01*
X507492Y983742D02*
X507492Y1016000D01*
X584708Y971804D02*
X584708Y958342D01*
X584708Y946404D02*
X584708Y932942D01*
X584708Y921004D02*
X584708Y882142D01*
X584708Y870204D02*
X584708Y863600D01*
X493776Y876300D02*
X493774Y876354D01*
X493768Y876408D01*
X493759Y876462D01*
X493745Y876515D01*
X493728Y876566D01*
X493707Y876617D01*
X493683Y876665D01*
X493655Y876712D01*
X493624Y876757D01*
X493590Y876799D01*
X493553Y876839D01*
X493513Y876876D01*
X493471Y876910D01*
X493426Y876941D01*
X493379Y876969D01*
X493331Y876993D01*
X493280Y877014D01*
X493229Y877031D01*
X493176Y877045D01*
X493122Y877054D01*
X493068Y877060D01*
X493014Y877062D01*
X492960Y877060D01*
X492906Y877054D01*
X492852Y877045D01*
X492799Y877031D01*
X492748Y877014D01*
X492697Y876993D01*
X492649Y876969D01*
X492602Y876941D01*
X492557Y876910D01*
X492515Y876876D01*
X492475Y876839D01*
X492438Y876799D01*
X492404Y876757D01*
X492373Y876712D01*
X492345Y876665D01*
X492321Y876617D01*
X492300Y876566D01*
X492283Y876515D01*
X492269Y876462D01*
X492260Y876408D01*
X492254Y876354D01*
X492252Y876300D01*
X492254Y876246D01*
X492260Y876192D01*
X492269Y876138D01*
X492283Y876085D01*
X492300Y876034D01*
X492321Y875983D01*
X492345Y875935D01*
X492373Y875888D01*
X492404Y875843D01*
X492438Y875801D01*
X492475Y875761D01*
X492515Y875724D01*
X492557Y875690D01*
X492602Y875659D01*
X492649Y875631D01*
X492697Y875607D01*
X492748Y875586D01*
X492799Y875569D01*
X492852Y875555D01*
X492906Y875546D01*
X492960Y875540D01*
X493014Y875538D01*
X493068Y875540D01*
X493122Y875546D01*
X493176Y875555D01*
X493229Y875569D01*
X493280Y875586D01*
X493331Y875607D01*
X493379Y875631D01*
X493426Y875659D01*
X493471Y875690D01*
X493513Y875724D01*
X493553Y875761D01*
X493590Y875801D01*
X493624Y875843D01*
X493655Y875888D01*
X493683Y875935D01*
X493707Y875983D01*
X493728Y876034D01*
X493745Y876085D01*
X493759Y876138D01*
X493768Y876192D01*
X493774Y876246D01*
X493776Y876300D01*
D16*
X553085Y859409D02*
X553085Y847471D01*
X553085Y852114D02*
X546453Y859409D01*
X550432Y854766D02*
X546453Y847471D01*
X542184Y856756D02*
X538868Y859409D01*
X538868Y847471D01*
X542184Y847471D02*
X535552Y847471D01*
D10*
X62992Y46228D02*
X53848Y46228D01*
X62992Y46228D02*
X62992Y48768D01*
X62990Y48868D01*
X62984Y48967D01*
X62974Y49067D01*
X62961Y49165D01*
X62943Y49264D01*
X62922Y49361D01*
X62897Y49457D01*
X62868Y49553D01*
X62835Y49647D01*
X62799Y49740D01*
X62759Y49831D01*
X62715Y49921D01*
X62668Y50009D01*
X62618Y50095D01*
X62564Y50179D01*
X62507Y50261D01*
X62447Y50340D01*
X62383Y50418D01*
X62317Y50492D01*
X62248Y50564D01*
X62176Y50633D01*
X62102Y50699D01*
X62024Y50763D01*
X61945Y50823D01*
X61863Y50880D01*
X61779Y50934D01*
X61693Y50984D01*
X61605Y51031D01*
X61515Y51075D01*
X61424Y51115D01*
X61331Y51151D01*
X61237Y51184D01*
X61141Y51213D01*
X61045Y51238D01*
X60948Y51259D01*
X60849Y51277D01*
X60751Y51290D01*
X60651Y51300D01*
X60552Y51306D01*
X60452Y51308D01*
X56388Y51308D01*
X56288Y51306D01*
X56189Y51300D01*
X56089Y51290D01*
X55991Y51277D01*
X55892Y51259D01*
X55795Y51238D01*
X55699Y51213D01*
X55603Y51184D01*
X55509Y51151D01*
X55416Y51115D01*
X55325Y51075D01*
X55235Y51031D01*
X55147Y50984D01*
X55061Y50934D01*
X54977Y50880D01*
X54895Y50823D01*
X54816Y50763D01*
X54738Y50699D01*
X54664Y50633D01*
X54592Y50564D01*
X54523Y50492D01*
X54457Y50418D01*
X54393Y50340D01*
X54333Y50261D01*
X54276Y50179D01*
X54222Y50095D01*
X54172Y50009D01*
X54125Y49921D01*
X54081Y49831D01*
X54041Y49740D01*
X54005Y49647D01*
X53972Y49553D01*
X53943Y49457D01*
X53918Y49361D01*
X53897Y49264D01*
X53879Y49165D01*
X53866Y49067D01*
X53856Y48967D01*
X53850Y48868D01*
X53848Y48768D01*
X53848Y46228D01*
X53848Y56002D02*
X53848Y60066D01*
X53848Y56002D02*
X62992Y56002D01*
X62992Y60066D01*
X58928Y59050D02*
X58928Y56002D01*
X58928Y64059D02*
X58928Y66599D01*
X58926Y66699D01*
X58920Y66798D01*
X58910Y66898D01*
X58897Y66996D01*
X58879Y67095D01*
X58858Y67192D01*
X58833Y67288D01*
X58804Y67384D01*
X58771Y67478D01*
X58735Y67571D01*
X58695Y67662D01*
X58651Y67752D01*
X58604Y67840D01*
X58554Y67926D01*
X58500Y68010D01*
X58443Y68092D01*
X58383Y68171D01*
X58319Y68249D01*
X58253Y68323D01*
X58184Y68395D01*
X58112Y68464D01*
X58038Y68530D01*
X57960Y68594D01*
X57881Y68654D01*
X57799Y68711D01*
X57715Y68765D01*
X57629Y68815D01*
X57541Y68862D01*
X57451Y68906D01*
X57360Y68946D01*
X57267Y68982D01*
X57173Y69015D01*
X57077Y69044D01*
X56981Y69069D01*
X56884Y69090D01*
X56785Y69108D01*
X56687Y69121D01*
X56587Y69131D01*
X56488Y69137D01*
X56388Y69139D01*
X56288Y69137D01*
X56189Y69131D01*
X56089Y69121D01*
X55991Y69108D01*
X55892Y69090D01*
X55795Y69069D01*
X55699Y69044D01*
X55603Y69015D01*
X55509Y68982D01*
X55416Y68946D01*
X55325Y68906D01*
X55235Y68862D01*
X55147Y68815D01*
X55061Y68765D01*
X54977Y68711D01*
X54895Y68654D01*
X54816Y68594D01*
X54738Y68530D01*
X54664Y68464D01*
X54592Y68395D01*
X54523Y68323D01*
X54457Y68249D01*
X54393Y68171D01*
X54333Y68092D01*
X54276Y68010D01*
X54222Y67926D01*
X54172Y67840D01*
X54125Y67752D01*
X54081Y67662D01*
X54041Y67571D01*
X54005Y67478D01*
X53972Y67384D01*
X53943Y67288D01*
X53918Y67192D01*
X53897Y67095D01*
X53879Y66996D01*
X53866Y66898D01*
X53856Y66798D01*
X53850Y66699D01*
X53848Y66599D01*
X53848Y64059D01*
X62992Y64059D01*
X62992Y66599D01*
X62990Y66688D01*
X62984Y66776D01*
X62975Y66864D01*
X62961Y66952D01*
X62944Y67039D01*
X62923Y67125D01*
X62898Y67210D01*
X62869Y67294D01*
X62837Y67377D01*
X62802Y67458D01*
X62762Y67537D01*
X62720Y67615D01*
X62674Y67691D01*
X62625Y67765D01*
X62572Y67836D01*
X62517Y67905D01*
X62458Y67972D01*
X62397Y68036D01*
X62333Y68097D01*
X62266Y68156D01*
X62197Y68211D01*
X62126Y68264D01*
X62052Y68313D01*
X61976Y68359D01*
X61898Y68401D01*
X61819Y68441D01*
X61738Y68476D01*
X61655Y68508D01*
X61571Y68537D01*
X61486Y68562D01*
X61400Y68583D01*
X61313Y68600D01*
X61225Y68614D01*
X61137Y68623D01*
X61049Y68629D01*
X60960Y68631D01*
X60871Y68629D01*
X60783Y68623D01*
X60695Y68614D01*
X60607Y68600D01*
X60520Y68583D01*
X60434Y68562D01*
X60349Y68537D01*
X60265Y68508D01*
X60182Y68476D01*
X60101Y68441D01*
X60022Y68401D01*
X59944Y68359D01*
X59868Y68313D01*
X59794Y68264D01*
X59723Y68211D01*
X59654Y68156D01*
X59587Y68097D01*
X59523Y68036D01*
X59462Y67972D01*
X59403Y67905D01*
X59348Y67836D01*
X59295Y67765D01*
X59246Y67691D01*
X59200Y67615D01*
X59158Y67537D01*
X59118Y67458D01*
X59083Y67377D01*
X59051Y67294D01*
X59022Y67210D01*
X58997Y67125D01*
X58976Y67039D01*
X58959Y66952D01*
X58945Y66864D01*
X58936Y66776D01*
X58930Y66688D01*
X58928Y66599D01*
X56388Y73050D02*
X62992Y73050D01*
X56388Y73050D02*
X56288Y73052D01*
X56189Y73058D01*
X56089Y73068D01*
X55991Y73081D01*
X55892Y73099D01*
X55795Y73120D01*
X55699Y73145D01*
X55603Y73174D01*
X55509Y73207D01*
X55416Y73243D01*
X55325Y73283D01*
X55235Y73327D01*
X55147Y73374D01*
X55061Y73424D01*
X54977Y73478D01*
X54895Y73535D01*
X54816Y73595D01*
X54738Y73659D01*
X54664Y73725D01*
X54592Y73794D01*
X54523Y73866D01*
X54457Y73940D01*
X54393Y74018D01*
X54333Y74097D01*
X54276Y74179D01*
X54222Y74263D01*
X54172Y74349D01*
X54125Y74437D01*
X54081Y74527D01*
X54041Y74618D01*
X54005Y74711D01*
X53972Y74805D01*
X53943Y74901D01*
X53918Y74997D01*
X53897Y75094D01*
X53879Y75193D01*
X53866Y75291D01*
X53856Y75391D01*
X53850Y75490D01*
X53848Y75590D01*
X53850Y75690D01*
X53856Y75789D01*
X53866Y75889D01*
X53879Y75987D01*
X53897Y76086D01*
X53918Y76183D01*
X53943Y76279D01*
X53972Y76375D01*
X54005Y76469D01*
X54041Y76562D01*
X54081Y76653D01*
X54125Y76743D01*
X54172Y76831D01*
X54222Y76917D01*
X54276Y77001D01*
X54333Y77083D01*
X54393Y77162D01*
X54457Y77240D01*
X54523Y77314D01*
X54592Y77386D01*
X54664Y77455D01*
X54738Y77521D01*
X54816Y77585D01*
X54895Y77645D01*
X54977Y77702D01*
X55061Y77756D01*
X55147Y77806D01*
X55235Y77853D01*
X55325Y77897D01*
X55416Y77937D01*
X55509Y77973D01*
X55603Y78006D01*
X55699Y78035D01*
X55795Y78060D01*
X55892Y78081D01*
X55991Y78099D01*
X56089Y78112D01*
X56189Y78122D01*
X56288Y78128D01*
X56388Y78130D01*
X62992Y78130D01*
X58928Y86360D02*
X58928Y87884D01*
X53848Y87884D01*
X53848Y84836D01*
X53850Y84747D01*
X53856Y84659D01*
X53865Y84571D01*
X53879Y84483D01*
X53896Y84396D01*
X53917Y84310D01*
X53942Y84225D01*
X53971Y84141D01*
X54003Y84058D01*
X54038Y83977D01*
X54078Y83898D01*
X54120Y83820D01*
X54166Y83744D01*
X54215Y83670D01*
X54268Y83599D01*
X54323Y83530D01*
X54382Y83463D01*
X54443Y83399D01*
X54507Y83338D01*
X54574Y83279D01*
X54643Y83224D01*
X54714Y83171D01*
X54788Y83122D01*
X54864Y83076D01*
X54942Y83034D01*
X55021Y82994D01*
X55102Y82959D01*
X55185Y82927D01*
X55269Y82898D01*
X55354Y82873D01*
X55440Y82852D01*
X55527Y82835D01*
X55615Y82821D01*
X55703Y82812D01*
X55791Y82806D01*
X55880Y82804D01*
X60960Y82804D01*
X61049Y82806D01*
X61137Y82812D01*
X61225Y82821D01*
X61313Y82835D01*
X61400Y82852D01*
X61486Y82873D01*
X61571Y82898D01*
X61655Y82927D01*
X61738Y82959D01*
X61819Y82994D01*
X61898Y83034D01*
X61976Y83076D01*
X62052Y83122D01*
X62126Y83171D01*
X62197Y83224D01*
X62266Y83279D01*
X62333Y83338D01*
X62397Y83399D01*
X62458Y83463D01*
X62517Y83530D01*
X62572Y83599D01*
X62625Y83670D01*
X62674Y83744D01*
X62720Y83820D01*
X62762Y83898D01*
X62802Y83977D01*
X62837Y84058D01*
X62869Y84141D01*
X62898Y84225D01*
X62923Y84310D01*
X62944Y84396D01*
X62961Y84483D01*
X62975Y84571D01*
X62984Y84659D01*
X62990Y84747D01*
X62992Y84836D01*
X62992Y87884D01*
M02*
