G04 EAGLE Gerber RS-274X export*
G75*
%MOMM*%
%FSLAX34Y34*%
%LPD*%
%INTop Soldermask*%
%IPPOS*%
%AMOC8*
5,1,8,0,0,1.08239X$1,22.5*%
G01*
%ADD10R,1.403200X1.403200*%
%ADD11R,2.203200X3.203200*%
%ADD12C,1.524000*%
%ADD13R,1.303200X1.203200*%
%ADD14R,1.473200X0.762000*%
%ADD15R,0.762000X1.473200*%
%ADD16C,1.727200*%
%ADD17P,1.869504X8X112.500000*%
%ADD18C,1.727200*%
%ADD19R,1.203200X1.303200*%
%ADD20R,1.403200X0.803200*%
%ADD21R,0.903200X0.903200*%
%ADD22R,1.016000X0.457200*%
%ADD23R,0.457200X1.016000*%
%ADD24R,4.394200X4.394200*%
%ADD25C,1.711200*%
%ADD26R,0.803200X0.803200*%
%ADD27C,0.959600*%
%ADD28C,6.219200*%
%ADD29C,1.703200*%


D10*
X64400Y993650D03*
X64400Y972650D03*
D11*
X134500Y791000D03*
X134500Y891000D03*
X59500Y891000D03*
X59500Y791000D03*
D12*
X269001Y750299D03*
X269001Y724899D03*
X269001Y699499D03*
X269001Y674099D03*
X269001Y648699D03*
X343320Y647303D03*
X345201Y674099D03*
X345201Y699499D03*
X345201Y724899D03*
X345201Y750299D03*
X368501Y750299D03*
X368501Y724899D03*
X368501Y699499D03*
X368501Y674099D03*
X368501Y648699D03*
X442820Y647303D03*
X444701Y674099D03*
X444701Y699499D03*
X444701Y724899D03*
X444701Y750299D03*
D10*
X121030Y1004330D03*
X121030Y983330D03*
X176750Y1014500D03*
X176750Y993500D03*
X230980Y1016740D03*
X230980Y995740D03*
X285950Y1018300D03*
X285950Y997300D03*
X340920Y1018300D03*
X340920Y997300D03*
X395150Y1016740D03*
X395150Y995740D03*
X450870Y1014500D03*
X450870Y993500D03*
X505450Y1004330D03*
X505450Y983330D03*
X559700Y993650D03*
X559700Y972650D03*
D11*
X566500Y791000D03*
X566500Y891000D03*
X491500Y891000D03*
X491500Y791000D03*
X123500Y609000D03*
X123500Y709000D03*
X48500Y709000D03*
X48500Y609000D03*
X573500Y609000D03*
X573500Y709000D03*
X498500Y709000D03*
X498500Y609000D03*
X123500Y427000D03*
X123500Y527000D03*
X48500Y527000D03*
X48500Y427000D03*
X575500Y427000D03*
X575500Y527000D03*
X500500Y527000D03*
X500500Y427000D03*
X112500Y245000D03*
X112500Y345000D03*
X37500Y345000D03*
X37500Y245000D03*
X343750Y261000D03*
X343750Y361000D03*
X268750Y361000D03*
X268750Y261000D03*
X582500Y245000D03*
X582500Y345000D03*
X507500Y345000D03*
X507500Y245000D03*
D10*
X218720Y795480D03*
X218720Y774480D03*
X312560Y795480D03*
X312560Y774480D03*
X409510Y795480D03*
X409510Y774480D03*
X160930Y598620D03*
X160930Y577620D03*
X464070Y598620D03*
X464070Y577620D03*
X469130Y414350D03*
X469130Y393350D03*
X155900Y414340D03*
X155900Y393340D03*
X202300Y518400D03*
X202300Y497400D03*
X257450Y518400D03*
X257450Y497400D03*
X311700Y518400D03*
X311700Y497400D03*
X367290Y518400D03*
X367290Y497400D03*
X421990Y518400D03*
X421990Y497400D03*
D13*
X335080Y233500D03*
X335080Y216500D03*
X355160Y233500D03*
X355160Y216500D03*
X435000Y38500D03*
X435000Y21500D03*
X405000Y38500D03*
X405000Y21500D03*
D14*
X272074Y148000D03*
X272074Y140000D03*
X272074Y132000D03*
X272074Y124000D03*
X272074Y116000D03*
X272074Y108000D03*
X272074Y100000D03*
X272074Y92000D03*
D15*
X287000Y77074D03*
X295000Y77074D03*
X303000Y77074D03*
X311000Y77074D03*
X319000Y77074D03*
X327000Y77074D03*
X335000Y77074D03*
X343000Y77074D03*
D14*
X357926Y92000D03*
X357926Y100000D03*
X357926Y108000D03*
X357926Y116000D03*
X357926Y124000D03*
X357926Y132000D03*
X357926Y140000D03*
X357926Y148000D03*
D15*
X343000Y162926D03*
X335000Y162926D03*
X327000Y162926D03*
X319000Y162926D03*
X311000Y162926D03*
X303000Y162926D03*
X295000Y162926D03*
X287000Y162926D03*
D13*
X171500Y135000D03*
X188500Y135000D03*
X171500Y60000D03*
X188500Y60000D03*
X315000Y233500D03*
X315000Y216500D03*
D16*
X17780Y124460D03*
D17*
X17780Y149860D03*
X17780Y175260D03*
X43180Y124460D03*
X43180Y149860D03*
X43180Y175260D03*
D13*
X375000Y21500D03*
X375000Y38500D03*
X345000Y21500D03*
X345000Y38500D03*
X315000Y21500D03*
X315000Y38500D03*
D18*
X584962Y63246D02*
X600202Y63246D01*
X600202Y18034D02*
X584962Y18034D01*
X535178Y63246D02*
X519938Y63246D01*
X519938Y18034D02*
X535178Y18034D01*
D13*
X171500Y105000D03*
X188500Y105000D03*
D19*
X600000Y111500D03*
X600000Y128500D03*
X600000Y151660D03*
X600000Y168660D03*
X570000Y98500D03*
X570000Y81500D03*
X540000Y98500D03*
X540000Y81500D03*
X510000Y98500D03*
X510000Y81500D03*
D20*
X568000Y120550D03*
X568000Y133250D03*
X568000Y145950D03*
X568000Y158650D03*
X568000Y171350D03*
X568000Y184050D03*
X568000Y196750D03*
X568000Y209450D03*
X512000Y209450D03*
X512000Y196750D03*
X512000Y184050D03*
X512000Y171350D03*
X512000Y158650D03*
X512000Y145950D03*
X512000Y133250D03*
X512000Y120550D03*
D13*
X177800Y859400D03*
X177800Y842400D03*
X51500Y930000D03*
X68500Y930000D03*
D12*
X169501Y750299D03*
X169501Y724899D03*
X169501Y699499D03*
X169501Y674099D03*
X169501Y648699D03*
X243820Y647303D03*
X245701Y674099D03*
X245701Y699499D03*
X245701Y724899D03*
X245701Y750299D03*
D21*
X447950Y882800D03*
X447950Y869800D03*
X466450Y876300D03*
D13*
X431800Y867800D03*
X431800Y884800D03*
X406400Y867800D03*
X406400Y884800D03*
D22*
X262636Y594000D03*
X262636Y589000D03*
X262636Y584000D03*
X262636Y579000D03*
X262636Y574000D03*
X262636Y569000D03*
X262636Y564000D03*
X262636Y559000D03*
X262636Y554000D03*
X262636Y549000D03*
D23*
X269600Y542036D03*
X274600Y542036D03*
X279600Y542036D03*
X284600Y542036D03*
X289600Y542036D03*
X294600Y542036D03*
X299600Y542036D03*
X304600Y542036D03*
X309600Y542036D03*
X314600Y542036D03*
D22*
X321564Y549000D03*
X321564Y554000D03*
X321564Y559000D03*
X321564Y564000D03*
X321564Y569000D03*
X321564Y574000D03*
X321564Y579000D03*
X321564Y584000D03*
X321564Y589000D03*
X321564Y594000D03*
D23*
X314600Y600964D03*
X309600Y600964D03*
X304600Y600964D03*
X299600Y600964D03*
X294600Y600964D03*
X289600Y600964D03*
X284600Y600964D03*
X279600Y600964D03*
X274600Y600964D03*
X269600Y600964D03*
D24*
X292100Y571500D03*
D25*
X32940Y17780D02*
X17860Y17780D01*
X17860Y43180D02*
X32940Y43180D01*
X32940Y68580D02*
X17860Y68580D01*
X17860Y93980D02*
X32940Y93980D01*
D26*
X455500Y838200D03*
X433500Y838200D03*
X77900Y736600D03*
X99900Y736600D03*
X455500Y622300D03*
X433500Y622300D03*
X77900Y558800D03*
X99900Y558800D03*
X468200Y520700D03*
X446200Y520700D03*
X65200Y381000D03*
X87200Y381000D03*
X281100Y393700D03*
X303100Y393700D03*
X480900Y342900D03*
X458900Y342900D03*
D13*
X270900Y508000D03*
X287900Y508000D03*
D19*
X270900Y469900D03*
X287900Y469900D03*
D13*
X309000Y469900D03*
X326000Y469900D03*
D19*
X465000Y21500D03*
X465000Y38500D03*
D27*
X412246Y473473D03*
X279572Y490196D03*
X323964Y480751D03*
X69893Y918999D03*
X63282Y570478D03*
X41558Y663984D03*
X362688Y813215D03*
X516642Y680040D03*
X516642Y716876D03*
X427859Y854773D03*
X42503Y310741D03*
X191734Y93506D03*
X259738Y107673D03*
X449582Y80283D03*
X278628Y172844D03*
X382523Y81227D03*
X323964Y522309D03*
X291851Y522309D03*
X188900Y509086D03*
X62337Y912387D03*
X27391Y727265D03*
X116174Y643205D03*
X101062Y658317D03*
X285239Y259738D03*
X257849Y459972D03*
X387245Y645094D03*
X396690Y632815D03*
X421247Y328686D03*
X345687Y206846D03*
X261627Y620537D03*
X221958Y635649D03*
X140731Y659261D03*
X318297Y176622D03*
X324908Y47225D03*
X32113Y109562D03*
X153240Y153260D03*
X152400Y50800D03*
X283350Y216291D03*
X303185Y209679D03*
X525142Y289962D03*
X489251Y177566D03*
X391968Y322075D03*
X139786Y586535D03*
X155843Y658317D03*
X221013Y645094D03*
X351354Y156787D03*
X304129Y183233D03*
D28*
X190137Y936686D03*
X447555Y940392D03*
X188452Y265936D03*
X450441Y263457D03*
D27*
X70838Y142620D03*
X70838Y317352D03*
X477917Y864218D03*
X315463Y845328D03*
X261627Y791491D03*
X326797Y21724D03*
X245570Y484529D03*
X245570Y458083D03*
X568589Y730099D03*
X557255Y612036D03*
X254071Y612981D03*
X256904Y711209D03*
X118063Y558200D03*
X118063Y588424D03*
X229514Y683818D03*
X204012Y691374D03*
X352299Y638482D03*
X283350Y648872D03*
X380634Y730099D03*
X237070Y861384D03*
X542143Y944500D03*
X435415Y1001170D03*
X221958Y517586D03*
X245570Y516642D03*
X177566Y530809D03*
X322075Y508141D03*
X354188Y508141D03*
X409913Y512864D03*
X406135Y533643D03*
X482640Y588424D03*
X479806Y569534D03*
X203068Y579923D03*
X176622Y414636D03*
X488307Y686652D03*
X460916Y714042D03*
X203068Y591257D03*
X300351Y762212D03*
X252182Y637538D03*
X218180Y731988D03*
X359855Y682874D03*
X216291Y715931D03*
X185122Y571423D03*
X178511Y558200D03*
X189845Y696097D03*
X87839Y548755D03*
X82172Y583701D03*
X280517Y620537D03*
X268238Y627148D03*
X228569Y594091D03*
X228569Y542143D03*
X153009Y519475D03*
X124674Y547810D03*
X107673Y523253D03*
X432581Y793380D03*
X405191Y762212D03*
X300351Y728210D03*
X300351Y662095D03*
X496807Y571423D03*
X504363Y629982D03*
X504363Y687596D03*
X286184Y198345D03*
X228569Y510975D03*
X254071Y542143D03*
X292795Y627148D03*
X108618Y558200D03*
X166232Y466583D03*
X356077Y613925D03*
X397048Y431738D03*
X578979Y463750D03*
X578979Y643205D03*
X332464Y618648D03*
X356077Y533643D03*
X406135Y544977D03*
X433474Y629920D03*
X321130Y620537D03*
X481695Y630926D03*
X512864Y636593D03*
X330575Y542143D03*
X321130Y633760D03*
X124674Y912387D03*
X209679Y809437D03*
X146398Y495863D03*
X96339Y583701D03*
X270127Y496807D03*
X364577Y463750D03*
X405548Y458312D03*
X431637Y554422D03*
X143564Y942611D03*
X306963Y668706D03*
X150176Y916165D03*
X214402Y682874D03*
X305074Y483584D03*
X256904Y435415D03*
X380634Y599758D03*
X216291Y850050D03*
X206846Y702708D03*
X254071Y683818D03*
X378745Y506252D03*
X299407Y308852D03*
X485473Y857606D03*
X434470Y505308D03*
X400468Y522309D03*
X405191Y504363D03*
X371189Y620537D03*
X457138Y556311D03*
X223847Y867051D03*
X380634Y575201D03*
X374967Y472250D03*
X355132Y518531D03*
X393857Y817937D03*
X393857Y763156D03*
X464694Y511919D03*
X523253Y672484D03*
X504363Y738599D03*
X523253Y936000D03*
X454305Y847217D03*
X439193Y829271D03*
X380634Y814159D03*
X396240Y736600D03*
X426720Y482778D03*
X467360Y487680D03*
X508000Y502920D03*
X418517Y748717D03*
D29*
X472440Y762000D03*
X553720Y502920D03*
D27*
X524198Y908609D03*
X460916Y866107D03*
X387245Y801881D03*
X382523Y770712D03*
X513808Y571423D03*
X539310Y688541D03*
X543088Y770712D03*
X338131Y132230D03*
X343798Y195512D03*
X269183Y333409D03*
X172844Y427859D03*
X118063Y742377D03*
X118063Y761267D03*
X118063Y958668D03*
X105784Y992670D03*
X303185Y144509D03*
X19835Y387245D03*
X22668Y939778D03*
X470361Y147342D03*
X591257Y978502D03*
X133175Y1011560D03*
X293740Y144509D03*
X228569Y282406D03*
X215346Y295629D03*
X44392Y583701D03*
X34947Y876496D03*
X543088Y870829D03*
X474139Y731988D03*
X221958Y198345D03*
X81227Y574256D03*
M02*
