M48
;GenerationSoftware,Autodesk,EAGLE,9.2.2*%
;CreationDate,2019-04-17T17:32:05Z*%
FMAT,2
ICI,OFF
METRIC,TZ,000.000
T5C0.350
T4C0.813
T3C1.000
T2C1.016
T1C5.000
%
G90
M71
T1
X19014Y93669
X44756Y94039
X18845Y26594
X45044Y26346
T2
X4318Y14986
X1778Y12446
X1778Y14986
X1778Y17526
X4318Y12446
X4318Y17526
X59258Y6325
X59258Y1803
X52756Y6325
X52756Y1803
T3
X47244Y76200
X55372Y50292
X2540Y9398
X2540Y6858
X2540Y1778
X2540Y4318
T4
X36850Y67410
X36850Y64870
X44282Y64730
X44470Y67410
X44470Y69950
X36850Y72490
X44470Y75030
X36850Y69950
X26900Y75030
X26900Y72490
X26900Y69950
X44470Y72490
X26900Y67410
X26900Y64870
X34332Y64730
X34520Y67410
X34520Y69950
X34520Y72490
X16950Y72490
X16950Y69950
X16950Y67410
X16950Y64870
X24382Y64730
X16950Y75030
X24570Y69950
X24570Y72490
X24570Y75030
X34520Y75030
X36850Y75030
X24570Y67410
T5
X30413Y18323
X7084Y14262
X7084Y31735
X47792Y86422
X31546Y84533
X26163Y79149
X32680Y2172
X24557Y48453
X24557Y45808
X56859Y73010
X55725Y61204
X25407Y61298
X25690Y71121
X11806Y55820
X11806Y58842
X22951Y68382
X20401Y69137
X35230Y63848
X28335Y64887
X38063Y73010
X23707Y86138
X54214Y94450
X43541Y100117
X22196Y51759
X24557Y51664
X17757Y53081
X32207Y50814
X35419Y50814
X40991Y51286
X40614Y53364
X48264Y58842
X47981Y56953
X20307Y57992
X17662Y41464
X48831Y68665
X46092Y71404
X20307Y59126
X30035Y76221
X25218Y63754
X21818Y73199
X35985Y68287
X21629Y71593
X18512Y57142
X17851Y55820
X18984Y69610
X8784Y54875
X8217Y58370
X28052Y62054
X26824Y62715
X22857Y59409
X22857Y54214
X15301Y51947
X12467Y54781
X10767Y52325
X43258Y79338
X40519Y76221
X30035Y72821
X30035Y66209
X49681Y57142
X50436Y62998
X50436Y68760
X28618Y19835
X22857Y51097
X25407Y54214
X29279Y62715
X10862Y55820
X16623Y46658
X35608Y61392
X39705Y43174
X57898Y46375
X57898Y64320
X33246Y61865
X35608Y53364
X40614Y54498
X43347Y62992
X14073Y65926
X48169Y63093
X51286Y63659
X33058Y54214
X32113Y63376
X12467Y91239
X20968Y80944
X14640Y49586
X9634Y58370
X27013Y49681
X36458Y46375
X40555Y45831
X43164Y55442
X14356Y94261
X30696Y66871
X15018Y91616
X21440Y68287
X30507Y48358
X25690Y43541
X38063Y59976
X21629Y85005
X20685Y70271
X25407Y68382
X37874Y50625
X29941Y30885
X48547Y85761
X43447Y50531
X40047Y52231
X40519Y50436
X37119Y62054
X45714Y55631
X22385Y86705
X38063Y57520
X37497Y47225
X35513Y51853
X39386Y81794
X39386Y76316
X46469Y51192
X52325Y67248
X50436Y73860
X52325Y93600
X45430Y84722
X43919Y82927
X38063Y81416
X39624Y73660
X42672Y48278
X46736Y48768
X50800Y50292
X41852Y74872
X41225Y47347
X27957Y49020
X52420Y90861
X46092Y86611
X38725Y80188
X38252Y77071
X51381Y57142
X53931Y68854
X54309Y77071
X33813Y13223
X34380Y19551
X26918Y33341
X17284Y42786
X32396Y48075
X11806Y76127
X11806Y95867
X10578Y99267
X30318Y14451
X1983Y38725
X2267Y93978
X47036Y14734
X59126Y97850
X13317Y101156
X29374Y14451
X22857Y28241
X21535Y29563
X4439Y58370
X3495Y87650
X54309Y87083
X47414Y73199
X22196Y19835
X8123Y57426
X6989Y91900
X6328Y57048
X4156Y66398
X36269Y81321
X51664Y68004
X51664Y71688
X42786Y85477
X4250Y31074
X19173Y9351
X25974Y10767
X44958Y8028
X27863Y17284
X32113Y62054
X38252Y8123
X32396Y52231
X29185Y52231
X18890Y50909
X6234Y91239
X2739Y72727
X11617Y64320
X10106Y65832
X28524Y25974
X25785Y45997
X38725Y64509
X39669Y63281
X42125Y32869
X34569Y20685
X26163Y62054
X22196Y63565
X31830Y17662
X32491Y4723
X3211Y10956
X15324Y15326
X15240Y5080
X28335Y21629
X30318Y20968
X52514Y28996
X48925Y17757
X39197Y32207
X13979Y58653
X15584Y65832
X22101Y64509
X35135Y15679
X11806Y74238
M30